<svg width="10" height="6" viewBox="0 0 10 6" fill="none" xmlns="http://www.w3.org/2000/svg">
<path fill-rule="evenodd" clip-rule="evenodd" d="M9.25014 1.11052C9.20369 1.06395 9.14852 1.02701 9.08777 1.0018C9.02703 0.976598 8.96191 0.963623 8.89614 0.963623C8.83037 0.963623 8.76525 0.976598 8.70451 1.0018C8.64376 1.02701 8.58858 1.06395 8.54214 1.11052L4.89614 4.75752L1.25014 1.11052C1.15625 1.01663 1.02892 0.963885 0.896139 0.963885C0.763364 0.963885 0.636026 1.01663 0.542139 1.11052C0.448253 1.2044 0.395508 1.33174 0.395508 1.46452C0.395508 1.59729 0.448253 1.72463 0.542139 1.81852L4.54214 5.81852C4.58859 5.86508 4.64376 5.90202 4.70451 5.92723C4.76525 5.95244 4.83037 5.96541 4.89614 5.96541C4.96191 5.96541 5.02703 5.95244 5.08777 5.92723C5.14852 5.90202 5.20369 5.86508 5.25014 5.81852L9.25014 1.81852C9.2967 1.77207 9.33364 1.7169 9.35885 1.65615C9.38406 1.59541 9.39703 1.53028 9.39703 1.46452C9.39703 1.39875 9.38406 1.33363 9.35885 1.27288C9.33364 1.21214 9.2967 1.15696 9.25014 1.11052Z" fill="white"/>
</svg>
