<svg width="23" height="22" viewBox="0 0 23 22" fill="none" xmlns="http://www.w3.org/2000/svg">
<path d="M7.11672 1.99654C6.88561 2.00343 6.66626 2.10005 6.50514 2.26588L2.94687 5.82585C2.86403 5.90849 2.79831 6.0066 2.75347 6.11468C2.70863 6.22275 2.68555 6.33862 2.68555 6.45563C2.68555 6.57264 2.70863 6.68851 2.75347 6.79659C2.79831 6.90466 2.86403 7.00278 2.94687 7.08542L6.50514 10.6455C6.58734 10.7306 6.68571 10.7985 6.79448 10.8452C6.90325 10.8918 7.02024 10.9163 7.13859 10.9172C7.25694 10.9181 7.37427 10.8953 7.48372 10.8503C7.59317 10.8052 7.69253 10.7387 7.77599 10.6548C7.85944 10.5709 7.92532 10.4713 7.96975 10.3616C8.01418 10.2519 8.03628 10.1343 8.03475 10.016C8.03322 9.89766 8.00809 9.78079 7.96084 9.67228C7.91359 9.56377 7.84516 9.4658 7.75956 9.38407L5.72155 7.34265H19.5863C19.8225 7.34265 20.0489 7.24882 20.2159 7.08183C20.3829 6.91484 20.4767 6.6883 20.4767 6.45214C20.4767 6.21598 20.3829 5.98955 20.2159 5.82256C20.0489 5.65557 19.8225 5.56174 19.5863 5.56174H5.73025L7.75956 3.5272C7.88911 3.40267 7.97791 3.24176 8.01428 3.06579C8.05064 2.88981 8.03286 2.70695 7.96328 2.54127C7.8937 2.37559 7.77557 2.23487 7.62446 2.13763C7.47335 2.04038 7.29633 1.99123 7.11672 1.99654ZM16.0211 10.8939C15.8451 10.8953 15.6735 10.9489 15.528 11.0478C15.3825 11.1467 15.2696 11.2866 15.2036 11.4497C15.1376 11.6128 15.1214 11.7919 15.1571 11.9642C15.1929 12.1364 15.2789 12.2943 15.4043 12.4177L17.4458 14.4608H3.57756C3.345 14.4659 3.12369 14.5619 2.96102 14.7282C2.79835 14.8945 2.70726 15.1178 2.70726 15.3504C2.70726 15.583 2.79835 15.8064 2.96102 15.9727C3.12369 16.139 3.345 16.2349 3.57756 16.24H17.4406L15.4043 18.2815C15.3112 18.3613 15.2355 18.4594 15.1821 18.5697C15.1287 18.6801 15.0987 18.8004 15.094 18.9229C15.0893 19.0454 15.1099 19.1675 15.1547 19.2817C15.1994 19.3959 15.2672 19.4996 15.3539 19.5863C15.4406 19.673 15.5443 19.7409 15.6585 19.7856C15.7726 19.8303 15.8948 19.851 16.0173 19.8462C16.1398 19.8415 16.2601 19.8115 16.3704 19.7581C16.4808 19.7047 16.579 19.6291 16.6587 19.536L20.217 15.9776C20.3827 15.8109 20.4757 15.5855 20.4757 15.3504C20.4757 15.1154 20.3827 14.8899 20.217 14.7232L16.6587 11.1632C16.5758 11.078 16.4767 11.0102 16.3672 10.964C16.2576 10.9177 16.14 10.8939 16.0211 10.8939Z" fill="#E0883C"/>
</svg>
