<svg width="28" height="28" viewBox="0 0 28 28" fill="none" xmlns="http://www.w3.org/2000/svg">
<g clip-path="url(#clip0_117_16601)">
<path d="M27.3271 27.0664H0.327148V27.9997H27.3271V27.0664Z" fill="white"/>
<path d="M2.12773 26.1341H6.62773C6.87625 26.1341 7.07773 25.9252 7.07773 25.6674V17.2674C7.07773 17.0097 6.87625 16.8008 6.62773 16.8008H2.12773C1.87922 16.8008 1.67773 17.0097 1.67773 17.2674V25.6674C1.67773 25.9252 1.87922 26.1341 2.12773 26.1341ZM2.57773 17.7341H6.17773V25.2008H2.57773V17.7341Z" fill="white"/>
<path d="M14.7273 26.1326H19.2273C19.4759 26.1326 19.6773 25.9236 19.6773 25.6659V11.6659C19.6773 11.4082 19.4759 11.1992 19.2273 11.1992H14.7273C14.4788 11.1992 14.2773 11.4082 14.2773 11.6659V25.6659C14.2773 25.9236 14.4788 26.1326 14.7273 26.1326ZM15.1773 12.1326H18.7773V25.1992H15.1773V12.1326Z" fill="white"/>
<path d="M8.42656 26.1329H12.9266C13.1751 26.1329 13.3766 25.924 13.3766 25.6663V6.06628C13.3766 5.80856 13.1751 5.59961 12.9266 5.59961H8.42656C8.17805 5.59961 7.97656 5.80856 7.97656 6.06628V25.6663C7.97656 25.924 8.17805 26.1329 8.42656 26.1329ZM8.87656 6.53294H12.4766V25.1996H8.87656V6.53294Z" fill="white"/>
<path d="M21.0271 26.1333H25.5271C25.7757 26.1333 25.9771 25.9244 25.9771 25.6667V0.466667C25.9771 0.20895 25.7757 0 25.5271 0H21.0271C20.7786 0 20.5771 0.20895 20.5771 0.466667V25.6667C20.5771 25.9244 20.7786 26.1333 21.0271 26.1333ZM21.4771 0.933333H25.0771V25.2H21.4771V0.933333Z" fill="white"/>
</g>
<defs>
<clipPath id="clip0_117_16601">
<rect width="27" height="28" fill="white" transform="translate(0.327148)"/>
</clipPath>
</defs>
</svg>
