<svg width="24" height="25" viewBox="0 0 24 25" fill="none" xmlns="http://www.w3.org/2000/svg">
<g clip-path="url(#clip0_117_17885)">
<path d="M23.641 14.9301C22.0377 21.3621 15.521 25.2721 9.09824 23.6687C2.66605 22.0653 -1.24389 15.549 0.359518 9.12625C1.96283 2.69425 8.47002 -1.21569 14.9022 0.387717C21.325 1.98166 25.2444 8.49803 23.641 14.9301Z" fill="url(#paint0_linear_117_17885)"/>
<path d="M17.7141 10.5328C17.9484 8.93903 16.7391 8.07653 15.0703 7.50466L15.6141 5.33903L14.3016 5.01091L13.7766 7.12028C13.4297 7.03591 13.0734 6.95153 12.7172 6.87653L13.2422 4.75778L11.9297 4.42966L11.3953 6.58591C11.1047 6.52028 10.8234 6.45466 10.5516 6.38903V6.37966L8.73281 5.92966L8.38594 7.33591C8.38594 7.33591 9.36094 7.56091 9.34219 7.57028C9.87656 7.70153 9.97031 8.05778 9.95156 8.33903L9.33281 10.8047C9.37031 10.814 9.41719 10.8234 9.47344 10.8515C9.42656 10.8422 9.37969 10.8328 9.33281 10.814L8.47031 14.264C8.40469 14.4234 8.23594 14.6672 7.87031 14.5734C7.87969 14.5922 6.91406 14.339 6.91406 14.339L6.25781 15.8484L7.97344 16.2797C8.29219 16.364 8.60156 16.439 8.91094 16.5234L8.36719 18.7078L9.67969 19.0359L10.2234 16.8703C10.5797 16.964 10.9359 17.0578 11.2734 17.1422L10.7391 19.2984L12.0516 19.6265L12.5953 17.4422C14.8453 17.864 16.5328 17.6953 17.2359 15.6609C17.8078 14.0297 17.2078 13.0828 16.0266 12.464C16.8984 12.2672 17.5453 11.6953 17.7141 10.5328ZM14.7047 14.7515C14.3016 16.3828 11.5453 15.5015 10.6547 15.2765L11.3766 12.3797C12.2672 12.6047 15.1359 13.0453 14.7047 14.7515ZM15.1172 10.5047C14.7422 11.9953 12.4547 11.2359 11.7141 11.0484L12.3703 8.42341C13.1109 8.61091 15.5016 8.95778 15.1172 10.5047Z" fill="white"/>
</g>
<defs>
<linearGradient id="paint0_linear_117_17885" x1="11.9935" y1="0.0224382" x2="11.9935" y2="24.0258" gradientUnits="userSpaceOnUse">
<stop stop-color="#F9AA4B"/>
<stop offset="1" stop-color="#F7931A"/>
</linearGradient>
<clipPath id="clip0_117_17885">
<rect width="24" height="24" fill="white" transform="translate(0 0.0280762)"/>
</clipPath>
</defs>
</svg>
