<svg width="25" height="25" viewBox="0 0 25 25" fill="none" xmlns="http://www.w3.org/2000/svg">
<g clip-path="url(#clip0_117_6943)">
<path d="M24.0482 15.2878C22.4449 21.7198 15.9283 25.6297 9.50546 24.0263C3.07328 22.423 -0.836661 15.9066 0.766745 9.48392C2.37006 3.05191 8.87724 -0.858023 15.3094 0.745383C21.7322 2.33932 25.6517 8.85569 24.0482 15.2878Z" fill="url(#paint0_linear_117_6943)"/>
<path d="M18.1213 10.8904C18.3557 9.2967 17.1463 8.4342 15.4775 7.86232L16.0213 5.6967L14.7088 5.36857L14.1838 7.47795C13.8369 7.39357 13.4807 7.3092 13.1244 7.2342L13.6494 5.11545L12.3369 4.78732L11.8025 6.94357C11.5119 6.87795 11.2307 6.81232 10.9588 6.7467V6.73732L9.14004 6.28732L8.79316 7.69357C8.79316 7.69357 9.76816 7.91857 9.74941 7.92795C10.2838 8.0592 10.3775 8.41545 10.3588 8.6967L9.74004 11.1623C9.77754 11.1717 9.82441 11.1811 9.88066 11.2092C9.83379 11.1998 9.78691 11.1904 9.74004 11.1717L8.87754 14.6217C8.81191 14.7811 8.64316 15.0248 8.27754 14.9311C8.28691 14.9498 7.32129 14.6967 7.32129 14.6967L6.66504 16.2061L8.38066 16.6373C8.69941 16.7217 9.00879 16.7967 9.31816 16.8811L8.77441 19.0655L10.0869 19.3936L10.6307 17.228C10.9869 17.3217 11.3432 17.4155 11.6807 17.4998L11.1463 19.6561L12.4588 19.9842L13.0025 17.7998C15.2525 18.2217 16.94 18.053 17.6432 16.0186C18.215 14.3873 17.615 13.4404 16.4338 12.8217C17.3057 12.6248 17.9525 12.0529 18.1213 10.8904ZM15.1119 15.1092C14.7088 16.7405 11.9525 15.8592 11.0619 15.6342L11.7838 12.7373C12.6744 12.9623 15.5432 13.403 15.1119 15.1092ZM15.5244 10.8623C15.1494 12.3529 12.8619 11.5936 12.1213 11.4061L12.7775 8.78107C13.5182 8.96857 15.9088 9.31545 15.5244 10.8623Z" fill="white"/>
</g>
<defs>
<linearGradient id="paint0_linear_117_6943" x1="12.4007" y1="0.380104" x2="12.4007" y2="24.3834" gradientUnits="userSpaceOnUse">
<stop stop-color="#F9AA4B"/>
<stop offset="1" stop-color="#F7931A"/>
</linearGradient>
<clipPath id="clip0_117_6943">
<rect width="24" height="24" fill="white" transform="translate(0.407227 0.385742)"/>
</clipPath>
</defs>
</svg>
