<svg width="51" height="51" viewBox="0 0 51 51" fill="none" xmlns="http://www.w3.org/2000/svg">
<g clip-path="url(#clip0_117_16209)">
<path d="M50.4277 6.28008C50.4277 3.1196 47.8589 0.550781 44.6984 0.550781H6.15703C2.99655 0.550781 0.427734 3.1196 0.427734 6.28008V44.8215C0.427734 47.982 2.99655 50.5508 6.15703 50.5508H44.6984C47.8589 50.5508 50.4277 47.982 50.4277 44.8215V6.28008Z" fill="#E0883C"/>
<path d="M38.0988 17.3074C38.9133 18.1218 38.9133 19.4383 38.0988 20.2531L24.557 33.7945C24.1508 34.2008 23.6175 34.4053 23.0842 34.4053C22.5509 34.4053 22.0176 34.2008 21.6113 33.7945L14.8406 27.0238C14.0258 26.2094 14.0258 24.8925 14.8406 24.0781C15.655 23.2633 16.9715 23.2633 17.7863 24.0781L23.0842 29.376L35.1531 17.3074C35.9675 16.4926 37.284 16.4926 38.0988 17.3074Z" fill="#FAFAFA"/>
</g>
<defs>
<clipPath id="clip0_117_16209">
<rect x="0.427734" y="0.550781" width="50" height="50" rx="25" fill="white"/>
</clipPath>
</defs>
</svg>
