<svg width="21" height="21" viewBox="0 0 21 21" fill="none" xmlns="http://www.w3.org/2000/svg">
<g clip-path="url(#clip0_117_15465)">
<path d="M11.3652 18.1437H8.0319C7.8019 18.1437 7.61523 17.9571 7.61523 17.7271C7.61523 17.4971 7.8019 17.3104 8.0319 17.3104H11.3652C12.0544 17.3104 12.6152 16.7496 12.6152 16.0604V11.8937C12.6152 11.6637 12.8019 11.4771 13.0319 11.4771C13.2619 11.4771 13.4486 11.6637 13.4486 11.8937V16.0604C13.4486 17.2087 12.5144 18.1437 11.3652 18.1437Z" fill="#8EA9B4"/>
<path d="M19.6982 9.81038H11.3649C11.1349 9.81038 10.9482 9.62372 10.9482 9.39372C10.9482 9.16372 11.1349 8.97705 11.3649 8.97705H19.6982C19.9282 8.97705 20.1149 9.16372 20.1149 9.39372C20.1149 9.62372 19.9282 9.81038 19.6982 9.81038Z" fill="#8EA9B4"/>
<path d="M6.7819 20.6436C6.59857 20.6436 6.4194 20.6127 6.25023 20.5527L1.25857 18.8886C0.575234 18.6611 0.115234 18.0261 0.115234 17.3102V2.31022C0.115234 1.39105 0.862734 0.643555 1.7819 0.643555C1.9669 0.643555 2.1469 0.674388 2.3144 0.735221L7.30523 2.39855C7.98857 2.62522 8.44857 3.26022 8.44857 3.97689V18.9769C8.44857 19.8961 7.70107 20.6436 6.7819 20.6436ZM1.7819 1.47689C1.3219 1.47689 0.948568 1.85105 0.948568 2.31022V17.3102C0.948568 17.6669 1.17857 17.9836 1.5219 18.0986L6.5219 19.7652C7.06857 19.9594 7.61523 19.5219 7.61523 18.9769V3.97689C7.61523 3.61939 7.38523 3.30272 7.0419 3.18939L2.0419 1.52272C1.95607 1.49189 1.86857 1.47689 1.7819 1.47689Z" fill="#8EA9B4"/>
<path d="M13.0319 7.31022C12.8019 7.31022 12.6152 7.12355 12.6152 6.89355V2.72689C12.6152 2.03772 12.0544 1.47689 11.3652 1.47689H1.7819C1.5519 1.47689 1.36523 1.29022 1.36523 1.06022C1.36523 0.830221 1.5519 0.643555 1.7819 0.643555H11.3652C12.5144 0.643555 13.4486 1.57855 13.4486 2.72689V6.89355C13.4486 7.12355 13.2619 7.31022 13.0319 7.31022Z" fill="#8EA9B4"/>
<path d="M16.3651 13.1436C16.2585 13.1436 16.1518 13.1027 16.0701 13.0219C15.9076 12.8594 15.9076 12.5952 16.0701 12.4327L19.1085 9.3944L16.0701 6.35606C15.9076 6.19356 15.9076 5.92939 16.0701 5.76689C16.2326 5.60439 16.4968 5.60439 16.6593 5.76689L19.9926 9.10023C20.1551 9.26273 20.1551 9.52689 19.9926 9.68939L16.6593 13.0227C16.5785 13.1027 16.4718 13.1436 16.3651 13.1436Z" fill="#8EA9B4"/>
</g>
<defs>
<clipPath id="clip0_117_15465">
<rect width="20" height="20" fill="white" transform="translate(0.115234 0.643555)"/>
</clipPath>
</defs>
</svg>
