<svg width="15" height="11" viewBox="0 0 15 11" fill="none" xmlns="http://www.w3.org/2000/svg">
<g clip-path="url(#clip0_117_12855)">
<path d="M1.19923 5.25664C1.92275 4.13773 2.86146 3.18726 3.91365 2.50777C5.07767 1.75527 6.36283 1.35742 7.62994 1.35742C8.79259 1.35742 9.93584 1.68965 11.0279 2.3448C12.1416 3.01281 13.1506 3.98871 14.027 5.24515C14.1259 5.38715 14.1804 5.55536 14.1835 5.72839C14.1867 5.90143 14.1383 6.07148 14.0445 6.21695C13.3223 7.34707 12.3929 8.2989 11.3572 8.9691C10.191 9.72461 8.93588 10.1074 7.62994 10.1074C6.35271 10.1074 5.06482 9.71285 3.90572 8.96664C2.85408 8.28933 1.91728 7.33531 1.1965 6.20711C1.10597 6.06502 1.05811 5.89995 1.0586 5.73147C1.05908 5.563 1.10789 5.3982 1.19923 5.25664ZM7.62064 8.35742C8.13982 8.35742 8.64733 8.20347 9.07901 7.91503C9.51069 7.62659 9.84714 7.21662 10.0458 6.73696C10.2445 6.25731 10.2965 5.72951 10.1952 5.22031C10.0939 4.71111 9.84391 4.24338 9.4768 3.87626C9.10968 3.50915 8.64195 3.25915 8.13275 3.15786C7.62355 3.05657 7.09575 3.10856 6.6161 3.30724C6.13644 3.50592 5.72647 3.84237 5.43803 4.27405C5.14959 4.70573 4.99564 5.21324 4.99564 5.73242C4.99644 6.42837 5.27325 7.09559 5.76536 7.5877C6.25748 8.07981 6.92469 8.35662 7.62064 8.35742Z" fill="#095778"/>
</g>
<defs>
<clipPath id="clip0_117_12855">
<rect width="14" height="10" fill="white" transform="translate(0.620117 0.732422)"/>
</clipPath>
</defs>
</svg>
