<svg width="38" height="39" viewBox="0 0 38 39" fill="none" xmlns="http://www.w3.org/2000/svg">
<rect x="0.00683594" y="0.959717" width="37.9863" height="37.9863" fill="#003A52"/>
<g clip-path="url(#clip0_117_14861)">
<path d="M31.4687 15.0412C31.4125 13.766 31.2063 12.8893 30.9109 12.1296C30.6061 11.3232 30.1373 10.6013 29.523 10.0011C28.9229 9.39163 28.1962 8.91803 27.3991 8.61804C26.6351 8.32264 25.763 8.11642 24.4877 8.0602C23.203 7.99921 22.7952 7.98511 19.5367 7.98511C16.2783 7.98511 15.8704 7.99921 14.5904 8.05543C13.3152 8.11166 12.4385 8.31806 11.679 8.61328C10.8725 8.91803 10.1505 9.38687 9.55038 10.0011C8.94089 10.6013 8.46747 11.328 8.1673 12.125C7.87189 12.8893 7.66568 13.7612 7.60945 15.0364C7.54846 16.3211 7.53436 16.729 7.53436 19.9875C7.53436 23.2459 7.54846 23.6538 7.60469 24.9337C7.66091 26.2089 7.86731 27.0856 8.16272 27.8453C8.46747 28.6517 8.94089 29.3736 9.55038 29.9738C10.1505 30.5833 10.8772 31.0569 11.6743 31.3569C12.4385 31.6523 13.3105 31.8585 14.5859 31.9147C15.8656 31.9711 16.2737 31.985 19.5321 31.985C22.7906 31.985 23.1984 31.9711 24.4784 31.9147C25.7536 31.8585 26.6303 31.6523 27.3898 31.3569C29.0027 30.7333 30.2779 29.4581 30.9015 27.8453C31.1968 27.0811 31.4032 26.2089 31.4594 24.9337C31.5156 23.6538 31.5297 23.2459 31.5297 19.9875C31.5297 16.729 31.525 16.3211 31.4687 15.0412ZM29.3075 24.84C29.2558 26.0121 29.059 26.645 28.8949 27.067C28.4916 28.1125 27.6618 28.9423 26.6162 29.3456C26.1943 29.5097 25.5567 29.7066 24.3892 29.758C23.1233 29.8144 22.7437 29.8284 19.5415 29.8284C16.3392 29.8284 15.9548 29.8144 14.6935 29.758C13.5214 29.7066 12.8885 29.5097 12.4665 29.3456C11.9462 29.1533 11.4726 28.8486 11.0882 28.45C10.6897 28.0609 10.385 27.592 10.1927 27.0717C10.0286 26.6498 9.83169 26.0121 9.78022 24.8447C9.72382 23.5789 9.7099 23.199 9.7099 19.9968C9.7099 16.7946 9.72382 16.4102 9.78022 15.149C9.83169 13.9769 10.0286 13.344 10.1927 12.922C10.385 12.4016 10.6897 11.9281 11.093 11.5435C11.482 11.145 11.9508 10.8403 12.4713 10.6482C12.8933 10.4841 13.531 10.2872 14.6983 10.2355C15.9642 10.1793 16.344 10.1652 19.546 10.1652C22.753 10.1652 23.1327 10.1793 24.394 10.2355C25.5661 10.2872 26.199 10.4841 26.621 10.6482C27.1413 10.8403 27.6149 11.145 27.9993 11.5435C28.3978 11.9327 28.7026 12.4016 28.8949 12.922C29.059 13.344 29.2558 13.9815 29.3075 15.149C29.3637 16.4149 29.3778 16.7946 29.3778 19.9968C29.3778 23.199 29.3637 23.5741 29.3075 24.84Z" fill="#E0883C"/>
<path d="M19.5364 13.822C16.1327 13.822 13.3711 16.5834 13.3711 19.9873C13.3711 23.3912 16.1327 26.1526 19.5364 26.1526C22.9402 26.1526 25.7016 23.3912 25.7016 19.9873C25.7016 16.5834 22.9402 13.822 19.5364 13.822ZM19.5364 23.9865C17.3282 23.9865 15.5371 22.1956 15.5371 19.9873C15.5371 17.779 17.3282 15.988 19.5364 15.988C21.7447 15.988 23.5356 17.779 23.5356 19.9873C23.5356 22.1956 21.7447 23.9865 19.5364 23.9865Z" fill="#E0883C"/>
<path d="M27.3847 13.5787C27.3847 14.3735 26.7402 15.018 25.9452 15.018C25.1503 15.018 24.5059 14.3735 24.5059 13.5787C24.5059 12.7837 25.1503 12.1394 25.9452 12.1394C26.7402 12.1394 27.3847 12.7837 27.3847 13.5787Z" fill="#E0883C"/>
</g>
<defs>
<clipPath id="clip0_117_14861">
<rect width="24" height="24" fill="white" transform="translate(7.49219 7.98511)"/>
</clipPath>
</defs>
</svg>
