<svg width="39" height="39" viewBox="0 0 39 39" fill="none" xmlns="http://www.w3.org/2000/svg">
<rect x="0.298828" y="0.228027" width="37.9863" height="37.9863" fill="#004662"/>
<path fill-rule="evenodd" clip-rule="evenodd" d="M19.292 9.34314C15.3022 9.34314 10.1237 10.3473 10.1237 10.3473L10.1107 10.3622C8.29356 10.6541 6.90137 12.2226 6.90137 14.13V19.8742V24.3794C6.90503 26.2631 8.26939 27.8634 10.12 28.1565L10.1237 28.1621C10.1237 28.1621 15.3022 29.1681 19.292 29.1681C23.2818 29.1681 28.4602 28.1621 28.4602 28.1621C30.3149 27.8678 31.6806 26.2651 31.6826 24.3813V19.8761V14.13C31.6799 12.2474 30.3153 10.6461 28.464 10.3529C28.4602 10.3473 23.2818 9.34314 19.292 9.34314ZM16.814 14.9175L24.2484 19.2543L16.814 23.591V14.9175Z" fill="#E0883C"/>
</svg>
