<svg width="39" height="39" viewBox="0 0 39 39" fill="none" xmlns="http://www.w3.org/2000/svg">
<rect x="0.0732422" y="0.96167" width="37.9863" height="37.9863" fill="#003A52"/>
<path d="M13.6518 27.9792H9.5332V14.739H13.6518V27.9792Z" fill="#E0883C"/>
<path d="M11.5498 12.7508C10.2221 12.7508 9.14844 11.6754 9.14844 10.3517C9.14844 9.02791 10.2235 7.95386 11.5498 7.95386C12.8734 7.95386 13.9498 9.02931 13.9498 10.3517C13.9498 11.6754 12.8734 12.7508 11.5498 12.7508Z" fill="#E0883C"/>
<path d="M28.9833 27.9783H24.8674V21.5396C24.8674 20.0038 24.8395 18.0286 22.7271 18.0286C20.584 18.0286 20.2545 19.7011 20.2545 21.428V27.9783H16.1387V14.7381H20.0898V16.5473H20.1456C20.6957 15.5067 22.0388 14.4089 24.0423 14.4089C28.2126 14.4089 28.9833 17.1513 28.9833 20.7166V27.9783Z" fill="#E0883C"/>
</svg>
