<svg width="39" height="39" viewBox="0 0 39 39" fill="none" xmlns="http://www.w3.org/2000/svg">
<rect x="0.832031" y="0.22998" width="37.9863" height="37.9863" fill="#004662"/>
<path d="M14.4106 27.2475H10.292V14.0073H14.4106V27.2475Z" fill="#E0883C"/>
<path d="M12.3091 12.0192C10.9814 12.0192 9.90771 10.9437 9.90771 9.61997C9.90771 8.29623 10.9828 7.22217 12.3091 7.22217C13.6326 7.22217 14.7091 8.29762 14.7091 9.61997C14.7091 10.9437 13.6326 12.0192 12.3091 12.0192Z" fill="#E0883C"/>
<path d="M29.743 27.2468H25.6272V20.808C25.6272 19.2722 25.5992 17.2971 23.4869 17.2971C21.3438 17.2971 21.0143 18.9695 21.0143 20.6964V27.2468H16.8984V14.0066H20.8495V15.8157H20.9054C21.4555 14.7751 22.7986 13.6774 24.802 13.6774C28.9723 13.6774 29.743 16.4197 29.743 19.985V27.2468Z" fill="#E0883C"/>
</svg>
