<svg width="19" height="19" viewBox="0 0 19 19" fill="none" xmlns="http://www.w3.org/2000/svg">
<g clip-path="url(#clip0_117_4824)">
<path d="M9.90894 0.450439C4.95449 0.450439 0.923828 4.4811 0.923828 9.43555C0.923828 14.39 4.95449 18.4207 9.90894 18.4207C14.8634 18.4207 18.894 14.39 18.894 9.43555C18.894 4.4811 14.8634 0.450439 9.90894 0.450439ZM9.90894 17.2975C5.5739 17.2975 2.04697 13.7706 2.04697 9.43555C2.04697 5.10051 5.57362 1.57358 9.90894 1.57358C14.244 1.57358 17.7709 5.10051 17.7709 9.43555C17.7709 13.7706 14.244 17.2975 9.90894 17.2975Z" fill="#E28D44"/>
<path d="M10.7793 4.92603C10.5758 4.71909 10.327 4.61548 10.0322 4.61548C9.74126 4.61548 9.49333 4.71909 9.28779 4.92603C9.08254 5.13296 8.97949 5.38146 8.97949 5.67123C8.97949 5.95707 9.0831 6.20332 9.2906 6.41025C9.4981 6.61719 9.74575 6.7208 10.0322 6.7208C10.3225 6.7208 10.5707 6.6186 10.7762 6.41334C10.9818 6.20865 11.0845 5.96128 11.0845 5.67123C11.0845 5.38118 10.9829 5.13296 10.7793 4.92603Z" fill="#E28D44"/>
<path d="M10.972 12.0404V7.3999H8.13184V8.78866H9.04747V12.0404H8.13184V13.4292H11.8688V12.0404H10.972Z" fill="#E28D44"/>
</g>
<defs>
<clipPath id="clip0_117_4824">
<rect width="17.9702" height="17.9702" fill="white" transform="translate(0.923828 0.450439)"/>
</clipPath>
</defs>
</svg>
