<svg width="21" height="21" viewBox="0 0 21 21" fill="none" xmlns="http://www.w3.org/2000/svg">
<path d="M9.01172 10.9699C9.3696 11.4484 9.82618 11.8443 10.3505 12.1307C10.8748 12.4172 11.4546 12.5875 12.0506 12.6302C12.6465 12.6729 13.2447 12.5869 13.8045 12.3781C14.3643 12.1693 14.8726 11.8425 15.2951 11.4199L17.7951 8.91994C18.554 8.1341 18.974 7.08159 18.9645 5.9891C18.955 4.89662 18.5168 3.85156 17.7443 3.07903C16.9718 2.3065 15.9267 1.86829 14.8342 1.8588C13.7417 1.84931 12.6892 2.26928 11.9034 3.02828L10.4701 4.45328" stroke="white" stroke-linecap="round" stroke-linejoin="round"/>
<path d="M12.3455 9.30349C11.9877 8.82505 11.5311 8.42917 11.0068 8.14271C10.4824 7.85624 9.90262 7.68589 9.30667 7.64321C8.71072 7.60053 8.11256 7.68652 7.55276 7.89534C6.99296 8.10416 6.48462 8.43093 6.06221 8.85349L3.56221 11.3535C2.80322 12.1393 2.38324 13.1918 2.39274 14.2843C2.40223 15.3768 2.84043 16.4219 3.61297 17.1944C4.3855 17.9669 5.43055 18.4051 6.52304 18.4146C7.61553 18.4241 8.66803 18.0042 9.45388 17.2452L10.8789 15.8202" stroke="white" stroke-linecap="round" stroke-linejoin="round"/>
</svg>
