<svg width="26" height="27" viewBox="0 0 26 27" fill="none" xmlns="http://www.w3.org/2000/svg">
<path fill-rule="evenodd" clip-rule="evenodd" d="M21.6925 6.41284C22.2839 6.41284 22.809 6.68333 23.1394 7.10171L13.5429 14.7812L4.03189 7.24117C4.3499 6.74441 4.92345 6.41284 5.57818 6.41284H21.6925ZM3.76758 19.1967V8.60387L10.592 14.0141L3.78165 19.4131C3.77236 19.3422 3.76758 19.27 3.76758 19.1967ZM4.39171 20.5017C4.70947 20.7649 5.12432 20.9243 5.57818 20.9243H21.6925C22.0826 20.9243 22.4439 20.8066 22.7395 20.6063L15.4877 14.8032L14.1837 15.8468C13.8148 16.1419 13.2776 16.1431 12.9073 15.8496L11.5836 14.8002L4.39171 20.5017ZM16.4739 14.0141L23.4536 19.5995C23.486 19.4703 23.5031 19.3354 23.5031 19.1967V8.38899L16.4739 14.0141Z" fill="#E28D44"/>
</svg>
