<svg width="23" height="22" viewBox="0 0 23 22" fill="none" xmlns="http://www.w3.org/2000/svg">
<circle cx="11.3818" cy="11.0654" r="10.9424" fill="#003A52"/>
<path d="M15.3534 7.97933L14.4695 7.09545C14.4405 7.06642 14.406 7.0434 14.3681 7.0277C14.3302 7.01199 14.2896 7.00391 14.2485 7.00391C14.2075 7.00391 14.1668 7.01199 14.1289 7.0277C14.091 7.0434 14.0566 7.06642 14.0276 7.09545L13.4404 7.68255L14.7663 9.00838L15.3534 8.42126C15.3824 8.39225 15.4054 8.3578 15.4211 8.31988C15.4368 8.28197 15.4449 8.24133 15.4449 8.2003C15.4449 8.15926 15.4368 8.11862 15.4211 8.08071C15.4054 8.04279 15.3824 8.00835 15.3534 7.97933Z" fill="white"/>
<path d="M7.85381 13.269C7.8195 13.3033 7.79366 13.3451 7.77832 13.3912L7.33635 14.717C7.318 14.7721 7.31534 14.8311 7.32867 14.8876C7.342 14.9441 7.3708 14.9958 7.41184 15.0368C7.45288 15.0778 7.50454 15.1066 7.56102 15.12C7.6175 15.1333 7.67658 15.1307 7.73164 15.1123L9.05748 14.6703C9.10351 14.655 9.14533 14.6292 9.17963 14.5949L14.3243 9.45023L12.9984 8.12439L7.85381 13.269Z" fill="white"/>
</svg>
