<svg width="29" height="29" viewBox="0 0 29 29" fill="none" xmlns="http://www.w3.org/2000/svg">
<g clip-path="url(#clip0_117_16637)">
<path d="M24.0688 6.87272C24.1431 6.87272 24.2183 6.85382 24.2872 6.81403L27.0097 5.24224C27.219 5.12139 27.2907 4.85382 27.1699 4.64458C27.0491 4.43534 26.7815 4.36367 26.5722 4.48447L23.8497 6.05625C23.6404 6.17711 23.5687 6.44467 23.6895 6.65392C23.7706 6.79427 23.9176 6.87272 24.0688 6.87272Z" fill="white"/>
<path d="M21.6047 4.38701C21.6426 4.39716 21.6807 4.40202 21.7182 4.40202C21.9113 4.40202 22.0881 4.2731 22.1405 4.07763L22.9541 1.04103C23.0167 0.807649 22.8782 0.56775 22.6447 0.505212C22.4115 0.442781 22.1715 0.581209 22.1089 0.814592L21.2953 3.85119C21.2328 4.08457 21.3713 4.32447 21.6047 4.38701Z" fill="white"/>
<path d="M28.1832 10.0977L25.1466 9.28402C24.9132 9.22159 24.6733 9.36002 24.6107 9.5934C24.5482 9.82678 24.6867 10.0667 24.9201 10.1292L27.9567 10.9429C27.9946 10.9531 28.0327 10.9579 28.0702 10.9579C28.2634 10.9579 28.4401 10.829 28.4925 10.6335C28.5551 10.4001 28.4165 10.1602 28.1832 10.0977Z" fill="white"/>
<path d="M27.6577 19.7226C27.5033 19.5276 27.4239 19.2835 27.4344 19.035L27.4617 18.3832C27.4991 17.491 26.9246 16.7007 26.0644 16.4611L25.4368 16.2863C25.1965 16.2194 24.9883 16.0681 24.8506 15.8602L24.4917 15.3188C24.1896 14.8629 23.7242 14.5732 23.2167 14.4881L22.3129 12.9227C22.5732 12.4919 22.7749 12.0222 22.9088 11.5224C23.2828 10.1266 23.0909 8.66854 22.3683 7.41703C21.6457 6.16546 20.479 5.27022 19.0831 4.89622C18.5832 4.76227 18.0754 4.70128 17.5719 4.71093L15.713 1.49129C15.2141 0.627287 14.1054 0.330031 13.2414 0.829054L12.4494 1.28631C11.8425 1.63674 11.5158 2.28818 11.5478 2.94432C11.5148 3.00888 11.4975 3.08208 11.5002 3.1584C11.5612 4.90493 11.2366 6.35121 10.5079 7.57986C9.87749 8.6429 8.93806 9.54434 7.63608 10.3354L2.98727 13.0194C2.18447 13.4829 1.87158 14.4728 2.23134 15.3039L2.20346 15.32C0.657092 16.2127 0.125384 18.1971 1.01817 19.7435C1.6173 20.7812 2.70801 21.362 3.82809 21.362C4.37704 21.362 4.9331 21.2225 5.44174 20.9288L5.47001 20.9125C5.81871 21.3821 6.36466 21.6423 6.92437 21.6423C7.2311 21.6423 7.54179 21.5644 7.82599 21.4003L7.84309 21.3904L10.4251 25.8626C10.6667 26.2811 11.0569 26.5805 11.5237 26.7056C11.6796 26.7474 11.8378 26.768 11.995 26.768C12.3085 26.768 12.6179 26.6858 12.8967 26.5249L13.2927 26.2962C13.7112 26.0546 14.0106 25.6644 14.1357 25.1976C14.2608 24.7307 14.1966 24.2432 13.9549 23.8247L11.3729 19.3524L12.4747 18.7163C13.314 18.2568 14.1961 17.9658 15.1079 17.8442C15.0658 18.0168 15.0468 18.1977 15.0545 18.3831L15.0819 19.035C15.0923 19.2835 15.013 19.5277 14.8585 19.7226L14.4529 20.2344C13.8988 20.9336 13.8988 21.9103 14.4529 22.6095L14.8585 23.1214C15.013 23.3162 15.0923 23.5605 15.0819 23.809L15.0545 24.4608C15.0171 25.3529 15.5917 26.1433 16.4518 26.3828L17.0796 26.5577C17.3197 26.6246 17.5279 26.7759 17.6657 26.9838L18.0245 27.5252C18.5187 28.2708 19.4491 28.5729 20.287 28.2601L20.8954 28.033C21.1294 27.9456 21.3869 27.9456 21.6209 28.033L22.2292 28.2601C22.4505 28.3427 22.6782 28.3825 22.9027 28.3825C23.5281 28.3825 24.1281 28.0739 24.4917 27.5252L24.8506 26.9838C24.9883 26.7759 25.1965 26.6246 25.4368 26.5577L26.0644 26.3829C26.9246 26.1433 27.4991 25.3529 27.4617 24.4608L27.4344 23.809C27.4239 23.5605 27.5033 23.3162 27.6577 23.1214L28.0634 22.6095C28.6175 21.9103 28.6175 20.9336 28.0634 20.2344L27.6577 19.7226ZM13.2905 24.9711C13.2259 25.2122 13.0713 25.4136 12.8552 25.5385L12.4592 25.7671C12.243 25.8918 11.9913 25.9251 11.7502 25.8604C11.5091 25.7958 11.3077 25.6412 11.1829 25.4251L8.60088 20.9529L10.6151 19.79L13.1972 24.2622C13.3219 24.4783 13.3551 24.7301 13.2905 24.9711ZM18.8566 5.74137C20.0268 6.05491 21.0048 6.80537 21.6105 7.85453C22.2162 8.90363 22.3771 10.1258 22.0636 11.296C21.9953 11.5505 21.9058 11.7956 21.7975 12.0299L18.088 5.60485C18.3451 5.6282 18.6021 5.67317 18.8566 5.74137ZM12.8869 2.04403L13.6789 1.58683C13.8257 1.50207 13.9861 1.46181 14.1445 1.46181C14.4676 1.46181 14.7824 1.62939 14.9552 1.92879L22.2562 14.5744C22.2472 14.5776 22.2382 14.5805 22.2292 14.5838L21.6208 14.811C21.3869 14.8984 21.1293 14.8983 20.8954 14.8109L20.287 14.5839C19.8692 14.4278 19.4285 14.4248 19.0303 14.5533L15.9404 9.2015L12.5449 3.32033C12.2874 2.87417 12.4408 2.30165 12.8869 2.04403ZM11.2605 8.02617C11.8447 7.04121 12.1975 5.94089 12.3265 4.692L18.2818 15.0068C18.187 15.0999 18.1006 15.2041 18.0245 15.3188L17.6657 15.8602C17.5279 16.0681 17.3197 16.2194 17.0795 16.2863L16.4519 16.4611C16.1397 16.548 15.8654 16.7078 15.6441 16.9184C14.5275 16.9763 13.455 17.2556 12.4308 17.7554L8.44796 10.8568C9.69239 10.0425 10.6155 9.11378 11.2605 8.02617ZM1.77594 19.306C1.12439 18.1775 1.51244 16.7293 2.64096 16.0777L2.65808 16.0679L5.02135 20.1611L5.00424 20.171C3.87572 20.8227 2.42752 20.4345 1.77594 19.306ZM6.1122 20.3005L3.08278 15.0535C2.82521 14.6073 2.97861 14.0347 3.42477 13.7772L7.69895 11.3095L11.6627 18.1748L7.38849 20.6425C6.94234 20.9001 6.3698 20.7467 6.1122 20.3005ZM27.3776 22.0661L26.972 22.5779C26.6872 22.9372 26.5409 23.3875 26.5601 23.8456L26.5875 24.4975C26.6078 24.9813 26.2962 25.41 25.8296 25.54L25.202 25.7148C24.7591 25.8381 24.3753 26.1171 24.1212 26.5003L23.7624 27.0418C23.4944 27.4462 22.9897 27.61 22.5353 27.4403L21.9269 27.2132C21.7112 27.1327 21.4847 27.0925 21.2581 27.0925C21.0316 27.0925 20.805 27.1327 20.5894 27.2132L19.981 27.4403C19.5265 27.6103 19.0219 27.4462 18.7539 27.0418L18.395 26.5003C18.141 26.1171 17.7572 25.8381 17.3143 25.7148L16.6866 25.5399C16.2201 25.41 15.9085 24.9813 15.9288 24.4975L15.9561 23.8456C15.9753 23.3875 15.8291 22.9372 15.5443 22.5779L15.1387 22.0661C14.8381 21.6868 14.8381 21.1571 15.1386 20.7779L15.5443 20.2661C15.8291 19.9068 15.9753 19.4565 15.9561 18.9984L15.9288 18.3464C15.9085 17.8626 16.2201 17.4339 16.6866 17.304L17.3143 17.1292C17.7572 17.0058 18.141 16.7268 18.395 16.3436L18.7539 15.8022C19.0218 15.3978 19.5264 15.2339 19.981 15.4036L20.5893 15.6307C21.0206 15.7917 21.4956 15.7916 21.9269 15.6307L22.5353 15.4035C22.9898 15.2339 23.4944 15.3978 23.7624 15.8022L24.1212 16.3436C24.3752 16.7268 24.759 17.0058 25.202 17.1292L25.8296 17.304C26.2962 17.4339 26.6078 17.8626 26.5875 18.3465L26.5601 18.9984C26.5409 19.4565 26.6872 19.9067 26.972 20.266L27.3776 20.7779C27.6782 21.1571 27.6782 21.6868 27.3776 22.0661Z" fill="white"/>
<path d="M20.0255 20.1895C20.0255 20.1895 20.0255 20.1895 20.0255 20.1894C20.3076 19.9074 20.4629 19.5323 20.4629 19.1334C20.4629 18.7345 20.3076 18.3594 20.0255 18.0773C19.4431 17.4951 18.4957 17.4951 17.9133 18.0773C17.331 18.6596 17.331 19.6072 17.9133 20.1894C18.1954 20.4716 18.5704 20.6269 18.9694 20.6269C19.3683 20.6269 19.7434 20.4716 20.0255 20.1895ZM18.532 18.6961C18.6526 18.5755 18.811 18.5152 18.9694 18.5152C19.1278 18.5152 19.2862 18.5755 19.4068 18.6961C19.5236 18.8129 19.5879 18.9682 19.5879 19.1334C19.5879 19.2986 19.5236 19.4539 19.4068 19.5707L19.4067 19.5708C19.2899 19.6876 19.1346 19.7519 18.9694 19.7519C18.8042 19.7519 18.6489 19.6876 18.532 19.5707C18.2909 19.3296 18.2909 18.9372 18.532 18.6961Z" fill="white"/>
<path d="M22.4902 22.654C22.2081 22.9361 22.0527 23.3112 22.0527 23.7101C22.0527 24.1091 22.2081 24.4841 22.4902 24.7662C22.7814 25.0574 23.1638 25.2029 23.5463 25.2029C23.9287 25.2029 24.3112 25.0574 24.6024 24.7662C25.1847 24.1839 25.1847 23.2364 24.6024 22.654C24.02 22.0717 23.0725 22.0717 22.4902 22.654ZM23.9836 24.1475C23.7425 24.3887 23.3501 24.3887 23.1089 24.1475C22.9921 24.0307 22.9277 23.8753 22.9277 23.7101C22.9277 23.545 22.9921 23.3896 23.1089 23.2728C23.2295 23.1522 23.3879 23.0919 23.5463 23.0919C23.7047 23.0919 23.8631 23.1522 23.9836 23.2728C24.2248 23.5139 24.2248 23.9063 23.9836 24.1475Z" fill="white"/>
<path d="M23.7598 18.9206C23.5889 18.7498 23.3119 18.7498 23.1411 18.9206L18.7571 23.3046C18.5862 23.4755 18.5862 23.7525 18.7571 23.9234C18.8425 24.0088 18.9544 24.0515 19.0664 24.0515C19.1784 24.0515 19.2903 24.0088 19.3758 23.9234L23.7598 19.5393C23.9307 19.3684 23.9307 19.0915 23.7598 18.9206Z" fill="white"/>
</g>
<defs>
<clipPath id="clip0_117_16637">
<rect width="28" height="28" fill="white" transform="translate(0.53125 0.435547)"/>
</clipPath>
</defs>
</svg>
