<svg width="23" height="23" viewBox="0 0 23 23" fill="none" xmlns="http://www.w3.org/2000/svg">
<g clip-path="url(#clip0_117_4721)">
<path d="M11.4414 14.127C12.0327 13.9733 12.4727 13.4398 12.4727 12.8008C12.4727 12.0425 11.856 11.4258 11.0977 11.4258C10.7185 11.4258 10.4102 11.1174 10.4102 10.7383C10.4102 10.3591 10.7185 10.0508 11.0977 10.0508C11.4768 10.0508 11.7852 10.3591 11.7852 10.7383H12.4727C12.4727 10.0992 12.0327 9.56575 11.4414 9.41209V8.67578H10.7539V9.41209C10.1627 9.56575 9.72266 10.0992 9.72266 10.7383C9.72266 11.4966 10.3393 12.1133 11.0977 12.1133C11.4768 12.1133 11.7852 12.4216 11.7852 12.8008C11.7852 13.1799 11.4768 13.4883 11.0977 13.4883C10.7185 13.4883 10.4102 13.1799 10.4102 12.8008H9.72266C9.72266 13.4398 10.1627 13.9733 10.7539 14.127V14.8633H11.4414V14.127Z" fill="white"/>
<path d="M11.0977 7.30078C8.63366 7.30078 6.62891 9.30553 6.62891 11.7695H7.31641C7.31641 9.68469 9.01281 7.98828 11.0977 7.98828V7.30078Z" fill="white"/>
<path d="M14.8789 11.7695C14.8789 13.8544 13.1825 15.5508 11.0977 15.5508V16.2383C13.5617 16.2383 15.5664 14.2335 15.5664 11.7695H14.8789Z" fill="white"/>
<path d="M7.52274 3.57593C6.44509 4.04652 5.48293 4.71649 4.66309 5.56693L5.15774 6.0444C5.91502 5.25927 6.80327 4.64052 7.79809 4.20568L7.52274 3.57593Z" fill="white"/>
<path d="M8.95299 3.09131C8.71099 3.15078 8.47037 3.2209 8.2373 3.29962L8.45799 3.95103C8.67249 3.8785 8.89455 3.81387 9.1173 3.75853L8.95299 3.09131Z" fill="white"/>
<path d="M10.383 2.86011C10.1482 2.87867 9.90756 2.90754 9.66797 2.9457L9.77659 3.62461C9.99797 3.58886 10.22 3.56239 10.4366 3.54589L10.383 2.86011Z" fill="white"/>
<path d="M11.0977 1.80078C13.7607 1.80078 16.2639 2.83788 18.1466 4.72059C18.2755 4.8495 18.5037 4.8495 18.6327 4.72059L19.3477 4.00559V6.61328H16.74L17.4175 5.93575C17.5519 5.80134 17.5519 5.58409 17.4175 5.44969C15.7293 3.76153 13.485 2.83203 11.0977 2.83203V3.51953C13.1863 3.51953 15.1567 4.29056 16.6833 5.69788L15.6671 6.714C15.5688 6.81231 15.5393 6.96012 15.5925 7.08869C15.6458 7.21725 15.7713 7.30078 15.9102 7.30078H19.6914C19.8812 7.30078 20.0352 7.14712 20.0352 6.95703V3.17578C20.0352 3.03691 19.9513 2.91109 19.8231 2.85816C19.6938 2.80419 19.5467 2.83409 19.4484 2.93275L18.3858 3.99528C16.4041 2.13422 13.8294 1.11328 11.0977 1.11328C5.22194 1.11328 0.441406 5.89347 0.441406 11.7695H1.12891C1.12891 6.27297 5.60075 1.80078 11.0977 1.80078Z" fill="white"/>
<path d="M17.5325 17.9721L17.0378 17.4946C16.2805 18.2798 15.3923 18.8985 14.3975 19.3333L14.6728 19.9631C15.7505 19.4925 16.7123 18.8225 17.5325 17.9721Z" fill="white"/>
<path d="M13.2424 20.4479C13.4844 20.3884 13.7251 20.3183 13.9581 20.2395L13.7374 19.5881C13.5229 19.6607 13.3009 19.7253 13.0781 19.7806L13.2424 20.4479Z" fill="white"/>
<path d="M11.8124 20.6788C12.0472 20.6602 12.2878 20.6314 12.5274 20.5932L12.4188 19.9143C12.1974 19.9501 11.9754 19.9765 11.7588 19.993L11.8124 20.6788Z" fill="white"/>
<path d="M21.0664 11.7695C21.0664 17.2661 16.5946 21.7383 11.0977 21.7383C8.43463 21.7383 5.93144 20.7012 4.04872 18.8185C3.91981 18.6896 3.69156 18.6896 3.56266 18.8185L2.84766 19.5335V16.9258H5.45534L4.77781 17.6033C4.64341 17.7377 4.64341 17.955 4.77781 18.0894C6.46597 19.7775 8.71031 20.707 11.0977 20.707V20.0195C9.00903 20.0195 7.03866 19.2485 5.51206 17.8412L6.52819 16.8251C6.6265 16.7268 6.65606 16.5789 6.60278 16.4504C6.5495 16.3218 6.42403 16.2383 6.28516 16.2383H2.50391C2.31416 16.2383 2.16016 16.3919 2.16016 16.582V20.3633C2.16016 20.5022 2.24403 20.628 2.37225 20.6809C2.50081 20.7345 2.64862 20.7046 2.74694 20.6063L3.80947 19.5438C5.79119 21.4048 8.36587 22.4258 11.0977 22.4258C16.9734 22.4258 21.7539 17.6456 21.7539 11.7695H21.0664Z" fill="white"/>
<path d="M16.9414 11.7695C16.9414 8.54722 14.32 5.92578 11.0977 5.92578C7.87534 5.92578 5.25391 8.54722 5.25391 11.7695C5.25391 14.9918 7.87534 17.6133 11.0977 17.6133C14.32 17.6133 16.9414 14.9918 16.9414 11.7695ZM11.0977 16.9258C8.2545 16.9258 5.94141 14.6127 5.94141 11.7695C5.94141 8.92637 8.2545 6.61328 11.0977 6.61328C13.9408 6.61328 16.2539 8.92637 16.2539 11.7695C16.2539 14.6127 13.9408 16.9258 11.0977 16.9258Z" fill="white"/>
</g>
<defs>
<clipPath id="clip0_117_4721">
<rect width="22" height="22" fill="white" transform="translate(0.0976562 0.769531)"/>
</clipPath>
</defs>
</svg>
