<svg width="22" height="23" viewBox="0 0 22 23" fill="none" xmlns="http://www.w3.org/2000/svg">
<path d="M21.0121 10.8048L11.8221 19.9948C10.6962 21.1206 9.16925 21.7531 7.57707 21.7531C5.98488 21.7531 4.45791 21.1206 3.33207 19.9948C2.20622 18.869 1.57373 17.342 1.57373 15.7498C1.57373 14.1576 2.20622 12.6306 3.33207 11.5048L12.5221 2.3148C13.2726 1.56424 14.2906 1.14258 15.3521 1.14258C16.4135 1.14258 17.4315 1.56424 18.1821 2.3148C18.9326 3.06537 19.3543 4.08335 19.3543 5.1448C19.3543 6.20626 18.9326 7.22424 18.1821 7.9748L8.98207 17.1648C8.60679 17.5401 8.0978 17.7509 7.56707 17.7509C7.03634 17.7509 6.52735 17.5401 6.15207 17.1648C5.77679 16.7895 5.56595 16.2805 5.56595 15.7498C5.56595 15.2191 5.77679 14.7101 6.15207 14.3348L14.6421 5.8548" stroke="white" stroke-width="1.4" stroke-linecap="round" stroke-linejoin="round"/>
</svg>
