<svg width="41" height="41" viewBox="0 0 41 41" fill="none" xmlns="http://www.w3.org/2000/svg">
<rect x="0.433594" y="0.774414" width="40" height="40" fill="#E0883C"/>
<g clip-path="url(#clip0_117_15457)">
<path d="M20.4336 23.7744C22.0904 23.7744 23.4336 22.4313 23.4336 20.7744C23.4336 19.1176 22.0904 17.7744 20.4336 17.7744C18.7767 17.7744 17.4336 19.1176 17.4336 20.7744C17.4336 22.4313 18.7767 23.7744 20.4336 23.7744Z" stroke="white" stroke-width="1.5" stroke-linecap="round" stroke-linejoin="round"/>
<path d="M27.8336 23.7744C27.7005 24.076 27.6608 24.4106 27.7196 24.735C27.7784 25.0594 27.9331 25.3587 28.1636 25.5944L28.2236 25.6544C28.4095 25.8402 28.5571 26.0607 28.6577 26.3035C28.7584 26.5463 28.8102 26.8066 28.8102 27.0694C28.8102 27.3322 28.7584 27.5925 28.6577 27.8353C28.5571 28.0781 28.4095 28.2987 28.2236 28.4844C28.0378 28.6704 27.8173 28.8179 27.5745 28.9185C27.3317 29.0192 27.0714 29.071 26.8086 29.071C26.5458 29.071 26.2855 29.0192 26.0427 28.9185C25.7999 28.8179 25.5793 28.6704 25.3936 28.4844L25.3336 28.4244C25.0979 28.1939 24.7986 28.0392 24.4742 27.9804C24.1498 27.9216 23.8152 27.9613 23.5136 28.0944C23.2178 28.2212 22.9656 28.4317 22.7879 28.6999C22.6102 28.9682 22.5149 29.2826 22.5136 29.6044V29.7744C22.5136 30.3048 22.3029 30.8136 21.9278 31.1886C21.5527 31.5637 21.044 31.7744 20.5136 31.7744C19.9832 31.7744 19.4745 31.5637 19.0994 31.1886C18.7243 30.8136 18.5136 30.3048 18.5136 29.7744V29.6844C18.5059 29.3534 18.3987 29.0324 18.2061 28.7631C18.0135 28.4938 17.7443 28.2887 17.4336 28.1744C17.132 28.0413 16.7974 28.0016 16.473 28.0604C16.1486 28.1192 15.8493 28.2739 15.6136 28.5044L15.5536 28.5644C15.3678 28.7504 15.1473 28.8979 14.9045 28.9985C14.6617 29.0992 14.4014 29.151 14.1386 29.151C13.8758 29.151 13.6155 29.0992 13.3727 28.9985C13.1299 28.8979 12.9093 28.7504 12.7236 28.5644C12.5376 28.3787 12.3901 28.1581 12.2895 27.9153C12.1888 27.6725 12.137 27.4122 12.137 27.1494C12.137 26.8866 12.1888 26.6263 12.2895 26.3835C12.3901 26.1407 12.5376 25.9202 12.7236 25.7344L12.7836 25.6744C13.0141 25.4387 13.1688 25.1394 13.2276 24.815C13.2864 24.4906 13.2467 24.156 13.1136 23.8544C12.9868 23.5586 12.7763 23.3064 12.5081 23.1287C12.2398 22.951 11.9254 22.8557 11.6036 22.8544H11.4336C10.9032 22.8544 10.3945 22.6437 10.0194 22.2686C9.64431 21.8936 9.43359 21.3848 9.43359 20.8544C9.43359 20.324 9.64431 19.8153 10.0194 19.4402C10.3945 19.0651 10.9032 18.8544 11.4336 18.8544H11.5236C11.8546 18.8467 12.1756 18.7395 12.4449 18.5469C12.7142 18.3543 12.9193 18.0851 13.0336 17.7744C13.1667 17.4728 13.2064 17.1382 13.1476 16.8138C13.0888 16.4894 12.9341 16.1901 12.7036 15.9544L12.6436 15.8944C12.4576 15.7087 12.3101 15.4881 12.2095 15.2453C12.1088 15.0025 12.057 14.7422 12.057 14.4794C12.057 14.2166 12.1088 13.9563 12.2095 13.7135C12.3101 13.4707 12.4576 13.2502 12.6436 13.0644C12.8293 12.8785 13.0499 12.7309 13.2927 12.6303C13.5355 12.5296 13.7958 12.4778 14.0586 12.4778C14.3214 12.4778 14.5817 12.5296 14.8245 12.6303C15.0673 12.7309 15.2878 12.8785 15.4736 13.0644L15.5336 13.1244C15.7693 13.355 16.0686 13.5096 16.393 13.5684C16.7174 13.6272 17.052 13.5875 17.3536 13.4544H17.4336C17.7294 13.3277 17.9816 13.1172 18.1593 12.8489C18.337 12.5806 18.4323 12.2662 18.4336 11.9444V11.7744C18.4336 11.244 18.6443 10.7353 19.0194 10.3602C19.3945 9.98513 19.9032 9.77441 20.4336 9.77441C20.964 9.77441 21.4727 9.98513 21.8478 10.3602C22.2229 10.7353 22.4336 11.244 22.4336 11.7744V11.8644C22.4349 12.1862 22.5302 12.5006 22.7079 12.7689C22.8856 13.0372 23.1378 13.2477 23.4336 13.3744C23.7352 13.5075 24.0698 13.5472 24.3942 13.4884C24.7186 13.4296 25.0179 13.275 25.2536 13.0444L25.3136 12.9844C25.4993 12.7985 25.7199 12.6509 25.9627 12.5503C26.2055 12.4496 26.4658 12.3978 26.7286 12.3978C26.9914 12.3978 27.2517 12.4496 27.4945 12.5503C27.7373 12.6509 27.9578 12.7985 28.1436 12.9844C28.3295 13.1702 28.4771 13.3907 28.5777 13.6335C28.6784 13.8763 28.7302 14.1366 28.7302 14.3994C28.7302 14.6622 28.6784 14.9225 28.5777 15.1653C28.4771 15.4081 28.3295 15.6287 28.1436 15.8144L28.0836 15.8744C27.8531 16.1101 27.6984 16.4094 27.6396 16.7338C27.5808 17.0582 27.6205 17.3928 27.7536 17.6944V17.7744C27.8804 18.0702 28.0908 18.3224 28.3591 18.5001C28.6274 18.6778 28.9418 18.7731 29.2636 18.7744H29.4336C29.964 18.7744 30.4727 18.9851 30.8478 19.3602C31.2229 19.7353 31.4336 20.244 31.4336 20.7744C31.4336 21.3048 31.2229 21.8136 30.8478 22.1886C30.4727 22.5637 29.964 22.7744 29.4336 22.7744H29.3436C29.0218 22.7757 28.7074 22.871 28.4391 23.0487C28.1708 23.2264 27.9604 23.4786 27.8336 23.7744Z" stroke="white" stroke-width="1.5" stroke-linecap="round" stroke-linejoin="round"/>
</g>
<defs>
<clipPath id="clip0_117_15457">
<rect width="24" height="24" fill="white" transform="translate(8.43359 8.77441)"/>
</clipPath>
</defs>
</svg>
