<svg width="32" height="32" viewBox="0 0 32 32" fill="none" xmlns="http://www.w3.org/2000/svg">
<path d="M16.0317 22.0631C12.5807 22.0631 9.78309 19.2655 9.78309 15.8145C9.78309 12.3635 12.5807 9.56589 16.0317 9.56589C19.4827 9.56589 22.2804 12.3635 22.2804 15.8145C22.2804 19.2655 19.4827 22.0631 16.0317 22.0631ZM28.4925 13.117C28.1647 11.5915 27.5644 10.1672 26.7443 8.89809L28.3927 7.2496L24.5875 3.44715L22.9404 5.09427C21.6713 4.27411 20.2471 3.67385 18.7215 3.34614V1.0166H13.342V3.34614C11.8164 3.67385 10.3922 4.27411 9.12312 5.09427L7.476 3.44715L3.6708 7.2496L5.31921 8.89809C4.49905 10.1672 3.89879 11.5915 3.571 13.117H1.23535L1.23242 18.4965H3.57091C3.8987 20.022 4.49896 21.4463 5.31912 22.7155L3.66443 24.3702L7.46688 28.1755L9.12295 26.5193C10.3921 27.3396 11.8164 27.9398 13.342 28.2676V30.6123H18.7215V28.2676C20.2471 27.9398 21.6714 27.3396 22.9405 26.5193L24.5966 28.1755L28.399 24.3702L26.7444 22.7155C27.5645 21.4463 28.1648 20.022 28.4926 18.4965H30.8311V13.117H28.4925Z" stroke="white" stroke-miterlimit="10" stroke-linecap="round" stroke-linejoin="round"/>
</svg>
