<svg width="29" height="28" viewBox="0 0 29 28" fill="none" xmlns="http://www.w3.org/2000/svg">
<g clip-path="url(#clip0_117_17137)">
<path d="M0.833984 24.1254V27.3981C0.833984 27.7287 1.09844 27.9601 1.42902 27.9932H19.115C19.4455 27.9932 19.6769 27.7287 19.71 27.3981V24.1254C19.71 20.2246 17.1315 16.8196 13.3959 15.7287C14.553 15.1006 15.4786 14.1089 16.0406 12.9518C16.5364 13.3486 17.0984 13.6461 17.6604 13.8444V14.5717C17.6604 15.3981 18.3216 16.0924 19.1811 16.0924H20.5034C21.3299 16.0924 22.0241 15.4312 22.0241 14.5717V13.8444C22.6853 13.613 23.2803 13.2494 23.8423 12.8196L24.4704 13.1832C25.1977 13.5799 26.1233 13.3485 26.52 12.6213L27.1811 11.4973C27.6109 10.77 27.3464 9.84438 26.6192 9.41467L25.991 9.05102C26.0572 8.72044 26.0902 8.35678 26.0902 8.0262C26.0902 7.69561 26.0572 7.33196 25.991 7.00138L26.6192 6.63773C27.3465 6.24101 27.6109 5.31539 27.1811 4.58815C27.1481 4.55509 27.0489 4.38983 26.52 3.46421C26.0902 2.73691 25.1976 2.50552 24.4704 2.90223L23.8423 3.26588C23.3134 2.8361 22.6853 2.47252 22.0241 2.24106V1.51383C22.0241 0.6874 21.3629 -0.00683594 20.5034 -0.00683594H19.1811C18.3547 -0.00683594 17.6604 0.654334 17.6604 1.51383V2.24113C16.9993 2.47252 16.4042 2.83617 15.8422 3.26595L15.2141 2.9023C14.4868 2.50558 13.5612 2.73704 13.1646 3.46427L12.7018 4.25764C11.9415 3.92705 11.115 3.79486 10.2886 3.79486C6.78445 3.79486 3.90838 6.6048 3.90838 10.1089C3.90838 12.4229 5.16459 14.5717 7.1811 15.6957C3.41253 16.7865 0.833984 20.2246 0.833984 24.1254ZM14.1232 4.05931C14.2224 3.89406 14.4208 3.82792 14.6191 3.92705L15.6108 4.48903C15.8422 4.62129 16.1067 4.58822 16.3051 4.4229C16.9001 3.86092 17.5944 3.46421 18.3877 3.23282C18.6191 3.16669 18.8175 2.9353 18.8175 2.67084V1.54689C18.8175 1.34857 18.9828 1.18324 19.1812 1.18324H20.5035C20.7018 1.18324 20.8671 1.3485 20.8671 1.54689V2.67084C20.8671 2.9353 21.0324 3.16669 21.2969 3.23282C22.0572 3.46421 22.7845 3.86092 23.3796 4.4229C23.5779 4.58815 23.8423 4.62122 24.0738 4.48903L25.0656 3.92705C25.2308 3.82786 25.4623 3.89399 25.5614 4.05931L26.2224 5.18326C26.3216 5.34852 26.2555 5.57998 26.0902 5.64604L25.0984 6.20801C24.867 6.34028 24.7678 6.60473 24.834 6.83612C25.0323 7.62948 25.0323 8.42292 24.834 9.21628C24.7678 9.48073 24.9001 9.74519 25.0984 9.84438L26.0902 10.4064C26.2554 10.5056 26.3216 10.7039 26.2224 10.9022L25.5613 12.0262C25.4621 12.1914 25.2637 12.2575 25.0985 12.1584L24.1067 11.5964C23.8753 11.4642 23.6109 11.4972 23.4125 11.6626C22.8175 12.2245 22.1232 12.6213 21.3299 12.8526C21.0654 12.9188 20.9001 13.1502 20.9001 13.4146V14.5386C20.9001 14.7369 20.7348 14.9022 20.5364 14.9022H19.2141C19.0158 14.9022 18.8504 14.737 18.8504 14.5386V13.4146C18.8504 13.1502 18.6852 12.9188 18.4207 12.8526C17.6933 12.6543 17.0322 12.2907 16.4702 11.7948C16.6025 11.2659 16.6685 10.6378 16.6685 10.175C16.6685 7.927 15.4785 5.94356 13.7264 4.81961L14.1232 4.05931ZM5.03233 10.1419C5.03233 7.2659 7.37942 4.95181 10.2555 4.95181C13.1316 4.95181 15.4787 7.2989 15.4787 10.1419C15.4787 12.8526 13.4291 15.3651 10.2224 15.3651C7.37942 15.3651 5.03233 13.018 5.03233 10.1419ZM9.59432 16.5221C9.66045 16.5221 10.9827 16.5221 10.9167 16.5221C15.115 16.5221 18.52 19.9271 18.52 24.1254V26.8031H1.991V24.1254C1.991 19.9271 5.39598 16.5221 9.59432 16.5221Z" fill="white"/>
<path d="M19.809 11.2661C21.5941 11.2661 23.0156 9.81153 23.0156 8.02641C23.0156 6.24129 21.561 4.81982 19.7759 4.81982C17.9908 4.81982 16.5693 6.27436 16.5693 8.05948C16.5693 9.81146 18.0239 11.2661 19.809 11.2661ZM19.809 5.97677C20.966 5.97677 21.8586 6.93546 21.8586 8.05941C21.8586 9.21642 20.8999 10.109 19.7759 10.109C18.652 10.109 17.7263 9.18336 17.7263 8.02634C17.7263 6.86933 18.652 5.9437 19.809 5.97677Z" fill="white"/>
</g>
<defs>
<clipPath id="clip0_117_17137">
<rect width="28" height="28" fill="white" transform="translate(0.111328 -0.00683594)"/>
</clipPath>
</defs>
</svg>
