<svg width="26" height="25" viewBox="0 0 26 25" fill="none" xmlns="http://www.w3.org/2000/svg">
<path d="M11.216 13.0064H9.70387C9.49851 13.0064 9.33049 13.1745 9.33049 13.3798C9.33049 13.4545 9.34916 13.5292 9.40517 13.6038C9.46117 13.6972 9.57319 13.7532 9.70387 13.7532H11.216C11.4214 13.7532 11.5894 13.5852 11.5894 13.3798C11.5894 13.1745 11.4214 13.0064 11.216 13.0064ZM13.6243 13.0064H12.7095C12.5042 13.0064 12.3362 13.1745 12.3362 13.3798C12.3362 13.5852 12.5042 13.7532 12.7095 13.7532H13.3443C13.419 13.5665 13.5123 13.3611 13.6243 13.0064ZM10.8427 16.7962H9.70387C9.51718 16.7962 9.36783 16.9269 9.33049 17.0949V17.1696C9.33049 17.3003 9.40517 17.4123 9.49851 17.4869C9.94656 17.3003 10.1333 17.2256 10.8427 16.9269V16.7962ZM11.4587 11.1022V9.198H13.2323C13.1576 9.01131 13.0643 8.78729 12.9149 8.45125H12.2055V8.32057L11.9441 8.33924C11.7574 8.15255 11.6081 8.0032 11.4587 7.85385V7.89118V8.45125H11.104C10.8987 8.45125 10.7307 8.61927 10.7307 8.82462V11.4756C10.7307 11.6623 10.8613 11.8116 11.048 11.849H11.104H12.9709V11.1022H11.4587ZM7.53829 6.17366C7.42628 6.17366 7.2956 6.17366 7.16491 6.17366C7.0529 6.17366 6.92222 6.17366 6.77287 6.15499L6.1568 5.48291C5.22336 5.87495 5.20469 5.87495 4.27125 6.267L4.30859 7.18177C3.86054 7.62982 3.61784 7.87252 3.16979 8.32057L2.25502 8.28323C1.86298 9.21667 1.86298 9.23534 1.47093 10.1688L2.14301 10.7848V12.3904L1.43359 13.0251C1.82564 13.9585 1.82564 13.9772 2.21768 14.9107L3.13245 14.8733C3.58051 15.3214 3.8232 15.5641 4.27125 16.0121L4.23391 16.9269C5.16735 17.3189 5.18602 17.3189 6.11946 17.711L6.73553 17.0389H7.91166V6.17366C7.78098 6.17366 7.6503 6.17366 7.53829 6.17366ZM6.73553 16.5908C6.62352 16.5908 6.53017 16.6468 6.4555 16.7215L6.02612 17.2069L4.62596 16.6282L4.66329 15.9934C4.66329 15.9001 4.62596 15.7881 4.55128 15.7134L3.41249 14.5746C3.33781 14.4999 3.24447 14.4626 3.13245 14.4626L2.47905 14.4999L1.90031 13.0998L2.3857 12.6704C2.47905 12.5957 2.51638 12.5024 2.51638 12.3904V10.7848C2.51638 10.6728 2.46038 10.5795 2.3857 10.5048L1.90031 10.0754L2.47905 8.67527L3.13245 8.71261C3.2258 8.71261 3.33781 8.67527 3.41249 8.6006L4.55128 7.4618C4.62596 7.38713 4.66329 7.29378 4.66329 7.18177L4.62596 6.52836L6.02612 5.94963L6.4555 6.43502C6.53017 6.52836 6.62352 6.5657 6.73553 6.5657H7.16491V8.09654C5.41005 8.28323 4.02856 9.77673 4.02856 11.5876C4.02856 13.3985 5.41005 14.892 7.16491 15.0787V16.5908H6.73553ZM7.16491 14.3132C5.82076 14.1266 4.77531 12.9691 4.77531 11.5689C4.77531 10.1874 5.80209 9.01131 7.16491 8.82462V14.3132ZM9.70387 14.9107C9.49851 14.9107 9.33049 15.0787 9.33049 15.284C9.33049 15.4894 9.49851 15.6574 9.70387 15.6574H11.16C11.4027 15.4147 11.6081 15.2094 11.9068 14.9107H9.70387Z" fill="white"/>
<path d="M13.0832 13.0066L13.1766 13.0813L12.8966 13.7534H13.662L13.9233 13.1373C13.942 13.1 13.942 13.044 13.942 13.0066H13.0832ZM12.5605 11.1024V11.8492H13.2699V11.1024H12.5605ZM11.179 16.7964H10.0402L9.33082 17.0951V17.1698C9.33082 17.3005 9.4055 17.4125 9.49884 17.4872C9.55485 17.5245 9.62952 17.5432 9.7042 17.5432H10.1522L10.955 17.2071C11.0857 17.1511 11.179 17.0018 11.179 16.8524V16.7964ZM13.2699 8.45146H12.2058V8.05942C12.2058 8.02208 12.2058 7.98474 12.2058 7.96607H12.0378L11.5524 7.48068C11.5151 7.57403 11.4964 7.66737 11.4777 7.76072C11.4777 7.79805 11.4591 7.81672 11.4591 7.85406V7.8914V8.39545L11.5151 8.45146L11.6644 8.60081C11.7391 8.67549 11.8324 8.71282 11.9445 8.71282L12.5979 8.67549L12.8219 9.19821H13.5873L13.2699 8.45146ZM6.88521 5.83783L6.38115 5.27777C6.28781 5.16575 6.11979 5.12842 5.97044 5.18442L4.08489 5.96851C3.95421 6.02452 3.86086 6.17387 3.86086 6.32322L3.8982 7.06997L3.0021 7.96607L2.25535 7.92874C2.106 7.91007 1.95665 8.00341 1.90064 8.15276L1.11655 10.0383C1.06055 10.169 1.09788 10.337 1.2099 10.449L1.76996 10.9531V12.2226L1.2099 12.7266C1.09788 12.82 1.06055 12.988 1.11655 13.1373L1.91931 15.0415C1.97532 15.1722 2.106 15.2656 2.27402 15.2656L3.02077 15.2282L3.91687 16.1243L3.87953 16.8711C3.86086 17.0204 3.95421 17.1698 4.10356 17.2258L5.98911 17.9912C6.11979 18.0472 6.28781 18.0099 6.39982 17.8979L6.90388 17.3378H7.91199V16.5911H6.73586C6.62385 16.5911 6.5305 16.6471 6.45583 16.7217L6.02644 17.2071L4.62628 16.6284L4.66362 15.9937C4.66362 15.9003 4.62628 15.7883 4.55161 15.7136L3.41281 14.5748C3.33814 14.5001 3.24479 14.4628 3.13278 14.4628L2.47937 14.5001L1.90064 13.1L2.38603 12.6706C2.47937 12.5959 2.51671 12.5026 2.51671 12.3906V10.7851C2.51671 10.673 2.4607 10.5797 2.38603 10.505L1.90064 10.0756L2.47937 8.67549L3.13278 8.71282C3.22613 8.71282 3.33814 8.67549 3.41281 8.60081L4.55161 7.46202C4.62628 7.38734 4.66362 7.294 4.66362 7.18198L4.62628 6.52858L6.02644 5.94984L6.45583 6.43523C6.5305 6.52858 6.62385 6.56591 6.73586 6.56591H7.91199V5.83783H6.88521ZM11.3097 14.9109L10.563 15.6576H11.5897L12.0378 15.2096L12.7845 15.2469C12.9339 15.2656 13.0832 15.1722 13.1393 15.0229L13.1766 14.9109H11.3097Z" fill="white"/>
<path d="M7.5387 8.45166C7.40802 8.45166 7.29601 8.45166 7.16533 8.47033C5.61582 8.65702 4.40234 9.9825 4.40234 11.588C4.40234 13.1935 5.61582 14.519 7.16533 14.7057C7.29601 14.7244 7.40802 14.7244 7.5387 14.7244C7.66938 14.7244 7.7814 14.7244 7.91208 14.7057V8.47033C7.7814 8.45166 7.66938 8.45166 7.5387 8.45166ZM4.77572 11.5693C4.77572 10.1879 5.8025 9.01172 7.16533 8.82504V14.295C5.82117 14.127 4.77572 12.9508 4.77572 11.5693Z" fill="white"/>
<path d="M10.3391 13.0068C10.2084 13.2869 10.0217 13.5296 9.81633 13.7536H9.72299C9.5923 13.7536 9.48029 13.6976 9.42428 13.6042C9.38695 13.5482 9.34961 13.4736 9.34961 13.3802C9.34961 13.1749 9.51763 13.0068 9.72299 13.0068H10.3391Z" fill="white"/>
<path d="M10.7314 10.1317V11.4758C10.7314 11.6625 10.8621 11.8119 11.0488 11.8492C11.0488 11.7559 11.0488 11.6812 11.0488 11.5879C11.0488 11.0651 10.9368 10.5611 10.7314 10.1317ZM7.53903 8.07813C7.40835 8.07813 7.29634 8.07812 7.16565 8.09679C5.41079 8.28348 4.0293 9.77699 4.0293 11.5879C4.0293 13.3987 5.41079 14.8922 7.16565 15.0789C7.29634 15.0976 7.40835 15.0976 7.53903 15.0976C7.66971 15.0976 7.78172 15.0976 7.91241 15.0789V14.3135C7.78172 14.3322 7.66971 14.3322 7.53903 14.3322C7.40835 14.3322 7.29634 14.3322 7.16565 14.3135C5.8215 14.1268 4.77605 12.9693 4.77605 11.5692C4.77605 10.1877 5.80283 9.01156 7.16565 8.82488C7.29634 8.80621 7.40835 8.80621 7.53903 8.80621C7.66971 8.80621 7.80039 8.82488 7.91241 8.82488V8.09679C7.78172 8.07812 7.66971 8.07813 7.53903 8.07813ZM9.8913 13.0067C9.76062 13.2307 9.5926 13.4174 9.40591 13.6041C9.46192 13.6974 9.57393 13.7534 9.70461 13.7534H10.302C10.4887 13.5294 10.638 13.268 10.7501 13.0067H9.8913Z" fill="white"/>
<path d="M11.2158 13.0066H9.70367C9.49831 13.0066 9.33029 13.1747 9.33029 13.38C9.33029 13.4547 9.34896 13.5294 9.40497 13.604C9.46097 13.6974 9.57298 13.7534 9.70367 13.7534H11.2158C11.4212 13.7534 11.5892 13.5854 11.5892 13.38C11.5892 13.1747 11.4212 13.0066 11.2158 13.0066ZM16.5925 16.7964H13.4188C13.2134 16.7964 13.0454 16.9644 13.0454 17.1698C13.0454 17.3751 13.2134 17.5432 13.4188 17.5432H16.5925C16.7978 17.5432 16.9658 17.3751 16.9658 17.1698C16.9658 16.9644 16.7978 16.7964 16.5925 16.7964ZM16.5925 14.9109H15.6217C15.4163 14.9109 15.2483 15.0789 15.2483 15.2842C15.2483 15.4896 15.4163 15.6576 15.6217 15.6576H16.5925C16.7978 15.6576 16.9658 15.4896 16.9658 15.2842C16.9658 15.0789 16.7978 14.9109 16.5925 14.9109ZM16.5925 14.9109H15.6217C15.4163 14.9109 15.2483 15.0789 15.2483 15.2842C15.2483 15.4896 15.4163 15.6576 15.6217 15.6576H16.5925C16.7978 15.6576 16.9658 15.4896 16.9658 15.2842C16.9658 15.0789 16.7978 14.9109 16.5925 14.9109ZM16.5925 16.7964H13.4188C13.2134 16.7964 13.0454 16.9644 13.0454 17.1698C13.0454 17.3751 13.2134 17.5432 13.4188 17.5432H16.5925C16.7978 17.5432 16.9658 17.3751 16.9658 17.1698C16.9658 16.9644 16.7978 16.7964 16.5925 16.7964ZM16.5925 13.0066H12.7093C12.504 13.0066 12.336 13.1747 12.336 13.38C12.336 13.5854 12.504 13.7534 12.7093 13.7534H16.5925C16.7978 13.7534 16.9658 13.5854 16.9658 13.38C16.9658 13.1747 16.7978 13.0066 16.5925 13.0066ZM11.9066 16.7964H11.1785V16.8524C11.1785 17.0018 11.0852 17.1511 10.9545 17.2071L10.1517 17.5432H11.9253C12.1306 17.5432 12.28 17.3751 12.28 17.1698C12.28 16.9644 12.1119 16.7964 11.9066 16.7964ZM14.1282 14.9109H9.70367C9.49831 14.9109 9.33029 15.0789 9.33029 15.2842C9.33029 15.4896 9.49831 15.6576 9.70367 15.6576H14.1282C14.3335 15.6576 14.5015 15.4896 14.5015 15.2842C14.5015 15.0789 14.3335 14.9109 14.1282 14.9109ZM15.211 8.45146H14.8563V8.05941C14.8563 7.12597 14.0908 6.36055 13.1574 6.36055C12.4106 6.36055 11.7946 6.82727 11.5519 7.48068L12.0373 7.96607H12.2053C12.2613 7.49935 12.672 7.12597 13.1574 7.12597C13.6801 7.12597 14.1095 7.55535 14.1095 8.07808V8.45146H12.9147C13.064 8.78749 13.1387 9.01152 13.2321 9.19821H14.8189V11.1024H11.4585V9.19821H12.8214L12.5973 8.67548L11.9439 8.71282C11.8319 8.71282 11.7386 8.67548 11.6639 8.60081L11.5145 8.45146L11.4585 8.39545V8.45146H11.1038C10.8985 8.45146 10.7304 8.61947 10.7304 8.82483V11.4758C10.7304 11.6625 10.8611 11.8118 11.0478 11.8492H11.1038H15.211C15.4163 11.8492 15.5843 11.6812 15.5843 11.4758V8.82483C15.5843 8.61947 15.4163 8.45146 15.211 8.45146ZM11.2158 13.0066H9.70367C9.49831 13.0066 9.33029 13.1747 9.33029 13.38C9.33029 13.4547 9.34896 13.5294 9.40497 13.604C9.46097 13.6974 9.57298 13.7534 9.70367 13.7534H11.2158C11.4212 13.7534 11.5892 13.5854 11.5892 13.38C11.5892 13.1747 11.4212 13.0066 11.2158 13.0066ZM9.70367 16.7964C9.51698 16.7964 9.36763 16.9271 9.33029 17.0951L10.0397 16.7964H9.70367ZM7.53809 8.80616V14.3321C7.66877 14.3321 7.78078 14.3321 7.91146 14.3135V8.82483C7.78078 8.82483 7.66877 8.80616 7.53809 8.80616ZM11.2158 13.0066H9.70367C9.49831 13.0066 9.33029 13.1747 9.33029 13.38C9.33029 13.4547 9.34896 13.5294 9.40497 13.604C9.46097 13.6974 9.57298 13.7534 9.70367 13.7534H11.2158C11.4212 13.7534 11.5892 13.5854 11.5892 13.38C11.5892 13.1747 11.4212 13.0066 11.2158 13.0066ZM16.5925 13.0066H12.7093C12.504 13.0066 12.336 13.1747 12.336 13.38C12.336 13.5854 12.504 13.7534 12.7093 13.7534H16.5925C16.7978 13.7534 16.9658 13.5854 16.9658 13.38C16.9658 13.1747 16.7978 13.0066 16.5925 13.0066ZM16.5925 16.7964H13.4188C13.2134 16.7964 13.0454 16.9644 13.0454 17.1698C13.0454 17.3751 13.2134 17.5432 13.4188 17.5432H16.5925C16.7978 17.5432 16.9658 17.3751 16.9658 17.1698C16.9658 16.9644 16.7978 16.7964 16.5925 16.7964ZM16.5925 14.9109H15.6217C15.4163 14.9109 15.2483 15.0789 15.2483 15.2842C15.2483 15.4896 15.4163 15.6576 15.6217 15.6576H16.5925C16.7978 15.6576 16.9658 15.4896 16.9658 15.2842C16.9658 15.0789 16.7978 14.9109 16.5925 14.9109ZM16.5925 14.9109H15.6217C15.4163 14.9109 15.2483 15.0789 15.2483 15.2842C15.2483 15.4896 15.4163 15.6576 15.6217 15.6576H16.5925C16.7978 15.6576 16.9658 15.4896 16.9658 15.2842C16.9658 15.0789 16.7978 14.9109 16.5925 14.9109ZM16.5925 16.7964H13.4188C13.2134 16.7964 13.0454 16.9644 13.0454 17.1698C13.0454 17.3751 13.2134 17.5432 13.4188 17.5432H16.5925C16.7978 17.5432 16.9658 17.3751 16.9658 17.1698C16.9658 16.9644 16.7978 16.7964 16.5925 16.7964ZM16.5925 13.0066H12.7093C12.504 13.0066 12.336 13.1747 12.336 13.38C12.336 13.5854 12.504 13.7534 12.7093 13.7534H16.5925C16.7978 13.7534 16.9658 13.5854 16.9658 13.38C16.9658 13.1747 16.7978 13.0066 16.5925 13.0066ZM11.9066 16.7964H11.1785V16.8524C11.1785 17.0018 11.0852 17.1511 10.9545 17.2071L10.1517 17.5432H11.9253C12.1306 17.5432 12.28 17.3751 12.28 17.1698C12.28 16.9644 12.1119 16.7964 11.9066 16.7964ZM14.1282 14.9109H9.70367C9.49831 14.9109 9.33029 15.0789 9.33029 15.2842C9.33029 15.4896 9.49831 15.6576 9.70367 15.6576H14.1282C14.3335 15.6576 14.5015 15.4896 14.5015 15.2842C14.5015 15.0789 14.3335 14.9109 14.1282 14.9109ZM15.211 8.45146H14.8563V8.05941C14.8563 7.12597 14.0908 6.36055 13.1574 6.36055C12.4106 6.36055 11.7946 6.82727 11.5519 7.48068L12.0373 7.96607H12.2053C12.2613 7.49935 12.672 7.12597 13.1574 7.12597C13.6801 7.12597 14.1095 7.55535 14.1095 8.07808V8.45146H12.9147C13.064 8.78749 13.1387 9.01152 13.2321 9.19821H14.8189V11.1024H11.4585V9.19821H12.8214L12.5973 8.67548L11.9439 8.71282C11.8319 8.71282 11.7386 8.67548 11.6639 8.60081L11.5145 8.45146L11.4585 8.39545V8.45146H11.1038C10.8985 8.45146 10.7304 8.61947 10.7304 8.82483V11.4758C10.7304 11.6625 10.8611 11.8118 11.0478 11.8492H11.1038H15.211C15.4163 11.8492 15.5843 11.6812 15.5843 11.4758V8.82483C15.5843 8.61947 15.4163 8.45146 15.211 8.45146ZM11.2158 13.0066H9.70367C9.49831 13.0066 9.33029 13.1747 9.33029 13.38C9.33029 13.4547 9.34896 13.5294 9.40497 13.604C9.46097 13.6974 9.57298 13.7534 9.70367 13.7534H11.2158C11.4212 13.7534 11.5892 13.5854 11.5892 13.38C11.5892 13.1747 11.4212 13.0066 11.2158 13.0066ZM9.70367 16.7964C9.51698 16.7964 9.36763 16.9271 9.33029 17.0951L10.0397 16.7964H9.70367ZM7.53809 8.80616V14.3321C7.66877 14.3321 7.78078 14.3321 7.91146 14.3135V8.82483C7.78078 8.82483 7.66877 8.80616 7.53809 8.80616ZM11.2158 13.0066H9.70367C9.49831 13.0066 9.33029 13.1747 9.33029 13.38C9.33029 13.4547 9.34896 13.5294 9.40497 13.604C9.46097 13.6974 9.57298 13.7534 9.70367 13.7534H11.2158C11.4212 13.7534 11.5892 13.5854 11.5892 13.38C11.5892 13.1747 11.4212 13.0066 11.2158 13.0066ZM16.5925 13.0066H12.7093C12.504 13.0066 12.336 13.1747 12.336 13.38C12.336 13.5854 12.504 13.7534 12.7093 13.7534H16.5925C16.7978 13.7534 16.9658 13.5854 16.9658 13.38C16.9658 13.1747 16.7978 13.0066 16.5925 13.0066ZM16.5925 16.7964H13.4188C13.2134 16.7964 13.0454 16.9644 13.0454 17.1698C13.0454 17.3751 13.2134 17.5432 13.4188 17.5432H16.5925C16.7978 17.5432 16.9658 17.3751 16.9658 17.1698C16.9658 16.9644 16.7978 16.7964 16.5925 16.7964ZM16.5925 14.9109H15.6217C15.4163 14.9109 15.2483 15.0789 15.2483 15.2842C15.2483 15.4896 15.4163 15.6576 15.6217 15.6576H16.5925C16.7978 15.6576 16.9658 15.4896 16.9658 15.2842C16.9658 15.0789 16.7978 14.9109 16.5925 14.9109ZM16.5925 14.9109H15.6217C15.4163 14.9109 15.2483 15.0789 15.2483 15.2842C15.2483 15.4896 15.4163 15.6576 15.6217 15.6576H16.5925C16.7978 15.6576 16.9658 15.4896 16.9658 15.2842C16.9658 15.0789 16.7978 14.9109 16.5925 14.9109ZM16.5925 16.7964H13.4188C13.2134 16.7964 13.0454 16.9644 13.0454 17.1698C13.0454 17.3751 13.2134 17.5432 13.4188 17.5432H16.5925C16.7978 17.5432 16.9658 17.3751 16.9658 17.1698C16.9658 16.9644 16.7978 16.7964 16.5925 16.7964ZM16.5925 13.0066H12.7093C12.504 13.0066 12.336 13.1747 12.336 13.38C12.336 13.5854 12.504 13.7534 12.7093 13.7534H16.5925C16.7978 13.7534 16.9658 13.5854 16.9658 13.38C16.9658 13.1747 16.7978 13.0066 16.5925 13.0066ZM11.9066 16.7964H11.1785V16.8524C11.1785 17.0018 11.0852 17.1511 10.9545 17.2071L10.1517 17.5432H11.9253C12.1306 17.5432 12.28 17.3751 12.28 17.1698C12.28 16.9644 12.1119 16.7964 11.9066 16.7964ZM14.1282 14.9109H9.70367C9.49831 14.9109 9.33029 15.0789 9.33029 15.2842C9.33029 15.4896 9.49831 15.6576 9.70367 15.6576H14.1282C14.3335 15.6576 14.5015 15.4896 14.5015 15.2842C14.5015 15.0789 14.3335 14.9109 14.1282 14.9109ZM15.211 8.45146H14.8563V8.05941C14.8563 7.12597 14.0908 6.36055 13.1574 6.36055C12.4106 6.36055 11.7946 6.82727 11.5519 7.48068L12.0373 7.96607H12.2053C12.2613 7.49935 12.672 7.12597 13.1574 7.12597C13.6801 7.12597 14.1095 7.55535 14.1095 8.07808V8.45146H12.9147C13.064 8.78749 13.1387 9.01152 13.2321 9.19821H14.8189V11.1024H11.4585V9.19821H12.8214L12.5973 8.67548L11.9439 8.71282C11.8319 8.71282 11.7386 8.67548 11.6639 8.60081L11.5145 8.45146L11.4585 8.39545V8.45146H11.1038C10.8985 8.45146 10.7304 8.61947 10.7304 8.82483V11.4758C10.7304 11.6625 10.8611 11.8118 11.0478 11.8492H11.1038H15.211C15.4163 11.8492 15.5843 11.6812 15.5843 11.4758V8.82483C15.5843 8.61947 15.4163 8.45146 15.211 8.45146ZM11.2158 13.0066H9.70367C9.49831 13.0066 9.33029 13.1747 9.33029 13.38C9.33029 13.4547 9.34896 13.5294 9.40497 13.604C9.46097 13.6974 9.57298 13.7534 9.70367 13.7534H11.2158C11.4212 13.7534 11.5892 13.5854 11.5892 13.38C11.5892 13.1747 11.4212 13.0066 11.2158 13.0066ZM9.70367 16.7964C9.51698 16.7964 9.36763 16.9271 9.33029 17.0951L10.0397 16.7964H9.70367ZM7.53809 8.80616V14.3321C7.66877 14.3321 7.78078 14.3321 7.91146 14.3135V8.82483C7.78078 8.82483 7.66877 8.80616 7.53809 8.80616ZM11.2158 13.0066H9.70367C9.49831 13.0066 9.33029 13.1747 9.33029 13.38C9.33029 13.4547 9.34896 13.5294 9.40497 13.604C9.46097 13.6974 9.57298 13.7534 9.70367 13.7534H11.2158C11.4212 13.7534 11.5892 13.5854 11.5892 13.38C11.5892 13.1747 11.4212 13.0066 11.2158 13.0066ZM14.1282 14.9109H9.70367C9.49831 14.9109 9.33029 15.0789 9.33029 15.2842C9.33029 15.4896 9.49831 15.6576 9.70367 15.6576H14.1282C14.3335 15.6576 14.5015 15.4896 14.5015 15.2842C14.5015 15.0789 14.3335 14.9109 14.1282 14.9109ZM11.9066 16.7964H9.70367C9.51698 16.7964 9.36763 16.9271 9.33029 17.0951V17.1698C9.33029 17.3005 9.40497 17.4125 9.49831 17.4872C9.55432 17.5245 9.62899 17.5432 9.70367 17.5432H11.9253C12.1306 17.5432 12.28 17.3751 12.28 17.1698C12.28 16.9644 12.1119 16.7964 11.9066 16.7964ZM16.5925 13.0066H12.7093C12.504 13.0066 12.336 13.1747 12.336 13.38C12.336 13.5854 12.504 13.7534 12.7093 13.7534H16.5925C16.7978 13.7534 16.9658 13.5854 16.9658 13.38C16.9658 13.1747 16.7978 13.0066 16.5925 13.0066ZM16.5925 16.7964H13.4188C13.2134 16.7964 13.0454 16.9644 13.0454 17.1698C13.0454 17.3751 13.2134 17.5432 13.4188 17.5432H16.5925C16.7978 17.5432 16.9658 17.3751 16.9658 17.1698C16.9658 16.9644 16.7978 16.7964 16.5925 16.7964ZM16.5925 14.9109H15.6217C15.4163 14.9109 15.2483 15.0789 15.2483 15.2842C15.2483 15.4896 15.4163 15.6576 15.6217 15.6576H16.5925C16.7978 15.6576 16.9658 15.4896 16.9658 15.2842C16.9658 15.0789 16.7978 14.9109 16.5925 14.9109ZM16.5925 14.9109H15.6217C15.4163 14.9109 15.2483 15.0789 15.2483 15.2842C15.2483 15.4896 15.4163 15.6576 15.6217 15.6576H16.5925C16.7978 15.6576 16.9658 15.4896 16.9658 15.2842C16.9658 15.0789 16.7978 14.9109 16.5925 14.9109ZM16.5925 16.7964H13.4188C13.2134 16.7964 13.0454 16.9644 13.0454 17.1698C13.0454 17.3751 13.2134 17.5432 13.4188 17.5432H16.5925C16.7978 17.5432 16.9658 17.3751 16.9658 17.1698C16.9658 16.9644 16.7978 16.7964 16.5925 16.7964ZM16.5925 13.0066H12.7093C12.504 13.0066 12.336 13.1747 12.336 13.38C12.336 13.5854 12.504 13.7534 12.7093 13.7534H16.5925C16.7978 13.7534 16.9658 13.5854 16.9658 13.38C16.9658 13.1747 16.7978 13.0066 16.5925 13.0066ZM11.9066 16.7964H9.70367C9.51698 16.7964 9.36763 16.9271 9.33029 17.0951V17.1698C9.33029 17.3005 9.40497 17.4125 9.49831 17.4872C9.55432 17.5245 9.62899 17.5432 9.70367 17.5432H11.9253C12.1306 17.5432 12.28 17.3751 12.28 17.1698C12.28 16.9644 12.1119 16.7964 11.9066 16.7964ZM14.1282 14.9109H9.70367C9.49831 14.9109 9.33029 15.0789 9.33029 15.2842C9.33029 15.4896 9.49831 15.6576 9.70367 15.6576H14.1282C14.3335 15.6576 14.5015 15.4896 14.5015 15.2842C14.5015 15.0789 14.3335 14.9109 14.1282 14.9109ZM15.211 8.45146H14.8563V8.05941C14.8563 7.12597 14.0908 6.36055 13.1574 6.36055C12.4106 6.36055 11.7946 6.82727 11.5519 7.48068L12.0373 7.96607H12.2053C12.2613 7.49935 12.672 7.12597 13.1574 7.12597C13.6801 7.12597 14.1095 7.55535 14.1095 8.07808V8.45146H12.9147C13.064 8.78749 13.1387 9.01152 13.2321 9.19821H14.8189V11.1024H11.4585V9.19821H12.8214L12.5973 8.67548L11.9439 8.71282C11.8319 8.71282 11.7386 8.67548 11.6639 8.60081L11.5145 8.45146L11.4585 8.39545V8.45146H11.1038C10.8985 8.45146 10.7304 8.61947 10.7304 8.82483V11.4758C10.7304 11.6625 10.8611 11.8118 11.0478 11.8492H11.1038H15.211C15.4163 11.8492 15.5843 11.6812 15.5843 11.4758V8.82483C15.5843 8.61947 15.4163 8.45146 15.211 8.45146ZM11.2158 13.0066H9.70367C9.49831 13.0066 9.33029 13.1747 9.33029 13.38C9.33029 13.4547 9.34896 13.5294 9.40497 13.604C9.46097 13.6974 9.57298 13.7534 9.70367 13.7534H11.2158C11.4212 13.7534 11.5892 13.5854 11.5892 13.38C11.5892 13.1747 11.4212 13.0066 11.2158 13.0066ZM7.53809 8.80616V14.3321C7.66877 14.3321 7.78078 14.3321 7.91146 14.3135V8.82483C7.78078 8.82483 7.66877 8.80616 7.53809 8.80616ZM11.2158 13.0066H9.70367C9.49831 13.0066 9.33029 13.1747 9.33029 13.38C9.33029 13.4547 9.34896 13.5294 9.40497 13.604C9.46097 13.6974 9.57298 13.7534 9.70367 13.7534H11.2158C11.4212 13.7534 11.5892 13.5854 11.5892 13.38C11.5892 13.1747 11.4212 13.0066 11.2158 13.0066ZM14.1282 14.9109H9.70367C9.49831 14.9109 9.33029 15.0789 9.33029 15.2842C9.33029 15.4896 9.49831 15.6576 9.70367 15.6576H14.1282C14.3335 15.6576 14.5015 15.4896 14.5015 15.2842C14.5015 15.0789 14.3335 14.9109 14.1282 14.9109ZM11.9066 16.7964H9.70367C9.51698 16.7964 9.36763 16.9271 9.33029 17.0951V17.1698C9.33029 17.3005 9.40497 17.4125 9.49831 17.4872C9.55432 17.5245 9.62899 17.5432 9.70367 17.5432H11.9253C12.1306 17.5432 12.28 17.3751 12.28 17.1698C12.28 16.9644 12.1119 16.7964 11.9066 16.7964ZM16.5925 13.0066H12.7093C12.504 13.0066 12.336 13.1747 12.336 13.38C12.336 13.5854 12.504 13.7534 12.7093 13.7534H16.5925C16.7978 13.7534 16.9658 13.5854 16.9658 13.38C16.9658 13.1747 16.7978 13.0066 16.5925 13.0066ZM16.5925 16.7964H13.4188C13.2134 16.7964 13.0454 16.9644 13.0454 17.1698C13.0454 17.3751 13.2134 17.5432 13.4188 17.5432H16.5925C16.7978 17.5432 16.9658 17.3751 16.9658 17.1698C16.9658 16.9644 16.7978 16.7964 16.5925 16.7964ZM16.5925 14.9109H15.6217C15.4163 14.9109 15.2483 15.0789 15.2483 15.2842C15.2483 15.4896 15.4163 15.6576 15.6217 15.6576H16.5925C16.7978 15.6576 16.9658 15.4896 16.9658 15.2842C16.9658 15.0789 16.7978 14.9109 16.5925 14.9109ZM16.5925 14.9109H15.6217C15.4163 14.9109 15.2483 15.0789 15.2483 15.2842C15.2483 15.4896 15.4163 15.6576 15.6217 15.6576H16.5925C16.7978 15.6576 16.9658 15.4896 16.9658 15.2842C16.9658 15.0789 16.7978 14.9109 16.5925 14.9109ZM16.5925 16.7964H13.4188C13.2134 16.7964 13.0454 16.9644 13.0454 17.1698C13.0454 17.3751 13.2134 17.5432 13.4188 17.5432H16.5925C16.7978 17.5432 16.9658 17.3751 16.9658 17.1698C16.9658 16.9644 16.7978 16.7964 16.5925 16.7964ZM16.5925 13.0066H12.7093C12.504 13.0066 12.336 13.1747 12.336 13.38C12.336 13.5854 12.504 13.7534 12.7093 13.7534H16.5925C16.7978 13.7534 16.9658 13.5854 16.9658 13.38C16.9658 13.1747 16.7978 13.0066 16.5925 13.0066ZM11.9066 16.7964H9.70367C9.51698 16.7964 9.36763 16.9271 9.33029 17.0951V17.1698C9.33029 17.3005 9.40497 17.4125 9.49831 17.4872C9.55432 17.5245 9.62899 17.5432 9.70367 17.5432H11.9253C12.1306 17.5432 12.28 17.3751 12.28 17.1698C12.28 16.9644 12.1119 16.7964 11.9066 16.7964ZM14.1282 14.9109H9.70367C9.49831 14.9109 9.33029 15.0789 9.33029 15.2842C9.33029 15.4896 9.49831 15.6576 9.70367 15.6576H14.1282C14.3335 15.6576 14.5015 15.4896 14.5015 15.2842C14.5015 15.0789 14.3335 14.9109 14.1282 14.9109ZM15.211 8.45146H14.8563V8.05941C14.8563 7.12597 14.0908 6.36055 13.1574 6.36055C12.4106 6.36055 11.7946 6.82727 11.5519 7.48068L12.0373 7.96607H12.2053C12.2613 7.49935 12.672 7.12597 13.1574 7.12597C13.6801 7.12597 14.1095 7.55535 14.1095 8.07808V8.45146H12.9147C13.064 8.78749 13.1387 9.01152 13.2321 9.19821H14.8189V11.1024H11.4585V9.19821H12.8214L12.5973 8.67548L11.9439 8.71282C11.8319 8.71282 11.7386 8.67548 11.6639 8.60081L11.5145 8.45146L11.4585 8.39545V8.45146H11.1038C10.8985 8.45146 10.7304 8.61947 10.7304 8.82483V11.4758C10.7304 11.6625 10.8611 11.8118 11.0478 11.8492H11.1038H15.211C15.4163 11.8492 15.5843 11.6812 15.5843 11.4758V8.82483C15.5843 8.61947 15.4163 8.45146 15.211 8.45146ZM11.2158 13.0066H9.70367C9.49831 13.0066 9.33029 13.1747 9.33029 13.38C9.33029 13.4547 9.34896 13.5294 9.40497 13.604C9.46097 13.6974 9.57298 13.7534 9.70367 13.7534H11.2158C11.4212 13.7534 11.5892 13.5854 11.5892 13.38C11.5892 13.1747 11.4212 13.0066 11.2158 13.0066ZM7.53809 8.80616V14.3321C7.66877 14.3321 7.78078 14.3321 7.91146 14.3135V8.82483C7.78078 8.82483 7.66877 8.80616 7.53809 8.80616ZM11.2158 13.0066H9.70367C9.49831 13.0066 9.33029 13.1747 9.33029 13.38C9.33029 13.4547 9.34896 13.5294 9.40497 13.604C9.46097 13.6974 9.57298 13.7534 9.70367 13.7534H11.2158C11.4212 13.7534 11.5892 13.5854 11.5892 13.38C11.5892 13.1747 11.4212 13.0066 11.2158 13.0066ZM14.1282 14.9109H9.70367C9.49831 14.9109 9.33029 15.0789 9.33029 15.2842C9.33029 15.4896 9.49831 15.6576 9.70367 15.6576H14.1282C14.3335 15.6576 14.5015 15.4896 14.5015 15.2842C14.5015 15.0789 14.3335 14.9109 14.1282 14.9109ZM11.9066 16.7964H9.70367C9.51698 16.7964 9.36763 16.9271 9.33029 17.0951V17.1698C9.33029 17.3005 9.40497 17.4125 9.49831 17.4872C9.55432 17.5245 9.62899 17.5432 9.70367 17.5432H11.9253C12.1306 17.5432 12.28 17.3751 12.28 17.1698C12.28 16.9644 12.1119 16.7964 11.9066 16.7964ZM16.5925 13.0066H12.7093C12.504 13.0066 12.336 13.1747 12.336 13.38C12.336 13.5854 12.504 13.7534 12.7093 13.7534H16.5925C16.7978 13.7534 16.9658 13.5854 16.9658 13.38C16.9658 13.1747 16.7978 13.0066 16.5925 13.0066ZM16.5925 16.7964H13.4188C13.2134 16.7964 13.0454 16.9644 13.0454 17.1698C13.0454 17.3751 13.2134 17.5432 13.4188 17.5432H16.5925C16.7978 17.5432 16.9658 17.3751 16.9658 17.1698C16.9658 16.9644 16.7978 16.7964 16.5925 16.7964ZM16.5925 14.9109H15.6217C15.4163 14.9109 15.2483 15.0789 15.2483 15.2842C15.2483 15.4896 15.4163 15.6576 15.6217 15.6576H16.5925C16.7978 15.6576 16.9658 15.4896 16.9658 15.2842C16.9658 15.0789 16.7978 14.9109 16.5925 14.9109ZM16.5925 14.9109H15.6217C15.4163 14.9109 15.2483 15.0789 15.2483 15.2842C15.2483 15.4896 15.4163 15.6576 15.6217 15.6576H16.5925C16.7978 15.6576 16.9658 15.4896 16.9658 15.2842C16.9658 15.0789 16.7978 14.9109 16.5925 14.9109ZM16.5925 16.7964H13.4188C13.2134 16.7964 13.0454 16.9644 13.0454 17.1698C13.0454 17.3751 13.2134 17.5432 13.4188 17.5432H16.5925C16.7978 17.5432 16.9658 17.3751 16.9658 17.1698C16.9658 16.9644 16.7978 16.7964 16.5925 16.7964ZM16.5925 13.0066H12.7093C12.504 13.0066 12.336 13.1747 12.336 13.38C12.336 13.5854 12.504 13.7534 12.7093 13.7534H16.5925C16.7978 13.7534 16.9658 13.5854 16.9658 13.38C16.9658 13.1747 16.7978 13.0066 16.5925 13.0066ZM11.9066 16.7964H9.70367C9.51698 16.7964 9.36763 16.9271 9.33029 17.0951V17.1698C9.33029 17.3005 9.40497 17.4125 9.49831 17.4872C9.55432 17.5245 9.62899 17.5432 9.70367 17.5432H11.9253C12.1306 17.5432 12.28 17.3751 12.28 17.1698C12.28 16.9644 12.1119 16.7964 11.9066 16.7964ZM14.1282 14.9109H9.70367C9.49831 14.9109 9.33029 15.0789 9.33029 15.2842C9.33029 15.4896 9.49831 15.6576 9.70367 15.6576H14.1282C14.3335 15.6576 14.5015 15.4896 14.5015 15.2842C14.5015 15.0789 14.3335 14.9109 14.1282 14.9109ZM15.211 8.45146H14.8563V8.05941C14.8563 7.12597 14.0908 6.36055 13.1574 6.36055C12.4106 6.36055 11.7946 6.82727 11.5519 7.48068L12.0373 7.96607H12.2053C12.2613 7.49935 12.672 7.12597 13.1574 7.12597C13.6801 7.12597 14.1095 7.55535 14.1095 8.07808V8.45146H12.9147C13.064 8.78749 13.1387 9.01152 13.2321 9.19821H14.8189V11.1024H11.4585V9.19821H12.8214L12.5973 8.67548L11.9439 8.71282C11.8319 8.71282 11.7386 8.67548 11.6639 8.60081L11.5145 8.45146L11.4585 8.39545V8.45146H11.1038C10.8985 8.45146 10.7304 8.61947 10.7304 8.82483V11.4758C10.7304 11.6625 10.8611 11.8118 11.0478 11.8492H11.1038H15.211C15.4163 11.8492 15.5843 11.6812 15.5843 11.4758V8.82483C15.5843 8.61947 15.4163 8.45146 15.211 8.45146ZM11.2158 13.0066H9.70367C9.49831 13.0066 9.33029 13.1747 9.33029 13.38C9.33029 13.4547 9.34896 13.5294 9.40497 13.604C9.46097 13.6974 9.57298 13.7534 9.70367 13.7534H11.2158C11.4212 13.7534 11.5892 13.5854 11.5892 13.38C11.5892 13.1747 11.4212 13.0066 11.2158 13.0066ZM7.53809 8.80616V14.3321C7.66877 14.3321 7.78078 14.3321 7.91146 14.3135V8.82483C7.78078 8.82483 7.66877 8.80616 7.53809 8.80616ZM11.2158 13.0066H9.70367C9.49831 13.0066 9.33029 13.1747 9.33029 13.38C9.33029 13.4547 9.34896 13.5294 9.40497 13.604C9.46097 13.6974 9.57298 13.7534 9.70367 13.7534H11.2158C11.4212 13.7534 11.5892 13.5854 11.5892 13.38C11.5892 13.1747 11.4212 13.0066 11.2158 13.0066ZM14.1282 14.9109H9.70367C9.49831 14.9109 9.33029 15.0789 9.33029 15.2842C9.33029 15.4896 9.49831 15.6576 9.70367 15.6576H14.1282C14.3335 15.6576 14.5015 15.4896 14.5015 15.2842C14.5015 15.0789 14.3335 14.9109 14.1282 14.9109ZM11.9066 16.7964H9.70367C9.51698 16.7964 9.36763 16.9271 9.33029 17.0951V17.1698C9.33029 17.3005 9.40497 17.4125 9.49831 17.4872C9.55432 17.5245 9.62899 17.5432 9.70367 17.5432H11.9253C12.1306 17.5432 12.28 17.3751 12.28 17.1698C12.28 16.9644 12.1119 16.7964 11.9066 16.7964ZM16.5925 13.0066H12.7093C12.504 13.0066 12.336 13.1747 12.336 13.38C12.336 13.5854 12.504 13.7534 12.7093 13.7534H16.5925C16.7978 13.7534 16.9658 13.5854 16.9658 13.38C16.9658 13.1747 16.7978 13.0066 16.5925 13.0066ZM16.5925 16.7964H13.4188C13.2134 16.7964 13.0454 16.9644 13.0454 17.1698C13.0454 17.3751 13.2134 17.5432 13.4188 17.5432H16.5925C16.7978 17.5432 16.9658 17.3751 16.9658 17.1698C16.9658 16.9644 16.7978 16.7964 16.5925 16.7964ZM16.5925 14.9109H15.6217C15.4163 14.9109 15.2483 15.0789 15.2483 15.2842C15.2483 15.4896 15.4163 15.6576 15.6217 15.6576H16.5925C16.7978 15.6576 16.9658 15.4896 16.9658 15.2842C16.9658 15.0789 16.7978 14.9109 16.5925 14.9109ZM16.5925 14.9109H15.6217C15.4163 14.9109 15.2483 15.0789 15.2483 15.2842C15.2483 15.4896 15.4163 15.6576 15.6217 15.6576H16.5925C16.7978 15.6576 16.9658 15.4896 16.9658 15.2842C16.9658 15.0789 16.7978 14.9109 16.5925 14.9109ZM16.5925 16.7964H13.4188C13.2134 16.7964 13.0454 16.9644 13.0454 17.1698C13.0454 17.3751 13.2134 17.5432 13.4188 17.5432H16.5925C16.7978 17.5432 16.9658 17.3751 16.9658 17.1698C16.9658 16.9644 16.7978 16.7964 16.5925 16.7964ZM16.5925 13.0066H12.7093C12.504 13.0066 12.336 13.1747 12.336 13.38C12.336 13.5854 12.504 13.7534 12.7093 13.7534H16.5925C16.7978 13.7534 16.9658 13.5854 16.9658 13.38C16.9658 13.1747 16.7978 13.0066 16.5925 13.0066ZM11.9066 16.7964H9.70367C9.51698 16.7964 9.36763 16.9271 9.33029 17.0951V17.1698C9.33029 17.3005 9.40497 17.4125 9.49831 17.4872C9.55432 17.5245 9.62899 17.5432 9.70367 17.5432H11.9253C12.1306 17.5432 12.28 17.3751 12.28 17.1698C12.28 16.9644 12.1119 16.7964 11.9066 16.7964ZM14.1282 14.9109H9.70367C9.49831 14.9109 9.33029 15.0789 9.33029 15.2842C9.33029 15.4896 9.49831 15.6576 9.70367 15.6576H14.1282C14.3335 15.6576 14.5015 15.4896 14.5015 15.2842C14.5015 15.0789 14.3335 14.9109 14.1282 14.9109ZM15.211 8.45146H14.8563V8.05941C14.8563 7.12597 14.0908 6.36055 13.1574 6.36055C12.4106 6.36055 11.7946 6.82727 11.5519 7.48068L12.0373 7.96607H12.2053C12.2613 7.49935 12.672 7.12597 13.1574 7.12597C13.6801 7.12597 14.1095 7.55535 14.1095 8.07808V8.45146H12.9147C13.064 8.78749 13.1387 9.01152 13.2321 9.19821H14.8189V11.1024H11.4585V9.19821H12.8214L12.5973 8.67548L11.9439 8.71282C11.8319 8.71282 11.7386 8.67548 11.6639 8.60081L11.5145 8.45146L11.4585 8.39545V8.45146H11.1038C10.8985 8.45146 10.7304 8.61947 10.7304 8.82483V11.4758C10.7304 11.6625 10.8611 11.8118 11.0478 11.8492H11.1038H15.211C15.4163 11.8492 15.5843 11.6812 15.5843 11.4758V8.82483C15.5843 8.61947 15.4163 8.45146 15.211 8.45146ZM11.2158 13.0066H9.70367C9.49831 13.0066 9.33029 13.1747 9.33029 13.38C9.33029 13.4547 9.34896 13.5294 9.40497 13.604C9.46097 13.6974 9.57298 13.7534 9.70367 13.7534H11.2158C11.4212 13.7534 11.5892 13.5854 11.5892 13.38C11.5892 13.1747 11.4212 13.0066 11.2158 13.0066ZM7.53809 8.80616V14.3321C7.66877 14.3321 7.78078 14.3321 7.91146 14.3135V8.82483C7.78078 8.82483 7.66877 8.80616 7.53809 8.80616ZM11.2158 13.0066H9.70367C9.49831 13.0066 9.33029 13.1747 9.33029 13.38C9.33029 13.4547 9.34896 13.5294 9.40497 13.604C9.46097 13.6974 9.57298 13.7534 9.70367 13.7534H11.2158C11.4212 13.7534 11.5892 13.5854 11.5892 13.38C11.5892 13.1747 11.4212 13.0066 11.2158 13.0066ZM14.1282 14.9109H9.70367C9.49831 14.9109 9.33029 15.0789 9.33029 15.2842C9.33029 15.4896 9.49831 15.6576 9.70367 15.6576H14.1282C14.3335 15.6576 14.5015 15.4896 14.5015 15.2842C14.5015 15.0789 14.3335 14.9109 14.1282 14.9109ZM11.9066 16.7964H9.70367C9.51698 16.7964 9.36763 16.9271 9.33029 17.0951V17.1698C9.33029 17.3005 9.40497 17.4125 9.49831 17.4872C9.55432 17.5245 9.62899 17.5432 9.70367 17.5432H11.9253C12.1306 17.5432 12.28 17.3751 12.28 17.1698C12.28 16.9644 12.1119 16.7964 11.9066 16.7964ZM16.5925 13.0066H12.7093C12.504 13.0066 12.336 13.1747 12.336 13.38C12.336 13.5854 12.504 13.7534 12.7093 13.7534H16.5925C16.7978 13.7534 16.9658 13.5854 16.9658 13.38C16.9658 13.1747 16.7978 13.0066 16.5925 13.0066ZM16.5925 16.7964H13.4188C13.2134 16.7964 13.0454 16.9644 13.0454 17.1698C13.0454 17.3751 13.2134 17.5432 13.4188 17.5432H16.5925C16.7978 17.5432 16.9658 17.3751 16.9658 17.1698C16.9658 16.9644 16.7978 16.7964 16.5925 16.7964ZM16.5925 14.9109H15.6217C15.4163 14.9109 15.2483 15.0789 15.2483 15.2842C15.2483 15.4896 15.4163 15.6576 15.6217 15.6576H16.5925C16.7978 15.6576 16.9658 15.4896 16.9658 15.2842C16.9658 15.0789 16.7978 14.9109 16.5925 14.9109ZM16.5925 14.9109H15.6217C15.4163 14.9109 15.2483 15.0789 15.2483 15.2842C15.2483 15.4896 15.4163 15.6576 15.6217 15.6576H16.5925C16.7978 15.6576 16.9658 15.4896 16.9658 15.2842C16.9658 15.0789 16.7978 14.9109 16.5925 14.9109ZM16.5925 16.7964H13.4188C13.2134 16.7964 13.0454 16.9644 13.0454 17.1698C13.0454 17.3751 13.2134 17.5432 13.4188 17.5432H16.5925C16.7978 17.5432 16.9658 17.3751 16.9658 17.1698C16.9658 16.9644 16.7978 16.7964 16.5925 16.7964ZM16.5925 13.0066H12.7093C12.504 13.0066 12.336 13.1747 12.336 13.38C12.336 13.5854 12.504 13.7534 12.7093 13.7534H16.5925C16.7978 13.7534 16.9658 13.5854 16.9658 13.38C16.9658 13.1747 16.7978 13.0066 16.5925 13.0066ZM11.9066 16.7964H9.70367C9.51698 16.7964 9.36763 16.9271 9.33029 17.0951V17.1698C9.33029 17.3005 9.40497 17.4125 9.49831 17.4872C9.55432 17.5245 9.62899 17.5432 9.70367 17.5432H11.9253C12.1306 17.5432 12.28 17.3751 12.28 17.1698C12.28 16.9644 12.1119 16.7964 11.9066 16.7964ZM14.1282 14.9109H9.70367C9.49831 14.9109 9.33029 15.0789 9.33029 15.2842C9.33029 15.4896 9.49831 15.6576 9.70367 15.6576H14.1282C14.3335 15.6576 14.5015 15.4896 14.5015 15.2842C14.5015 15.0789 14.3335 14.9109 14.1282 14.9109ZM15.211 8.45146H14.8563V8.05941C14.8563 7.12597 14.0908 6.36055 13.1574 6.36055C12.4106 6.36055 11.7946 6.82727 11.5519 7.48068L12.0373 7.96607H12.2053C12.2613 7.49935 12.672 7.12597 13.1574 7.12597C13.6801 7.12597 14.1095 7.55535 14.1095 8.07808V8.45146H12.9147C13.064 8.78749 13.1387 9.01152 13.2321 9.19821H14.8189V11.1024H11.4585V9.19821H12.8214L12.5973 8.67548L11.9439 8.71282C11.8319 8.71282 11.7386 8.67548 11.6639 8.60081L11.5145 8.45146L11.4585 8.39545V8.45146H11.1038C10.8985 8.45146 10.7304 8.61947 10.7304 8.82483V11.4758C10.7304 11.6625 10.8611 11.8118 11.0478 11.8492H11.1038H15.211C15.4163 11.8492 15.5843 11.6812 15.5843 11.4758V8.82483C15.5843 8.61947 15.4163 8.45146 15.211 8.45146ZM11.2158 13.0066H9.70367C9.49831 13.0066 9.33029 13.1747 9.33029 13.38C9.33029 13.4547 9.34896 13.5294 9.40497 13.604C9.46097 13.6974 9.57298 13.7534 9.70367 13.7534H11.2158C11.4212 13.7534 11.5892 13.5854 11.5892 13.38C11.5892 13.1747 11.4212 13.0066 11.2158 13.0066ZM7.53809 8.80616V14.3321C7.66877 14.3321 7.78078 14.3321 7.91146 14.3135V8.82483C7.78078 8.82483 7.66877 8.80616 7.53809 8.80616ZM11.2158 13.0066H9.70367C9.49831 13.0066 9.33029 13.1747 9.33029 13.38C9.33029 13.4547 9.34896 13.5294 9.40497 13.604C9.46097 13.6974 9.57298 13.7534 9.70367 13.7534H11.2158C11.4212 13.7534 11.5892 13.5854 11.5892 13.38C11.5892 13.1747 11.4212 13.0066 11.2158 13.0066ZM14.1282 14.9109H9.70367C9.49831 14.9109 9.33029 15.0789 9.33029 15.2842C9.33029 15.4896 9.49831 15.6576 9.70367 15.6576H14.1282C14.3335 15.6576 14.5015 15.4896 14.5015 15.2842C14.5015 15.0789 14.3335 14.9109 14.1282 14.9109ZM11.9066 16.7964H9.70367C9.51698 16.7964 9.36763 16.9271 9.33029 17.0951V17.1698C9.33029 17.3005 9.40497 17.4125 9.49831 17.4872C9.55432 17.5245 9.62899 17.5432 9.70367 17.5432H11.9253C12.1306 17.5432 12.28 17.3751 12.28 17.1698C12.28 16.9644 12.1119 16.7964 11.9066 16.7964ZM16.5925 13.0066H12.7093C12.504 13.0066 12.336 13.1747 12.336 13.38C12.336 13.5854 12.504 13.7534 12.7093 13.7534H16.5925C16.7978 13.7534 16.9658 13.5854 16.9658 13.38C16.9658 13.1747 16.7978 13.0066 16.5925 13.0066ZM16.5925 16.7964H13.4188C13.2134 16.7964 13.0454 16.9644 13.0454 17.1698C13.0454 17.3751 13.2134 17.5432 13.4188 17.5432H16.5925C16.7978 17.5432 16.9658 17.3751 16.9658 17.1698C16.9658 16.9644 16.7978 16.7964 16.5925 16.7964ZM16.5925 14.9109H15.6217C15.4163 14.9109 15.2483 15.0789 15.2483 15.2842C15.2483 15.4896 15.4163 15.6576 15.6217 15.6576H16.5925C16.7978 15.6576 16.9658 15.4896 16.9658 15.2842C16.9658 15.0789 16.7978 14.9109 16.5925 14.9109ZM16.5925 14.9109H15.6217C15.4163 14.9109 15.2483 15.0789 15.2483 15.2842C15.2483 15.4896 15.4163 15.6576 15.6217 15.6576H16.5925C16.7978 15.6576 16.9658 15.4896 16.9658 15.2842C16.9658 15.0789 16.7978 14.9109 16.5925 14.9109ZM16.5925 16.7964H13.4188C13.2134 16.7964 13.0454 16.9644 13.0454 17.1698C13.0454 17.3751 13.2134 17.5432 13.4188 17.5432H16.5925C16.7978 17.5432 16.9658 17.3751 16.9658 17.1698C16.9658 16.9644 16.7978 16.7964 16.5925 16.7964ZM12.7093 13.0066C12.504 13.0066 12.336 13.1747 12.336 13.38C12.336 13.5854 12.504 13.7534 12.7093 13.7534H16.5925C16.7978 13.7534 16.9658 13.5854 16.9658 13.38C16.9658 13.1747 16.7978 13.0066 16.5925 13.0066H12.7093ZM11.9066 16.7964H9.70367C9.51698 16.7964 9.36763 16.9271 9.33029 17.0951V17.1698C9.33029 17.3005 9.40497 17.4125 9.49831 17.4872C9.55432 17.5245 9.62899 17.5432 9.70367 17.5432H11.9253C12.1306 17.5432 12.28 17.3751 12.28 17.1698C12.28 16.9644 12.1119 16.7964 11.9066 16.7964ZM9.70367 15.6576H14.1282C14.3335 15.6576 14.5015 15.4896 14.5015 15.2842C14.5015 15.0789 14.3335 14.9109 14.1282 14.9109H9.70367C9.49831 14.9109 9.33029 15.0789 9.33029 15.2842C9.33029 15.4896 9.49831 15.6576 9.70367 15.6576ZM11.0291 11.8492H11.0852H15.1923C15.3976 11.8492 15.5657 11.6812 15.5657 11.4758V8.82483C15.5657 8.61947 15.3976 8.45146 15.1923 8.45146H14.8376V8.05941C14.8376 7.12597 14.0722 6.36055 13.1387 6.36055C12.392 6.36055 11.7759 6.82727 11.5332 7.48068L12.0186 7.96607H12.1866C12.2426 7.49935 12.6533 7.12597 13.1387 7.12597C13.6614 7.12597 14.0908 7.55535 14.0908 8.07808V8.45146H12.896C13.0454 8.78749 13.1201 9.01152 13.2134 9.19821H14.8002V11.1024H11.4399V9.19821H12.8027L12.5973 8.67548L11.9439 8.71282C11.8319 8.71282 11.7386 8.67548 11.6639 8.60081L11.5145 8.45146L11.4585 8.39545V8.45146H11.1038C10.8985 8.45146 10.7304 8.61947 10.7304 8.82483V11.4758C10.7304 11.6625 10.8611 11.8118 11.0291 11.8492ZM9.70367 13.7534H11.2158C11.4212 13.7534 11.5892 13.5854 11.5892 13.38C11.5892 13.1747 11.4212 13.0066 11.2158 13.0066H9.70367C9.49831 13.0066 9.33029 13.1747 9.33029 13.38C9.33029 13.4547 9.34896 13.5294 9.40497 13.604C9.46097 13.6974 9.57298 13.7534 9.70367 13.7534ZM7.53809 14.3321C7.66877 14.3321 7.78078 14.3321 7.91146 14.3135V8.82483C7.79945 8.80616 7.66877 8.80616 7.53809 8.80616V14.3321ZM15.6217 4.25098H7.53809V19.298H18.758V7.38733L15.6217 4.25098ZM17.8619 7.01396H15.995V5.14708L17.8619 7.01396ZM18.3847 18.9246H7.91146V4.62435H15.2483V7.38733C15.2483 7.59269 15.4163 7.76071 15.6217 7.76071H18.3847V18.9246ZM16.5925 14.9109H15.6217C15.4163 14.9109 15.2483 15.0789 15.2483 15.2842C15.2483 15.4896 15.4163 15.6576 15.6217 15.6576H16.5925C16.7978 15.6576 16.9658 15.4896 16.9658 15.2842C16.9658 15.0789 16.7978 14.9109 16.5925 14.9109ZM16.5925 16.7964H13.4188C13.2134 16.7964 13.0454 16.9644 13.0454 17.1698C13.0454 17.3751 13.2134 17.5432 13.4188 17.5432H16.5925C16.7978 17.5432 16.9658 17.3751 16.9658 17.1698C16.9658 16.9644 16.7978 16.7964 16.5925 16.7964ZM12.7093 13.0066C12.504 13.0066 12.336 13.1747 12.336 13.38C12.336 13.5854 12.504 13.7534 12.7093 13.7534H16.5925C16.7978 13.7534 16.9658 13.5854 16.9658 13.38C16.9658 13.1747 16.7978 13.0066 16.5925 13.0066H12.7093ZM11.9066 16.7964H9.70367C9.51698 16.7964 9.36763 16.9271 9.33029 17.0951V17.1698C9.33029 17.3005 9.40497 17.4125 9.49831 17.4872C9.55432 17.5245 9.62899 17.5432 9.70367 17.5432H11.9253C12.1306 17.5432 12.28 17.3751 12.28 17.1698C12.28 16.9644 12.1119 16.7964 11.9066 16.7964ZM9.70367 15.6576H14.1282C14.3335 15.6576 14.5015 15.4896 14.5015 15.2842C14.5015 15.0789 14.3335 14.9109 14.1282 14.9109H9.70367C9.49831 14.9109 9.33029 15.0789 9.33029 15.2842C9.33029 15.4896 9.49831 15.6576 9.70367 15.6576ZM11.0291 11.8492H11.0852H15.1923C15.3976 11.8492 15.5657 11.6812 15.5657 11.4758V8.82483C15.5657 8.61947 15.3976 8.45146 15.1923 8.45146H14.8376V8.05941C14.8376 7.12597 14.0722 6.36055 13.1387 6.36055C12.392 6.36055 11.7759 6.82727 11.5332 7.48068C11.4959 7.57402 11.4772 7.66737 11.4585 7.76071C11.4585 7.79805 11.4399 7.81672 11.4399 7.85405V7.89139V8.45146H11.1038C10.8985 8.45146 10.7304 8.61947 10.7304 8.82483V11.4758C10.7304 11.6625 10.8611 11.8118 11.0291 11.8492ZM13.1574 7.1073C13.6801 7.1073 14.1095 7.53668 14.1095 8.05941V8.45146H12.2053V8.05941C12.2053 8.02207 12.2053 7.98474 12.2053 7.96607C12.2613 7.48068 12.672 7.1073 13.1574 7.1073ZM11.4585 9.19821H14.8189V11.1024H11.4585V9.19821ZM9.70367 13.7534H11.2158C11.4212 13.7534 11.5892 13.5854 11.5892 13.38C11.5892 13.1747 11.4212 13.0066 11.2158 13.0066H9.70367C9.49831 13.0066 9.33029 13.1747 9.33029 13.38C9.33029 13.4547 9.34896 13.5294 9.40497 13.604C9.46097 13.6974 9.57298 13.7534 9.70367 13.7534ZM7.53809 8.80616V14.3321C7.66877 14.3321 7.78078 14.3321 7.91146 14.3135V8.82483C7.78078 8.82483 7.66877 8.80616 7.53809 8.80616ZM11.2158 13.0066H9.70367C9.49831 13.0066 9.33029 13.1747 9.33029 13.38C9.33029 13.4547 9.34896 13.5294 9.40497 13.604C9.46097 13.6974 9.57298 13.7534 9.70367 13.7534H11.2158C11.4212 13.7534 11.5892 13.5854 11.5892 13.38C11.5892 13.1747 11.4212 13.0066 11.2158 13.0066ZM15.211 8.45146H14.8563V8.05941C14.8563 7.12597 14.0908 6.36055 13.1574 6.36055C12.4106 6.36055 11.7946 6.82727 11.5519 7.48068L12.0373 7.96607H12.2053C12.2613 7.49935 12.672 7.12597 13.1574 7.12597C13.6801 7.12597 14.1095 7.55535 14.1095 8.07808V8.45146H12.9147C13.064 8.78749 13.1387 9.01152 13.2321 9.19821H14.8189V11.1024H11.4585V9.19821H12.8214L12.5973 8.67548L11.9439 8.71282C11.8319 8.71282 11.7386 8.67548 11.6639 8.60081L11.5145 8.45146L11.4585 8.39545V8.45146H11.1038C10.8985 8.45146 10.7304 8.61947 10.7304 8.82483V11.4758C10.7304 11.6625 10.8611 11.8118 11.0478 11.8492H11.1038H15.211C15.4163 11.8492 15.5843 11.6812 15.5843 11.4758V8.82483C15.5843 8.61947 15.4163 8.45146 15.211 8.45146ZM14.1282 14.9109H9.70367C9.49831 14.9109 9.33029 15.0789 9.33029 15.2842C9.33029 15.4896 9.49831 15.6576 9.70367 15.6576H14.1282C14.3335 15.6576 14.5015 15.4896 14.5015 15.2842C14.5015 15.0789 14.3335 14.9109 14.1282 14.9109ZM11.9066 16.7964H9.70367C9.51698 16.7964 9.36763 16.9271 9.33029 17.0951V17.1698C9.33029 17.3005 9.40497 17.4125 9.49831 17.4872C9.55432 17.5245 9.62899 17.5432 9.70367 17.5432H11.9253C12.1306 17.5432 12.28 17.3751 12.28 17.1698C12.28 16.9644 12.1119 16.7964 11.9066 16.7964ZM16.5925 13.0066H12.7093C12.504 13.0066 12.336 13.1747 12.336 13.38C12.336 13.5854 12.504 13.7534 12.7093 13.7534H16.5925C16.7978 13.7534 16.9658 13.5854 16.9658 13.38C16.9658 13.1747 16.7978 13.0066 16.5925 13.0066ZM16.5925 16.7964H13.4188C13.2134 16.7964 13.0454 16.9644 13.0454 17.1698C13.0454 17.3751 13.2134 17.5432 13.4188 17.5432H16.5925C16.7978 17.5432 16.9658 17.3751 16.9658 17.1698C16.9658 16.9644 16.7978 16.7964 16.5925 16.7964ZM16.5925 14.9109H15.6217C15.4163 14.9109 15.2483 15.0789 15.2483 15.2842C15.2483 15.4896 15.4163 15.6576 15.6217 15.6576H16.5925C16.7978 15.6576 16.9658 15.4896 16.9658 15.2842C16.9658 15.0789 16.7978 14.9109 16.5925 14.9109ZM16.5925 14.9109H15.6217C15.4163 14.9109 15.2483 15.0789 15.2483 15.2842C15.2483 15.4896 15.4163 15.6576 15.6217 15.6576H16.5925C16.7978 15.6576 16.9658 15.4896 16.9658 15.2842C16.9658 15.0789 16.7978 14.9109 16.5925 14.9109ZM16.5925 16.7964H13.4188C13.2134 16.7964 13.0454 16.9644 13.0454 17.1698C13.0454 17.3751 13.2134 17.5432 13.4188 17.5432H16.5925C16.7978 17.5432 16.9658 17.3751 16.9658 17.1698C16.9658 16.9644 16.7978 16.7964 16.5925 16.7964ZM16.5925 13.0066H12.7093C12.504 13.0066 12.336 13.1747 12.336 13.38C12.336 13.5854 12.504 13.7534 12.7093 13.7534H16.5925C16.7978 13.7534 16.9658 13.5854 16.9658 13.38C16.9658 13.1747 16.7978 13.0066 16.5925 13.0066ZM11.9066 16.7964H9.70367C9.51698 16.7964 9.36763 16.9271 9.33029 17.0951V17.1698C9.33029 17.3005 9.40497 17.4125 9.49831 17.4872C9.55432 17.5245 9.62899 17.5432 9.70367 17.5432H11.9253C12.1306 17.5432 12.28 17.3751 12.28 17.1698C12.28 16.9644 12.1119 16.7964 11.9066 16.7964ZM14.1282 14.9109H9.70367C9.49831 14.9109 9.33029 15.0789 9.33029 15.2842C9.33029 15.4896 9.49831 15.6576 9.70367 15.6576H14.1282C14.3335 15.6576 14.5015 15.4896 14.5015 15.2842C14.5015 15.0789 14.3335 14.9109 14.1282 14.9109ZM11.2158 13.0066H9.70367C9.49831 13.0066 9.33029 13.1747 9.33029 13.38C9.33029 13.4547 9.34896 13.5294 9.40497 13.604C9.46097 13.6974 9.57298 13.7534 9.70367 13.7534H11.2158C11.4212 13.7534 11.5892 13.5854 11.5892 13.38C11.5892 13.1747 11.4212 13.0066 11.2158 13.0066ZM7.53809 8.80616V14.3321C7.66877 14.3321 7.78078 14.3321 7.91146 14.3135V8.82483C7.78078 8.82483 7.66877 8.80616 7.53809 8.80616ZM11.2158 13.0066H9.70367C9.49831 13.0066 9.33029 13.1747 9.33029 13.38C9.33029 13.4547 9.34896 13.5294 9.40497 13.604C9.46097 13.6974 9.57298 13.7534 9.70367 13.7534H11.2158C11.4212 13.7534 11.5892 13.5854 11.5892 13.38C11.5892 13.1747 11.4212 13.0066 11.2158 13.0066ZM15.211 8.45146H14.8563V8.05941C14.8563 7.12597 14.0908 6.36055 13.1574 6.36055C12.4106 6.36055 11.7946 6.82727 11.5519 7.48068L12.0373 7.96607H12.2053C12.2613 7.49935 12.672 7.12597 13.1574 7.12597C13.6801 7.12597 14.1095 7.55535 14.1095 8.07808V8.45146H12.9147C13.064 8.78749 13.1387 9.01152 13.2321 9.19821H14.8189V11.1024H11.4585V9.19821H12.8214L12.5973 8.67548L11.9439 8.71282C11.8319 8.71282 11.7386 8.67548 11.6639 8.60081L11.5145 8.45146L11.4585 8.39545V8.45146H11.1038C10.8985 8.45146 10.7304 8.61947 10.7304 8.82483V11.4758C10.7304 11.6625 10.8611 11.8118 11.0478 11.8492H11.1038H15.211C15.4163 11.8492 15.5843 11.6812 15.5843 11.4758V8.82483C15.5843 8.61947 15.4163 8.45146 15.211 8.45146ZM14.1282 14.9109H9.70367C9.49831 14.9109 9.33029 15.0789 9.33029 15.2842C9.33029 15.4896 9.49831 15.6576 9.70367 15.6576H14.1282C14.3335 15.6576 14.5015 15.4896 14.5015 15.2842C14.5015 15.0789 14.3335 14.9109 14.1282 14.9109ZM11.9066 16.7964H9.70367C9.51698 16.7964 9.36763 16.9271 9.33029 17.0951V17.1698C9.33029 17.3005 9.40497 17.4125 9.49831 17.4872C9.55432 17.5245 9.62899 17.5432 9.70367 17.5432H11.9253C12.1306 17.5432 12.28 17.3751 12.28 17.1698C12.28 16.9644 12.1119 16.7964 11.9066 16.7964ZM16.5925 13.0066H12.7093C12.504 13.0066 12.336 13.1747 12.336 13.38C12.336 13.5854 12.504 13.7534 12.7093 13.7534H16.5925C16.7978 13.7534 16.9658 13.5854 16.9658 13.38C16.9658 13.1747 16.7978 13.0066 16.5925 13.0066ZM16.5925 16.7964H13.4188C13.2134 16.7964 13.0454 16.9644 13.0454 17.1698C13.0454 17.3751 13.2134 17.5432 13.4188 17.5432H16.5925C16.7978 17.5432 16.9658 17.3751 16.9658 17.1698C16.9658 16.9644 16.7978 16.7964 16.5925 16.7964ZM16.5925 14.9109H15.6217C15.4163 14.9109 15.2483 15.0789 15.2483 15.2842C15.2483 15.4896 15.4163 15.6576 15.6217 15.6576H16.5925C16.7978 15.6576 16.9658 15.4896 16.9658 15.2842C16.9658 15.0789 16.7978 14.9109 16.5925 14.9109ZM16.5925 14.9109H15.6217C15.4163 14.9109 15.2483 15.0789 15.2483 15.2842C15.2483 15.4896 15.4163 15.6576 15.6217 15.6576H16.5925C16.7978 15.6576 16.9658 15.4896 16.9658 15.2842C16.9658 15.0789 16.7978 14.9109 16.5925 14.9109ZM16.5925 16.7964H13.4188C13.2134 16.7964 13.0454 16.9644 13.0454 17.1698C13.0454 17.3751 13.2134 17.5432 13.4188 17.5432H16.5925C16.7978 17.5432 16.9658 17.3751 16.9658 17.1698C16.9658 16.9644 16.7978 16.7964 16.5925 16.7964ZM16.5925 13.0066H12.7093C12.504 13.0066 12.336 13.1747 12.336 13.38C12.336 13.5854 12.504 13.7534 12.7093 13.7534H16.5925C16.7978 13.7534 16.9658 13.5854 16.9658 13.38C16.9658 13.1747 16.7978 13.0066 16.5925 13.0066ZM11.9066 16.7964H9.70367C9.51698 16.7964 9.36763 16.9271 9.33029 17.0951V17.1698C9.33029 17.3005 9.40497 17.4125 9.49831 17.4872C9.55432 17.5245 9.62899 17.5432 9.70367 17.5432H11.9253C12.1306 17.5432 12.28 17.3751 12.28 17.1698C12.28 16.9644 12.1119 16.7964 11.9066 16.7964ZM14.1282 14.9109H9.70367C9.49831 14.9109 9.33029 15.0789 9.33029 15.2842C9.33029 15.4896 9.49831 15.6576 9.70367 15.6576H14.1282C14.3335 15.6576 14.5015 15.4896 14.5015 15.2842C14.5015 15.0789 14.3335 14.9109 14.1282 14.9109ZM11.2158 13.0066H9.70367C9.49831 13.0066 9.33029 13.1747 9.33029 13.38C9.33029 13.4547 9.34896 13.5294 9.40497 13.604C9.46097 13.6974 9.57298 13.7534 9.70367 13.7534H11.2158C11.4212 13.7534 11.5892 13.5854 11.5892 13.38C11.5892 13.1747 11.4212 13.0066 11.2158 13.0066ZM7.53809 8.80616V14.3321C7.66877 14.3321 7.78078 14.3321 7.91146 14.3135V8.82483C7.78078 8.82483 7.66877 8.80616 7.53809 8.80616ZM11.2158 13.0066H9.70367C9.49831 13.0066 9.33029 13.1747 9.33029 13.38C9.33029 13.4547 9.34896 13.5294 9.40497 13.604C9.46097 13.6974 9.57298 13.7534 9.70367 13.7534H11.2158C11.4212 13.7534 11.5892 13.5854 11.5892 13.38C11.5892 13.1747 11.4212 13.0066 11.2158 13.0066ZM15.211 8.45146H14.8563V8.05941C14.8563 7.12597 14.0908 6.36055 13.1574 6.36055C12.4106 6.36055 11.7946 6.82727 11.5519 7.48068L12.0373 7.96607H12.2053C12.2613 7.49935 12.672 7.12597 13.1574 7.12597C13.6801 7.12597 14.1095 7.55535 14.1095 8.07808V8.45146H12.9147C13.064 8.78749 13.1387 9.01152 13.2321 9.19821H14.8189V11.1024H11.4585V9.19821H12.8214L12.5973 8.67548L11.9439 8.71282C11.8319 8.71282 11.7386 8.67548 11.6639 8.60081L11.5145 8.45146L11.4585 8.39545V8.45146H11.1038C10.8985 8.45146 10.7304 8.61947 10.7304 8.82483V11.4758C10.7304 11.6625 10.8611 11.8118 11.0478 11.8492H11.1038H15.211C15.4163 11.8492 15.5843 11.6812 15.5843 11.4758V8.82483C15.5843 8.61947 15.4163 8.45146 15.211 8.45146ZM14.1282 14.9109H9.70367C9.49831 14.9109 9.33029 15.0789 9.33029 15.2842C9.33029 15.4896 9.49831 15.6576 9.70367 15.6576H14.1282C14.3335 15.6576 14.5015 15.4896 14.5015 15.2842C14.5015 15.0789 14.3335 14.9109 14.1282 14.9109ZM11.9066 16.7964H9.70367C9.51698 16.7964 9.36763 16.9271 9.33029 17.0951V17.1698C9.33029 17.3005 9.40497 17.4125 9.49831 17.4872C9.55432 17.5245 9.62899 17.5432 9.70367 17.5432H11.9253C12.1306 17.5432 12.28 17.3751 12.28 17.1698C12.28 16.9644 12.1119 16.7964 11.9066 16.7964ZM16.5925 13.0066H12.7093C12.504 13.0066 12.336 13.1747 12.336 13.38C12.336 13.5854 12.504 13.7534 12.7093 13.7534H16.5925C16.7978 13.7534 16.9658 13.5854 16.9658 13.38C16.9658 13.1747 16.7978 13.0066 16.5925 13.0066ZM16.5925 16.7964H13.4188C13.2134 16.7964 13.0454 16.9644 13.0454 17.1698C13.0454 17.3751 13.2134 17.5432 13.4188 17.5432H16.5925C16.7978 17.5432 16.9658 17.3751 16.9658 17.1698C16.9658 16.9644 16.7978 16.7964 16.5925 16.7964ZM16.5925 14.9109H15.6217C15.4163 14.9109 15.2483 15.0789 15.2483 15.2842C15.2483 15.4896 15.4163 15.6576 15.6217 15.6576H16.5925C16.7978 15.6576 16.9658 15.4896 16.9658 15.2842C16.9658 15.0789 16.7978 14.9109 16.5925 14.9109ZM16.5925 14.9109H15.6217C15.4163 14.9109 15.2483 15.0789 15.2483 15.2842C15.2483 15.4896 15.4163 15.6576 15.6217 15.6576H16.5925C16.7978 15.6576 16.9658 15.4896 16.9658 15.2842C16.9658 15.0789 16.7978 14.9109 16.5925 14.9109ZM16.5925 16.7964H13.4188C13.2134 16.7964 13.0454 16.9644 13.0454 17.1698C13.0454 17.3751 13.2134 17.5432 13.4188 17.5432H16.5925C16.7978 17.5432 16.9658 17.3751 16.9658 17.1698C16.9658 16.9644 16.7978 16.7964 16.5925 16.7964ZM16.5925 13.0066H12.7093C12.504 13.0066 12.336 13.1747 12.336 13.38C12.336 13.5854 12.504 13.7534 12.7093 13.7534H16.5925C16.7978 13.7534 16.9658 13.5854 16.9658 13.38C16.9658 13.1747 16.7978 13.0066 16.5925 13.0066ZM11.9066 16.7964H9.70367C9.51698 16.7964 9.36763 16.9271 9.33029 17.0951V17.1698C9.33029 17.3005 9.40497 17.4125 9.49831 17.4872C9.55432 17.5245 9.62899 17.5432 9.70367 17.5432H11.9253C12.1306 17.5432 12.28 17.3751 12.28 17.1698C12.28 16.9644 12.1119 16.7964 11.9066 16.7964ZM14.1282 14.9109H9.70367C9.49831 14.9109 9.33029 15.0789 9.33029 15.2842C9.33029 15.4896 9.49831 15.6576 9.70367 15.6576H14.1282C14.3335 15.6576 14.5015 15.4896 14.5015 15.2842C14.5015 15.0789 14.3335 14.9109 14.1282 14.9109ZM11.2158 13.0066H9.70367C9.49831 13.0066 9.33029 13.1747 9.33029 13.38C9.33029 13.4547 9.34896 13.5294 9.40497 13.604C9.46097 13.6974 9.57298 13.7534 9.70367 13.7534H11.2158C11.4212 13.7534 11.5892 13.5854 11.5892 13.38C11.5892 13.1747 11.4212 13.0066 11.2158 13.0066ZM7.53809 8.80616V14.3321C7.66877 14.3321 7.78078 14.3321 7.91146 14.3135V8.82483C7.78078 8.82483 7.66877 8.80616 7.53809 8.80616ZM11.2158 13.0066H9.70367C9.49831 13.0066 9.33029 13.1747 9.33029 13.38C9.33029 13.4547 9.34896 13.5294 9.40497 13.604C9.46097 13.6974 9.57298 13.7534 9.70367 13.7534H11.2158C11.4212 13.7534 11.5892 13.5854 11.5892 13.38C11.5892 13.1747 11.4212 13.0066 11.2158 13.0066ZM15.211 8.45146H14.8563V8.05941C14.8563 7.12597 14.0908 6.36055 13.1574 6.36055C12.4106 6.36055 11.7946 6.82727 11.5519 7.48068L12.0373 7.96607H12.2053C12.2613 7.49935 12.672 7.12597 13.1574 7.12597C13.6801 7.12597 14.1095 7.55535 14.1095 8.07808V8.45146H12.9147C13.064 8.78749 13.1387 9.01152 13.2321 9.19821H14.8189V11.1024H11.4585V9.19821H12.8214L12.5973 8.67548L11.9439 8.71282C11.8319 8.71282 11.7386 8.67548 11.6639 8.60081L11.5145 8.45146L11.4585 8.39545V8.45146H11.1038C10.8985 8.45146 10.7304 8.61947 10.7304 8.82483V11.4758C10.7304 11.6625 10.8611 11.8118 11.0478 11.8492H11.1038H15.211C15.4163 11.8492 15.5843 11.6812 15.5843 11.4758V8.82483C15.5843 8.61947 15.4163 8.45146 15.211 8.45146ZM14.1282 14.9109H9.70367C9.49831 14.9109 9.33029 15.0789 9.33029 15.2842C9.33029 15.4896 9.49831 15.6576 9.70367 15.6576H14.1282C14.3335 15.6576 14.5015 15.4896 14.5015 15.2842C14.5015 15.0789 14.3335 14.9109 14.1282 14.9109ZM11.9066 16.7964H9.70367C9.51698 16.7964 9.36763 16.9271 9.33029 17.0951V17.1698C9.33029 17.3005 9.40497 17.4125 9.49831 17.4872C9.55432 17.5245 9.62899 17.5432 9.70367 17.5432H11.9253C12.1306 17.5432 12.28 17.3751 12.28 17.1698C12.28 16.9644 12.1119 16.7964 11.9066 16.7964ZM16.5925 13.0066H12.7093C12.504 13.0066 12.336 13.1747 12.336 13.38C12.336 13.5854 12.504 13.7534 12.7093 13.7534H16.5925C16.7978 13.7534 16.9658 13.5854 16.9658 13.38C16.9658 13.1747 16.7978 13.0066 16.5925 13.0066ZM16.5925 16.7964H13.4188C13.2134 16.7964 13.0454 16.9644 13.0454 17.1698C13.0454 17.3751 13.2134 17.5432 13.4188 17.5432H16.5925C16.7978 17.5432 16.9658 17.3751 16.9658 17.1698C16.9658 16.9644 16.7978 16.7964 16.5925 16.7964ZM16.5925 14.9109H15.6217C15.4163 14.9109 15.2483 15.0789 15.2483 15.2842C15.2483 15.4896 15.4163 15.6576 15.6217 15.6576H16.5925C16.7978 15.6576 16.9658 15.4896 16.9658 15.2842C16.9658 15.0789 16.7978 14.9109 16.5925 14.9109ZM16.5925 14.9109H15.6217C15.4163 14.9109 15.2483 15.0789 15.2483 15.2842C15.2483 15.4896 15.4163 15.6576 15.6217 15.6576H16.5925C16.7978 15.6576 16.9658 15.4896 16.9658 15.2842C16.9658 15.0789 16.7978 14.9109 16.5925 14.9109ZM16.5925 16.7964H13.4188C13.2134 16.7964 13.0454 16.9644 13.0454 17.1698C13.0454 17.3751 13.2134 17.5432 13.4188 17.5432H16.5925C16.7978 17.5432 16.9658 17.3751 16.9658 17.1698C16.9658 16.9644 16.7978 16.7964 16.5925 16.7964ZM16.5925 13.0066H12.7093C12.504 13.0066 12.336 13.1747 12.336 13.38C12.336 13.5854 12.504 13.7534 12.7093 13.7534H16.5925C16.7978 13.7534 16.9658 13.5854 16.9658 13.38C16.9658 13.1747 16.7978 13.0066 16.5925 13.0066ZM11.9066 16.7964H9.70367C9.51698 16.7964 9.36763 16.9271 9.33029 17.0951V17.1698C9.33029 17.3005 9.40497 17.4125 9.49831 17.4872C9.55432 17.5245 9.62899 17.5432 9.70367 17.5432H11.9253C12.1306 17.5432 12.28 17.3751 12.28 17.1698C12.28 16.9644 12.1119 16.7964 11.9066 16.7964ZM14.1282 14.9109H9.70367C9.49831 14.9109 9.33029 15.0789 9.33029 15.2842C9.33029 15.4896 9.49831 15.6576 9.70367 15.6576H14.1282C14.3335 15.6576 14.5015 15.4896 14.5015 15.2842C14.5015 15.0789 14.3335 14.9109 14.1282 14.9109ZM11.2158 13.0066H9.70367C9.49831 13.0066 9.33029 13.1747 9.33029 13.38C9.33029 13.4547 9.34896 13.5294 9.40497 13.604C9.46097 13.6974 9.57298 13.7534 9.70367 13.7534H11.2158C11.4212 13.7534 11.5892 13.5854 11.5892 13.38C11.5892 13.1747 11.4212 13.0066 11.2158 13.0066ZM7.53809 8.80616V14.3321C7.66877 14.3321 7.78078 14.3321 7.91146 14.3135V8.82483C7.78078 8.82483 7.66877 8.80616 7.53809 8.80616ZM11.2158 13.0066H9.70367C9.49831 13.0066 9.33029 13.1747 9.33029 13.38C9.33029 13.4547 9.34896 13.5294 9.40497 13.604C9.46097 13.6974 9.57298 13.7534 9.70367 13.7534H11.2158C11.4212 13.7534 11.5892 13.5854 11.5892 13.38C11.5892 13.1747 11.4212 13.0066 11.2158 13.0066ZM15.211 8.45146H14.8563V8.05941C14.8563 7.12597 14.0908 6.36055 13.1574 6.36055C12.4106 6.36055 11.7946 6.82727 11.5519 7.48068L12.0373 7.96607H12.2053C12.2613 7.49935 12.672 7.12597 13.1574 7.12597C13.6801 7.12597 14.1095 7.55535 14.1095 8.07808V8.45146H12.9147C13.064 8.78749 13.1387 9.01152 13.2321 9.19821H14.8189V11.1024H11.4585V9.19821H12.8214L12.5973 8.67548L11.9439 8.71282C11.8319 8.71282 11.7386 8.67548 11.6639 8.60081L11.5145 8.45146L11.4585 8.39545V8.45146H11.1038C10.8985 8.45146 10.7304 8.61947 10.7304 8.82483V11.4758C10.7304 11.6625 10.8611 11.8118 11.0478 11.8492H11.1038H15.211C15.4163 11.8492 15.5843 11.6812 15.5843 11.4758V8.82483C15.5843 8.61947 15.4163 8.45146 15.211 8.45146ZM14.1282 14.9109H9.70367C9.49831 14.9109 9.33029 15.0789 9.33029 15.2842C9.33029 15.4896 9.49831 15.6576 9.70367 15.6576H14.1282C14.3335 15.6576 14.5015 15.4896 14.5015 15.2842C14.5015 15.0789 14.3335 14.9109 14.1282 14.9109ZM11.9066 16.7964H9.70367C9.51698 16.7964 9.36763 16.9271 9.33029 17.0951V17.1698C9.33029 17.3005 9.40497 17.4125 9.49831 17.4872C9.55432 17.5245 9.62899 17.5432 9.70367 17.5432H11.9253C12.1306 17.5432 12.28 17.3751 12.28 17.1698C12.28 16.9644 12.1119 16.7964 11.9066 16.7964ZM16.5925 13.0066H12.7093C12.504 13.0066 12.336 13.1747 12.336 13.38C12.336 13.5854 12.504 13.7534 12.7093 13.7534H16.5925C16.7978 13.7534 16.9658 13.5854 16.9658 13.38C16.9658 13.1747 16.7978 13.0066 16.5925 13.0066ZM16.5925 16.7964H13.4188C13.2134 16.7964 13.0454 16.9644 13.0454 17.1698C13.0454 17.3751 13.2134 17.5432 13.4188 17.5432H16.5925C16.7978 17.5432 16.9658 17.3751 16.9658 17.1698C16.9658 16.9644 16.7978 16.7964 16.5925 16.7964ZM16.5925 14.9109H15.6217C15.4163 14.9109 15.2483 15.0789 15.2483 15.2842C15.2483 15.4896 15.4163 15.6576 15.6217 15.6576H16.5925C16.7978 15.6576 16.9658 15.4896 16.9658 15.2842C16.9658 15.0789 16.7978 14.9109 16.5925 14.9109ZM16.5925 14.9109H15.6217C15.4163 14.9109 15.2483 15.0789 15.2483 15.2842C15.2483 15.4896 15.4163 15.6576 15.6217 15.6576H16.5925C16.7978 15.6576 16.9658 15.4896 16.9658 15.2842C16.9658 15.0789 16.7978 14.9109 16.5925 14.9109ZM16.5925 16.7964H13.4188C13.2134 16.7964 13.0454 16.9644 13.0454 17.1698C13.0454 17.3751 13.2134 17.5432 13.4188 17.5432H16.5925C16.7978 17.5432 16.9658 17.3751 16.9658 17.1698C16.9658 16.9644 16.7978 16.7964 16.5925 16.7964ZM16.5925 13.0066H12.7093C12.504 13.0066 12.336 13.1747 12.336 13.38C12.336 13.5854 12.504 13.7534 12.7093 13.7534H16.5925C16.7978 13.7534 16.9658 13.5854 16.9658 13.38C16.9658 13.1747 16.7978 13.0066 16.5925 13.0066ZM11.9066 16.7964H9.70367C9.51698 16.7964 9.36763 16.9271 9.33029 17.0951V17.1698C9.33029 17.3005 9.40497 17.4125 9.49831 17.4872C9.55432 17.5245 9.62899 17.5432 9.70367 17.5432H11.9253C12.1306 17.5432 12.28 17.3751 12.28 17.1698C12.28 16.9644 12.1119 16.7964 11.9066 16.7964ZM14.1282 14.9109H9.70367C9.49831 14.9109 9.33029 15.0789 9.33029 15.2842C9.33029 15.4896 9.49831 15.6576 9.70367 15.6576H14.1282C14.3335 15.6576 14.5015 15.4896 14.5015 15.2842C14.5015 15.0789 14.3335 14.9109 14.1282 14.9109ZM11.2158 13.0066H9.70367C9.49831 13.0066 9.33029 13.1747 9.33029 13.38C9.33029 13.4547 9.34896 13.5294 9.40497 13.604C9.46097 13.6974 9.57298 13.7534 9.70367 13.7534H11.2158C11.4212 13.7534 11.5892 13.5854 11.5892 13.38C11.5892 13.1747 11.4212 13.0066 11.2158 13.0066ZM7.53809 8.80616V14.3321C7.66877 14.3321 7.78078 14.3321 7.91146 14.3135V8.82483C7.78078 8.82483 7.66877 8.80616 7.53809 8.80616ZM9.70367 16.7964C9.51698 16.7964 9.36763 16.9271 9.33029 17.0951L10.0397 16.7964H9.70367ZM11.2158 13.0066H9.70367C9.49831 13.0066 9.33029 13.1747 9.33029 13.38C9.33029 13.4547 9.34896 13.5294 9.40497 13.604C9.46097 13.6974 9.57298 13.7534 9.70367 13.7534H11.2158C11.4212 13.7534 11.5892 13.5854 11.5892 13.38C11.5892 13.1747 11.4212 13.0066 11.2158 13.0066ZM15.211 8.45146H14.8563V8.05941C14.8563 7.12597 14.0908 6.36055 13.1574 6.36055C12.4106 6.36055 11.7946 6.82727 11.5519 7.48068L12.0373 7.96607H12.2053C12.2613 7.49935 12.672 7.12597 13.1574 7.12597C13.6801 7.12597 14.1095 7.55535 14.1095 8.07808V8.45146H12.9147C13.064 8.78749 13.1387 9.01152 13.2321 9.19821H14.8189V11.1024H11.4585V9.19821H12.8214L12.5973 8.67548L11.9439 8.71282C11.8319 8.71282 11.7386 8.67548 11.6639 8.60081L11.5145 8.45146L11.4585 8.39545V8.45146H11.1038C10.8985 8.45146 10.7304 8.61947 10.7304 8.82483V11.4758C10.7304 11.6625 10.8611 11.8118 11.0478 11.8492H11.1038H15.211C15.4163 11.8492 15.5843 11.6812 15.5843 11.4758V8.82483C15.5843 8.61947 15.4163 8.45146 15.211 8.45146ZM14.1282 14.9109H9.70367C9.49831 14.9109 9.33029 15.0789 9.33029 15.2842C9.33029 15.4896 9.49831 15.6576 9.70367 15.6576H14.1282C14.3335 15.6576 14.5015 15.4896 14.5015 15.2842C14.5015 15.0789 14.3335 14.9109 14.1282 14.9109ZM11.9066 16.7964H11.1785V16.8524C11.1785 17.0018 11.0852 17.1511 10.9545 17.2071L10.1517 17.5432H11.9253C12.1306 17.5432 12.28 17.3751 12.28 17.1698C12.28 16.9644 12.1119 16.7964 11.9066 16.7964ZM16.5925 13.0066H12.7093C12.504 13.0066 12.336 13.1747 12.336 13.38C12.336 13.5854 12.504 13.7534 12.7093 13.7534H16.5925C16.7978 13.7534 16.9658 13.5854 16.9658 13.38C16.9658 13.1747 16.7978 13.0066 16.5925 13.0066ZM16.5925 16.7964H13.4188C13.2134 16.7964 13.0454 16.9644 13.0454 17.1698C13.0454 17.3751 13.2134 17.5432 13.4188 17.5432H16.5925C16.7978 17.5432 16.9658 17.3751 16.9658 17.1698C16.9658 16.9644 16.7978 16.7964 16.5925 16.7964ZM16.5925 14.9109H15.6217C15.4163 14.9109 15.2483 15.0789 15.2483 15.2842C15.2483 15.4896 15.4163 15.6576 15.6217 15.6576H16.5925C16.7978 15.6576 16.9658 15.4896 16.9658 15.2842C16.9658 15.0789 16.7978 14.9109 16.5925 14.9109ZM16.5925 14.9109H15.6217C15.4163 14.9109 15.2483 15.0789 15.2483 15.2842C15.2483 15.4896 15.4163 15.6576 15.6217 15.6576H16.5925C16.7978 15.6576 16.9658 15.4896 16.9658 15.2842C16.9658 15.0789 16.7978 14.9109 16.5925 14.9109ZM16.5925 16.7964H13.4188C13.2134 16.7964 13.0454 16.9644 13.0454 17.1698C13.0454 17.3751 13.2134 17.5432 13.4188 17.5432H16.5925C16.7978 17.5432 16.9658 17.3751 16.9658 17.1698C16.9658 16.9644 16.7978 16.7964 16.5925 16.7964ZM14.1282 14.9109H9.70367C9.49831 14.9109 9.33029 15.0789 9.33029 15.2842C9.33029 15.4896 9.49831 15.6576 9.70367 15.6576H14.1282C14.3335 15.6576 14.5015 15.4896 14.5015 15.2842C14.5015 15.0789 14.3335 14.9109 14.1282 14.9109ZM16.5925 13.0066H12.7093C12.504 13.0066 12.336 13.1747 12.336 13.38C12.336 13.5854 12.504 13.7534 12.7093 13.7534H16.5925C16.7978 13.7534 16.9658 13.5854 16.9658 13.38C16.9658 13.1747 16.7978 13.0066 16.5925 13.0066ZM11.2158 13.0066H9.70367C9.49831 13.0066 9.33029 13.1747 9.33029 13.38C9.33029 13.4547 9.34896 13.5294 9.40497 13.604C9.46097 13.6974 9.57298 13.7534 9.70367 13.7534H11.2158C11.4212 13.7534 11.5892 13.5854 11.5892 13.38C11.5892 13.1747 11.4212 13.0066 11.2158 13.0066ZM7.53809 8.80616V14.3321C7.66877 14.3321 7.78078 14.3321 7.91146 14.3135V8.82483C7.78078 8.82483 7.66877 8.80616 7.53809 8.80616ZM9.70367 16.7964C9.51698 16.7964 9.36763 16.9271 9.33029 17.0951L10.0397 16.7964H9.70367ZM11.2158 13.0066H9.70367C9.49831 13.0066 9.33029 13.1747 9.33029 13.38C9.33029 13.4547 9.34896 13.5294 9.40497 13.604C9.46097 13.6974 9.57298 13.7534 9.70367 13.7534H11.2158C11.4212 13.7534 11.5892 13.5854 11.5892 13.38C11.5892 13.1747 11.4212 13.0066 11.2158 13.0066ZM15.211 8.45146H14.8563V8.05941C14.8563 7.12597 14.0908 6.36055 13.1574 6.36055C12.4106 6.36055 11.7946 6.82727 11.5519 7.48068L12.0373 7.96607H12.2053C12.2613 7.49935 12.672 7.12597 13.1574 7.12597C13.6801 7.12597 14.1095 7.55535 14.1095 8.07808V8.45146H12.9147C13.064 8.78749 13.1387 9.01152 13.2321 9.19821H14.8189V11.1024H11.4585V9.19821H12.8214L12.5973 8.67548L11.9439 8.71282C11.8319 8.71282 11.7386 8.67548 11.6639 8.60081L11.5145 8.45146L11.4585 8.39545V8.45146H11.1038C10.8985 8.45146 10.7304 8.61947 10.7304 8.82483V11.4758C10.7304 11.6625 10.8611 11.8118 11.0478 11.8492H11.1038H15.211C15.4163 11.8492 15.5843 11.6812 15.5843 11.4758V8.82483C15.5843 8.61947 15.4163 8.45146 15.211 8.45146ZM14.1282 14.9109H9.70367C9.49831 14.9109 9.33029 15.0789 9.33029 15.2842C9.33029 15.4896 9.49831 15.6576 9.70367 15.6576H14.1282C14.3335 15.6576 14.5015 15.4896 14.5015 15.2842C14.5015 15.0789 14.3335 14.9109 14.1282 14.9109ZM11.9066 16.7964H11.1785V16.8524C11.1785 17.0018 11.0852 17.1511 10.9545 17.2071L10.1517 17.5432H11.9253C12.1306 17.5432 12.28 17.3751 12.28 17.1698C12.28 16.9644 12.1119 16.7964 11.9066 16.7964ZM16.5925 13.0066H12.7093C12.504 13.0066 12.336 13.1747 12.336 13.38C12.336 13.5854 12.504 13.7534 12.7093 13.7534H16.5925C16.7978 13.7534 16.9658 13.5854 16.9658 13.38C16.9658 13.1747 16.7978 13.0066 16.5925 13.0066ZM16.5925 16.7964H13.4188C13.2134 16.7964 13.0454 16.9644 13.0454 17.1698C13.0454 17.3751 13.2134 17.5432 13.4188 17.5432H16.5925C16.7978 17.5432 16.9658 17.3751 16.9658 17.1698C16.9658 16.9644 16.7978 16.7964 16.5925 16.7964ZM16.5925 14.9109H15.6217C15.4163 14.9109 15.2483 15.0789 15.2483 15.2842C15.2483 15.4896 15.4163 15.6576 15.6217 15.6576H16.5925C16.7978 15.6576 16.9658 15.4896 16.9658 15.2842C16.9658 15.0789 16.7978 14.9109 16.5925 14.9109ZM16.5925 14.9109H15.6217C15.4163 14.9109 15.2483 15.0789 15.2483 15.2842C15.2483 15.4896 15.4163 15.6576 15.6217 15.6576H16.5925C16.7978 15.6576 16.9658 15.4896 16.9658 15.2842C16.9658 15.0789 16.7978 14.9109 16.5925 14.9109ZM16.5925 16.7964H13.4188C13.2134 16.7964 13.0454 16.9644 13.0454 17.1698C13.0454 17.3751 13.2134 17.5432 13.4188 17.5432H16.5925C16.7978 17.5432 16.9658 17.3751 16.9658 17.1698C16.9658 16.9644 16.7978 16.7964 16.5925 16.7964ZM16.5925 13.0066H12.7093C12.504 13.0066 12.336 13.1747 12.336 13.38C12.336 13.5854 12.504 13.7534 12.7093 13.7534H16.5925C16.7978 13.7534 16.9658 13.5854 16.9658 13.38C16.9658 13.1747 16.7978 13.0066 16.5925 13.0066ZM11.2158 13.0066H9.70367C9.49831 13.0066 9.33029 13.1747 9.33029 13.38C9.33029 13.4547 9.34896 13.5294 9.40497 13.604C9.46097 13.6974 9.57298 13.7534 9.70367 13.7534H11.2158C11.4212 13.7534 11.5892 13.5854 11.5892 13.38C11.5892 13.1747 11.4212 13.0066 11.2158 13.0066ZM7.53809 8.80616V14.3321C7.66877 14.3321 7.78078 14.3321 7.91146 14.3135V8.82483C7.78078 8.82483 7.66877 8.80616 7.53809 8.80616ZM9.70367 16.7964C9.51698 16.7964 9.36763 16.9271 9.33029 17.0951L10.0397 16.7964H9.70367ZM11.2158 13.0066H9.70367C9.49831 13.0066 9.33029 13.1747 9.33029 13.38C9.33029 13.4547 9.34896 13.5294 9.40497 13.604C9.46097 13.6974 9.57298 13.7534 9.70367 13.7534H11.2158C11.4212 13.7534 11.5892 13.5854 11.5892 13.38C11.5892 13.1747 11.4212 13.0066 11.2158 13.0066ZM15.211 8.45146H14.8563V8.05941C14.8563 7.12597 14.0908 6.36055 13.1574 6.36055C12.4106 6.36055 11.7946 6.82727 11.5519 7.48068L12.0373 7.96607H12.2053C12.2613 7.49935 12.672 7.12597 13.1574 7.12597C13.6801 7.12597 14.1095 7.55535 14.1095 8.07808V8.45146H12.9147C13.064 8.78749 13.1387 9.01152 13.2321 9.19821H14.8189V11.1024H11.4585V9.19821H12.8214L12.5973 8.67548L11.9439 8.71282C11.8319 8.71282 11.7386 8.67548 11.6639 8.60081L11.5145 8.45146L11.4585 8.39545V8.45146H11.1038C10.8985 8.45146 10.7304 8.61947 10.7304 8.82483V11.4758C10.7304 11.6625 10.8611 11.8118 11.0478 11.8492H11.1038H15.211C15.4163 11.8492 15.5843 11.6812 15.5843 11.4758V8.82483C15.5843 8.61947 15.4163 8.45146 15.211 8.45146ZM14.1282 14.9109H9.70367C9.49831 14.9109 9.33029 15.0789 9.33029 15.2842C9.33029 15.4896 9.49831 15.6576 9.70367 15.6576H14.1282C14.3335 15.6576 14.5015 15.4896 14.5015 15.2842C14.5015 15.0789 14.3335 14.9109 14.1282 14.9109ZM11.9066 16.7964H11.1785V16.8524C11.1785 17.0018 11.0852 17.1511 10.9545 17.2071L10.1517 17.5432H11.9253C12.1306 17.5432 12.28 17.3751 12.28 17.1698C12.28 16.9644 12.1119 16.7964 11.9066 16.7964ZM16.5925 13.0066H12.7093C12.504 13.0066 12.336 13.1747 12.336 13.38C12.336 13.5854 12.504 13.7534 12.7093 13.7534H16.5925C16.7978 13.7534 16.9658 13.5854 16.9658 13.38C16.9658 13.1747 16.7978 13.0066 16.5925 13.0066ZM16.5925 16.7964H13.4188C13.2134 16.7964 13.0454 16.9644 13.0454 17.1698C13.0454 17.3751 13.2134 17.5432 13.4188 17.5432H16.5925C16.7978 17.5432 16.9658 17.3751 16.9658 17.1698C16.9658 16.9644 16.7978 16.7964 16.5925 16.7964ZM16.5925 14.9109H15.6217C15.4163 14.9109 15.2483 15.0789 15.2483 15.2842C15.2483 15.4896 15.4163 15.6576 15.6217 15.6576H16.5925C16.7978 15.6576 16.9658 15.4896 16.9658 15.2842C16.9658 15.0789 16.7978 14.9109 16.5925 14.9109ZM16.5925 14.9109H15.6217C15.4163 14.9109 15.2483 15.0789 15.2483 15.2842C15.2483 15.4896 15.4163 15.6576 15.6217 15.6576H16.5925C16.7978 15.6576 16.9658 15.4896 16.9658 15.2842C16.9658 15.0789 16.7978 14.9109 16.5925 14.9109ZM16.5925 16.7964H13.4188C13.2134 16.7964 13.0454 16.9644 13.0454 17.1698C13.0454 17.3751 13.2134 17.5432 13.4188 17.5432H16.5925C16.7978 17.5432 16.9658 17.3751 16.9658 17.1698C16.9658 16.9644 16.7978 16.7964 16.5925 16.7964ZM16.5925 13.0066H12.7093C12.504 13.0066 12.336 13.1747 12.336 13.38C12.336 13.5854 12.504 13.7534 12.7093 13.7534H16.5925C16.7978 13.7534 16.9658 13.5854 16.9658 13.38C16.9658 13.1747 16.7978 13.0066 16.5925 13.0066ZM11.2158 13.0066H9.70367C9.49831 13.0066 9.33029 13.1747 9.33029 13.38C9.33029 13.4547 9.34896 13.5294 9.40497 13.604C9.46097 13.6974 9.57298 13.7534 9.70367 13.7534H11.2158C11.4212 13.7534 11.5892 13.5854 11.5892 13.38C11.5892 13.1747 11.4212 13.0066 11.2158 13.0066Z" fill="white"/>
<path d="M7.53841 8.806V14.332C7.6691 14.332 7.78111 14.332 7.91179 14.3133V8.82467C7.78111 8.82467 7.6691 8.806 7.53841 8.806ZM7.53841 8.806V14.332C7.6691 14.332 7.78111 14.332 7.91179 14.3133V8.82467C7.78111 8.82467 7.6691 8.806 7.53841 8.806ZM7.53841 8.806V14.332C7.6691 14.332 7.78111 14.332 7.91179 14.3133V8.82467C7.78111 8.82467 7.6691 8.806 7.53841 8.806ZM7.53841 8.806V14.332C7.6691 14.332 7.78111 14.332 7.91179 14.3133V8.82467C7.78111 8.82467 7.6691 8.806 7.53841 8.806ZM7.53841 8.806V14.332C7.6691 14.332 7.78111 14.332 7.91179 14.3133V8.82467C7.78111 8.82467 7.6691 8.806 7.53841 8.806ZM7.53841 8.806V14.332C7.6691 14.332 7.78111 14.332 7.91179 14.3133V8.82467C7.78111 8.82467 7.6691 8.806 7.53841 8.806ZM7.53841 8.806V14.332C7.6691 14.332 7.78111 14.332 7.91179 14.3133V8.82467C7.78111 8.82467 7.6691 8.806 7.53841 8.806ZM7.53841 8.806V14.332C7.6691 14.332 7.78111 14.332 7.91179 14.3133V8.82467C7.78111 8.82467 7.6691 8.806 7.53841 8.806ZM7.53841 8.806V14.332C7.6691 14.332 7.78111 14.332 7.91179 14.3133V8.82467C7.78111 8.82467 7.6691 8.806 7.53841 8.806ZM19.0944 7.23782C19.0944 7.21916 19.0757 7.20049 19.0571 7.20049C19.0384 7.18182 19.0197 7.16315 19.0011 7.14448L15.8834 3.98945C15.8087 3.91478 15.7153 3.87744 15.622 3.87744H7.53841C7.33306 3.87744 7.16504 4.04546 7.16504 4.25082V19.2979C7.16504 19.5032 7.33306 19.6712 7.53841 19.6712H18.7584C18.9637 19.6712 19.1317 19.5032 19.1317 19.2979V7.38717C19.1317 7.33117 19.1131 7.27516 19.0944 7.23782ZM18.385 18.9245H7.91179V4.62419H15.4727L15.622 4.77354L18.385 7.53652V18.9245ZM7.53841 8.806V14.332C7.6691 14.332 7.78111 14.332 7.91179 14.3133V8.82467C7.78111 8.82467 7.6691 8.806 7.53841 8.806ZM7.53841 8.806V14.332C7.6691 14.332 7.78111 14.332 7.91179 14.3133V8.82467C7.78111 8.82467 7.6691 8.806 7.53841 8.806ZM7.53841 8.806V14.332C7.6691 14.332 7.78111 14.332 7.91179 14.3133V8.82467C7.78111 8.82467 7.6691 8.806 7.53841 8.806ZM7.53841 8.806V14.332C7.6691 14.332 7.78111 14.332 7.91179 14.3133V8.82467C7.78111 8.82467 7.6691 8.806 7.53841 8.806ZM7.53841 8.806V14.332C7.6691 14.332 7.78111 14.332 7.91179 14.3133V8.82467C7.78111 8.82467 7.6691 8.806 7.53841 8.806ZM7.53841 8.806V14.332C7.6691 14.332 7.78111 14.332 7.91179 14.3133V8.82467C7.78111 8.82467 7.6691 8.806 7.53841 8.806ZM7.53841 8.806V14.332C7.6691 14.332 7.78111 14.332 7.91179 14.3133V8.82467C7.78111 8.82467 7.6691 8.806 7.53841 8.806ZM7.53841 8.806V14.332C7.6691 14.332 7.78111 14.332 7.91179 14.3133V8.82467C7.78111 8.82467 7.6691 8.806 7.53841 8.806Z" fill="white"/>
<path d="M15.6221 4.25098V7.38733H18.7584L15.6221 4.25098ZM15.9954 7.01396V5.14708L17.8623 7.01396H15.9954Z" fill="white"/>
<path d="M19.0948 7.23803C19.0948 7.21936 19.0761 7.20069 19.0575 7.20069C19.0388 7.18202 19.0201 7.16336 19.0015 7.14469L15.8838 3.98966C15.7717 3.89632 15.6037 3.85898 15.473 3.91499C15.3424 3.97099 15.249 4.10167 15.249 4.25102V7.38738C15.249 7.59274 15.417 7.76076 15.6224 7.76076H18.7588C18.9081 7.76076 19.0388 7.66741 19.0948 7.53673C19.1321 7.42472 19.1321 7.33138 19.0948 7.23803ZM15.9958 7.01401V5.14713L17.8627 7.01401H15.9958Z" fill="white"/>
<path d="M22.9211 19.69C22.8837 19.7274 22.8464 19.7834 22.8277 19.8394L22.473 19.69L22.3423 19.634L22.1183 19.5407C22.137 19.5033 22.137 19.4847 22.1556 19.4473L21.2409 18.5326H19.654L19.1126 18.3085L18.7393 18.1592H21.3902L22.641 19.41L22.9211 19.69Z" fill="white"/>
<path d="M23.3133 19.5596C23.276 19.5596 23.2573 19.5596 23.2387 19.5596C23.1266 19.5596 23.0146 19.5969 22.9213 19.6902C22.8839 19.7276 22.8466 19.7836 22.8279 19.8396C22.7906 19.9143 22.7906 20.0076 22.8093 20.1009L22.4732 19.7462L22.3799 19.6529L22.1932 19.4662L21.2784 18.5514H18.7581C18.5528 18.5514 18.3848 18.3834 18.3848 18.1781C18.3848 17.9727 18.5528 17.8047 18.7581 17.8047H21.4091C21.5025 17.8047 21.5958 17.842 21.6705 17.9167L22.6973 18.9435L23.3133 19.5596Z" fill="white"/>
<path d="M22.921 7.0141L22.6409 7.29413L21.3901 8.54494H18.7578L19.1312 8.39559L19.6726 8.17156H21.2594L22.1742 7.25679C22.1555 7.21945 22.1369 7.20078 22.1369 7.16345L22.3609 7.0701L22.4916 7.0141L22.8463 6.86475C22.8463 6.92075 22.8836 6.97676 22.921 7.0141Z" fill="white"/>
<path d="M23.3507 7.12601L22.9773 7.49939L22.6973 7.77942L21.6705 8.80621C21.6145 8.86221 21.5025 8.91822 21.4091 8.91822H18.7581C18.5528 8.91822 18.3848 8.7502 18.3848 8.54484C18.3848 8.33949 18.5528 8.17147 18.7581 8.17147H21.2598L22.1745 7.2567L22.3425 7.08868L22.4359 6.97666L22.7719 6.64062C22.7533 6.73397 22.7719 6.80864 22.8093 6.88332C22.8279 6.93933 22.8653 6.97666 22.9026 7.014C23.0333 7.12601 23.2013 7.16335 23.3507 7.12601Z" fill="white"/>
<path d="M20.2703 11.3263H18.7581C18.5528 11.3263 18.3848 11.1583 18.3848 10.953C18.3848 10.7476 18.5528 10.5796 18.7581 10.5796H20.2703C20.4757 10.5796 20.6437 10.7476 20.6437 10.953C20.6437 11.1583 20.4757 11.3263 20.2703 11.3263Z" fill="white"/>
<path d="M20.2703 16.1618H18.7581C18.5528 16.1618 18.3848 15.9938 18.3848 15.7884C18.3848 15.5831 18.5528 15.415 18.7581 15.415H20.2703C20.4757 15.415 20.6437 15.5831 20.6437 15.7884C20.6437 15.9938 20.4757 16.1618 20.2703 16.1618Z" fill="white"/>
<path d="M22.996 13.7536H18.7581C18.5528 13.7536 18.3848 13.5856 18.3848 13.3802C18.3848 13.1749 18.5528 13.0068 18.7581 13.0068H22.996C22.9773 13.0255 22.9586 13.0442 22.9213 13.0628C22.8279 13.1375 22.7906 13.2682 22.7906 13.3802C22.7906 13.4922 22.8279 13.6042 22.9213 13.6976C22.94 13.7162 22.9586 13.7349 22.996 13.7536Z" fill="white"/>
<path d="M23.668 13.4922C23.6866 13.4175 23.6866 13.3242 23.668 13.2495C23.6866 13.2868 23.6866 13.3242 23.6866 13.3615C23.6866 13.4175 23.668 13.4549 23.668 13.4922Z" fill="white"/>
<path d="M23.2394 5.89355C22.7913 5.89355 22.418 6.26693 22.418 6.71498C22.418 6.80833 22.4366 6.883 22.4553 6.97634C22.4553 6.99501 22.474 7.01368 22.474 7.03235C22.5113 7.1257 22.5673 7.21904 22.6607 7.31238C22.754 7.40573 22.866 7.46173 22.978 7.51774C23.0527 7.53641 23.1461 7.55508 23.2394 7.55508C23.6874 7.55508 24.0608 7.1817 24.0608 6.73365C24.0608 6.26693 23.6874 5.89355 23.2394 5.89355ZM23.5568 7.01368C23.5008 7.06969 23.4261 7.10703 23.3514 7.1257C23.2021 7.16303 23.0527 7.1257 22.9407 7.01368C22.9034 6.97634 22.866 6.92034 22.8474 6.883C22.81 6.80833 22.81 6.71498 22.81 6.64031C22.8287 6.54696 22.866 6.45362 22.922 6.39761C22.9967 6.32294 23.1274 6.26693 23.2394 6.26693C23.3701 6.26693 23.4821 6.32294 23.5568 6.39761C23.7248 6.54696 23.7248 6.84566 23.5568 7.01368Z" fill="white"/>
<path d="M24.0795 5.85617C23.8555 5.63215 23.5568 5.50146 23.2395 5.50146C22.9221 5.50146 22.6234 5.63215 22.3994 5.85617C22.0446 6.21088 21.9513 6.7336 22.138 7.16299C22.1567 7.20032 22.1567 7.21899 22.1753 7.25633C22.2313 7.36834 22.306 7.46169 22.3994 7.55503C22.4927 7.64838 22.586 7.72305 22.6981 7.77906C22.8661 7.8724 23.0528 7.90974 23.2395 7.90974C23.5568 7.90974 23.8742 7.77906 24.0795 7.55503C24.3036 7.33101 24.4343 7.01364 24.4343 6.69627C24.4343 6.39757 24.3036 6.0802 24.0795 5.85617ZM23.5568 7.01364C23.5008 7.06964 23.4261 7.10698 23.3515 7.12565C23.2021 7.16299 23.0528 7.12565 22.9408 7.01364C22.9034 6.9763 22.8661 6.92029 22.8474 6.88296C22.8101 6.80828 22.8101 6.71494 22.8101 6.64026C22.8287 6.54692 22.8661 6.45357 22.9221 6.39757C22.9968 6.32289 23.1274 6.26689 23.2395 6.26689C23.3701 6.26689 23.4821 6.32289 23.5568 6.39757C23.7248 6.54692 23.7248 6.84562 23.5568 7.01364Z" fill="white"/>
<path d="M23.2384 12.5581C22.921 12.5581 22.641 12.7448 22.5103 13.0062C22.4543 13.1182 22.417 13.2489 22.417 13.3795C22.417 13.5102 22.4543 13.6409 22.5103 13.7529C22.641 14.0143 22.921 14.201 23.2384 14.201C23.6865 14.201 24.0598 13.8276 24.0598 13.3795C24.0598 12.9315 23.6865 12.5581 23.2384 12.5581ZM23.6678 13.5102C23.6491 13.5849 23.6118 13.6409 23.5558 13.6969C23.4064 13.8463 23.1637 13.8649 22.9957 13.7529C22.9771 13.7342 22.9397 13.7156 22.9211 13.6969C22.8277 13.6036 22.7904 13.4915 22.7904 13.3795C22.7904 13.2675 22.8277 13.1555 22.9211 13.0622C22.9397 13.0435 22.9584 13.0248 22.9957 13.0062C23.0704 12.9502 23.1637 12.9315 23.2384 12.9315C23.3504 12.9315 23.4811 12.9688 23.5558 13.0622C23.5931 13.1182 23.6305 13.1742 23.6491 13.2302V13.2489C23.6865 13.3422 23.6865 13.4169 23.6678 13.5102Z" fill="white"/>
<path d="M24.0975 12.5209C23.6308 12.0542 22.8654 12.0542 22.3987 12.5209C22.2493 12.6703 22.156 12.8383 22.1 13.0063C22.0626 13.137 22.0439 13.249 22.0439 13.3797C22.0439 13.5104 22.0626 13.6411 22.1 13.7531C22.156 13.9211 22.2493 14.0891 22.38 14.2198C22.604 14.4625 22.9214 14.5745 23.2201 14.5745C23.5374 14.5745 23.8361 14.4625 24.0788 14.2198C24.3029 13.9958 24.4335 13.6784 24.4335 13.3797C24.4522 13.0623 24.3215 12.745 24.0975 12.5209ZM22.9961 13.7531C22.9774 13.7344 22.94 13.7157 22.9214 13.6971C22.828 13.6037 22.7907 13.4917 22.7907 13.3797C22.7907 13.2677 22.828 13.1557 22.9214 13.0623C22.94 13.0437 22.9587 13.025 22.9961 13.0063C23.0707 12.9503 23.1641 12.9317 23.2387 12.9317C23.3508 12.9317 23.4814 12.969 23.5561 13.0623C23.5935 13.1183 23.6308 13.1743 23.6495 13.2304V13.249C23.6681 13.3237 23.6681 13.417 23.6495 13.4917C23.6308 13.5664 23.5935 13.6224 23.5374 13.6784C23.4068 13.8464 23.1641 13.8651 22.9961 13.7531Z" fill="white"/>
<path d="M23.2384 19.1855C23.1451 19.1855 23.0704 19.2042 22.9771 19.2229C22.8464 19.2602 22.7344 19.3349 22.6597 19.4282C22.585 19.5029 22.5103 19.5963 22.473 19.7083C22.473 19.7269 22.4543 19.7456 22.4543 19.7643C22.4357 19.839 22.417 19.9323 22.417 20.0256C22.417 20.4737 22.7904 20.8471 23.2384 20.8471C23.6865 20.8471 24.0598 20.4737 24.0598 20.0256C24.0598 19.5776 23.6865 19.1855 23.2384 19.1855ZM23.5558 20.3243C23.3878 20.4924 23.0891 20.4924 22.9211 20.3243C22.865 20.2683 22.8277 20.175 22.809 20.1003C22.7904 20.007 22.809 19.9323 22.8277 19.839C22.8464 19.7829 22.8837 19.7269 22.9211 19.6896C23.0144 19.5963 23.1264 19.5589 23.2384 19.5589H23.3131C23.4064 19.5776 23.4998 19.6149 23.5558 19.6896C23.7238 19.8576 23.7238 20.1563 23.5558 20.3243Z" fill="white"/>
<path d="M24.0974 19.1483C23.724 18.775 23.1453 18.7003 22.6973 18.943C22.5852 18.999 22.4919 19.0737 22.4172 19.1483C22.3239 19.2417 22.2492 19.335 22.1932 19.447C22.1745 19.4844 22.1745 19.5031 22.1559 19.5404C21.9878 19.9698 22.0812 20.4925 22.4172 20.8285C22.6412 21.0712 22.9586 21.1832 23.2573 21.1832C23.5747 21.1832 23.8734 21.0712 24.1161 20.8285C24.3401 20.6045 24.4708 20.2871 24.4708 19.9884C24.4521 19.6897 24.3214 19.3724 24.0974 19.1483ZM23.556 20.3245C23.388 20.4925 23.0893 20.4925 22.9213 20.3245C22.8653 20.2685 22.8279 20.1751 22.8093 20.1005C22.7906 20.0071 22.8093 19.9324 22.8279 19.8391C22.8466 19.7831 22.8839 19.7271 22.9213 19.6897C23.0146 19.5964 23.1266 19.5591 23.2386 19.5591H23.3133C23.4067 19.5777 23.5 19.6151 23.556 19.6897C23.724 19.8578 23.724 20.1565 23.556 20.3245Z" fill="white"/>
<path d="M16.9668 13.3797C16.9668 13.5851 16.7988 13.7531 16.5934 13.7531H12.7103C12.5049 13.7531 12.3369 13.5851 12.3369 13.3797C12.3369 13.1744 12.5049 13.0063 12.7103 13.0063H16.5934C16.7988 13.0063 16.9668 13.1744 16.9668 13.3797Z" fill="white"/>
<path d="M11.59 13.3797C11.59 13.5851 11.422 13.7531 11.2166 13.7531H9.70443C9.57375 13.7531 9.46174 13.6971 9.40573 13.6037C9.36839 13.5477 9.33105 13.4731 9.33105 13.3797C9.33105 13.1744 9.49907 13.0063 9.70443 13.0063H11.2166C11.422 13.0063 11.59 13.1744 11.59 13.3797Z" fill="white"/>
<path d="M16.9666 15.284C16.9666 15.4894 16.7985 15.6574 16.5932 15.6574H15.6224C15.417 15.6574 15.249 15.4894 15.249 15.284C15.249 15.0787 15.417 14.9106 15.6224 14.9106H16.5932C16.7985 14.9106 16.9666 15.0787 16.9666 15.284Z" fill="white"/>
<path d="M14.5023 15.284C14.5023 15.4894 14.3343 15.6574 14.1289 15.6574H9.70443C9.49907 15.6574 9.33105 15.4894 9.33105 15.284C9.33105 15.0787 9.49907 14.9106 9.70443 14.9106H14.1289C14.3343 14.9106 14.5023 15.0787 14.5023 15.284Z" fill="white"/>
<path d="M16.9663 17.1698C16.9663 17.3751 16.7983 17.5431 16.593 17.5431H13.4193C13.2139 17.5431 13.0459 17.3751 13.0459 17.1698C13.0459 16.9644 13.2139 16.7964 13.4193 16.7964H16.593C16.7983 16.7964 16.9663 16.9644 16.9663 17.1698Z" fill="white"/>
<path d="M12.2807 17.1698C12.2807 17.3751 12.1314 17.5431 11.926 17.5431H9.70443C9.62976 17.5431 9.55508 17.5245 9.49907 17.4871C9.40573 17.4125 9.33105 17.3004 9.33105 17.1698C9.33105 17.1324 9.33105 17.1138 9.33105 17.0951C9.36839 16.9271 9.51774 16.7964 9.70443 16.7964H11.9073C12.1127 16.7964 12.2807 16.9644 12.2807 17.1698Z" fill="white"/>
<path d="M15.212 8.45117H11.1048C10.8995 8.45117 10.7314 8.61919 10.7314 8.82455V11.4755C10.7314 11.6622 10.8621 11.8116 11.0488 11.8489H11.1048H15.212C15.4173 11.8489 15.5853 11.6809 15.5853 11.4755V8.82455C15.5853 8.61919 15.4173 8.45117 15.212 8.45117ZM14.8199 11.1021H11.4595V9.19792H14.8199V11.1021Z" fill="white"/>
<path d="M13.1578 6.36035C12.4111 6.36035 11.795 6.82707 11.5523 7.48048C11.515 7.57382 11.4963 7.66717 11.4777 7.76051C11.4777 7.79785 11.459 7.81652 11.459 7.85386V7.89119V8.82463C11.459 9.02999 11.627 9.19801 11.8324 9.19801H14.4833C14.6887 9.19801 14.8567 9.02999 14.8567 8.82463V8.05921C14.8567 7.12577 14.0913 6.36035 13.1578 6.36035ZM12.2057 8.45126V8.05921C12.2057 8.02187 12.2057 7.98454 12.2057 7.96587C12.2617 7.49915 12.6725 7.12577 13.1578 7.12577C13.6806 7.12577 14.11 7.55515 14.11 8.07788V8.45126H12.2057Z" fill="white"/>
</svg>
