<svg width="25" height="25" viewBox="0 0 25 25" fill="none" xmlns="http://www.w3.org/2000/svg">
<path d="M9.53321 9.46143C8.27235 9.46143 7.03981 9.83531 5.99145 10.5358C4.94308 11.2363 4.12598 12.2319 3.64347 13.3968C3.16097 14.5617 3.03472 15.8435 3.2807 17.0801C3.52668 18.3168 4.13384 19.4527 5.0254 20.3442C5.91696 21.2358 7.05288 21.843 8.28951 22.0889C9.52613 22.3349 10.8079 22.2087 11.9728 21.7262C13.1377 21.2436 14.1333 20.4265 14.8338 19.3782C15.5343 18.3298 15.9082 17.0973 15.9082 15.8364C15.9082 14.1457 15.2366 12.5242 14.041 11.3286C12.8455 10.1331 11.224 9.46143 9.53321 9.46143ZM9.53321 21.4614C8.42069 21.4614 7.33315 21.1315 6.40812 20.5134C5.4831 19.8954 4.76213 19.0169 4.33638 17.989C3.91064 16.9612 3.79925 15.8302 4.01629 14.739C4.23333 13.6479 4.76906 12.6456 5.55573 11.859C6.3424 11.0723 7.34468 10.5366 8.43582 10.3195C9.52697 10.1025 10.658 10.2139 11.6858 10.6396C12.7136 11.0653 13.5921 11.7863 14.2102 12.7113C14.8283 13.6364 15.1582 14.7239 15.1582 15.8364C15.1582 17.3283 14.5656 18.759 13.5107 19.8139C12.4558 20.8688 11.025 21.4614 9.53321 21.4614Z" fill="white"/>
<path d="M12.7208 13.774L9.72081 12.0434C9.6638 12.0105 9.59914 11.9932 9.53331 11.9932C9.46748 11.9932 9.40282 12.0105 9.34581 12.0434L6.34581 13.774C6.28886 13.8069 6.24156 13.8542 6.20865 13.9111C6.17574 13.9681 6.15838 14.0326 6.15831 14.0984V17.5653C6.15671 17.6326 6.17327 17.6992 6.20626 17.7579C6.23926 17.8166 6.28746 17.8654 6.34581 17.899L9.34581 19.6315C9.40282 19.6644 9.46748 19.6818 9.53331 19.6818C9.59914 19.6818 9.6638 19.6644 9.72081 19.6315L12.7208 17.899C12.7778 17.8661 12.8251 17.8189 12.858 17.7619C12.8909 17.705 12.9082 17.6404 12.9083 17.5747V14.1003C12.9086 14.0342 12.8914 13.9692 12.8584 13.9119C12.8255 13.8546 12.778 13.8071 12.7208 13.774ZM9.53331 12.799L11.8414 14.1322L9.53331 15.4615L7.22518 14.134L9.53331 12.799ZM6.90831 14.8184L9.15831 16.1178V18.649L6.90831 17.3478V14.8184ZM9.90831 18.649V16.1178L12.1583 14.8184V17.3478L9.90831 18.649Z" fill="white"/>
<path d="M15.5332 3.46143C11.9576 3.46143 9.1582 4.77393 9.1582 6.46143V8.33643C9.1582 8.43588 9.19771 8.53127 9.26804 8.60159C9.33836 8.67192 9.43375 8.71143 9.5332 8.71143C9.63266 8.71143 9.72804 8.67192 9.79837 8.60159C9.86869 8.53127 9.9082 8.43588 9.9082 8.33643V7.89393C10.9732 8.83143 13.0695 9.46143 15.5332 9.46143C17.997 9.46143 20.0932 8.83518 21.1582 7.89393V11.3777C21.1582 12.1877 19.6582 13.2077 16.797 13.5902C16.7034 13.6035 16.6182 13.6516 16.5586 13.725C16.499 13.7984 16.4693 13.8916 16.4755 13.9859C16.4817 14.0802 16.5232 14.1688 16.5919 14.2337C16.6605 14.2987 16.7512 14.3354 16.8457 14.3364H16.8945C18.8445 14.0777 20.3276 13.5302 21.1582 12.8083V16.2321C21.1582 17.1189 19.4595 18.1839 16.6188 18.4277C16.5194 18.4319 16.4257 18.4755 16.3583 18.5488C16.291 18.6221 16.2555 18.7192 16.2598 18.8186C16.264 18.9181 16.3076 19.0118 16.3809 19.0791C16.4542 19.1464 16.5512 19.1819 16.6507 19.1777H16.6826C19.7595 18.9096 21.9082 17.7002 21.9082 16.2321V6.46143C21.9082 4.77393 19.1088 3.46143 15.5332 3.46143ZM15.5332 8.71143C12.2182 8.71143 9.9082 7.52643 9.9082 6.46143C9.9082 5.39643 12.2182 4.21143 15.5332 4.21143C18.8482 4.21143 21.1582 5.39643 21.1582 6.46143C21.1582 7.52643 18.8482 8.71143 15.5332 8.71143Z" fill="white"/>
</svg>
