<svg width="23" height="23" viewBox="0 0 23 23" fill="none" xmlns="http://www.w3.org/2000/svg">
<path d="M21.6487 8.35579C18.4575 5.06576 19.0463 5.47327 18.6409 5.33182H12.4336L10.0746 2.85407C10.0169 2.79581 9.9388 2.76233 9.85684 2.76074H2.4834C2.17582 2.76111 1.88094 2.88345 1.66345 3.10095C1.44595 3.31844 1.32361 3.61332 1.32324 3.9209V17.3168C1.32361 17.6244 1.44595 17.9193 1.66345 18.1368C1.88094 18.3543 2.17582 18.4766 2.4834 18.477H10.1078V19.8881C10.1081 20.1957 10.2305 20.4905 10.448 20.708C10.6655 20.9255 10.9603 21.0479 11.2679 21.0482H20.5784C20.886 21.0479 21.1809 20.9255 21.3984 20.708C21.6158 20.4905 21.7382 20.1957 21.7386 19.8881V8.57012C21.737 8.48983 21.7048 8.41317 21.6487 8.35579ZM18.9421 6.38559L20.7355 8.26934H18.9421V6.38559ZM14.0712 13.6387C13.2634 13.6387 11.5275 13.6387 10.7093 13.6387V12.7415H14.0712C14.151 12.7415 14.2275 12.7098 14.2839 12.6534C14.3403 12.597 14.372 12.5205 14.372 12.4407V11.4891L16.572 13.1884L14.372 14.8888V13.9395C14.372 13.8597 14.3403 13.7832 14.2839 13.7268C14.2275 13.6704 14.151 13.6387 14.0712 13.6387ZM8.9911 10.1694H12.3525V11.0683H8.9911C8.9516 11.0683 8.91247 11.0761 8.87597 11.0912C8.83947 11.1063 8.8063 11.1284 8.77837 11.1564C8.75043 11.1843 8.72828 11.2175 8.71317 11.254C8.69806 11.2905 8.6903 11.3296 8.69032 11.3691V12.3185L6.49032 10.618L8.69032 8.91868V9.86863C8.6903 9.90814 8.69806 9.94726 8.71317 9.98376C8.72828 10.0203 8.75043 10.0534 8.77837 10.0814C8.8063 10.1093 8.83947 10.1315 8.87597 10.1466C8.91247 10.1617 8.9516 10.1694 8.9911 10.1694ZM11.9511 5.69809H10.1576V3.81382L11.9511 5.69809ZM1.9248 17.3168V3.9209C1.92499 3.77281 1.9839 3.63083 2.08861 3.52611C2.19333 3.4214 2.33531 3.36249 2.4834 3.3623H9.55605V5.99887C9.55605 6.07864 9.58774 6.15514 9.64415 6.21155C9.70056 6.26796 9.77706 6.29965 9.85684 6.29965H12.3525V9.56785H9.29188V8.30629C9.29109 8.2504 9.27485 8.19582 9.24496 8.14859C9.21506 8.10136 9.17267 8.06332 9.1225 8.0387C9.07232 8.01407 9.0163 8.00381 8.96065 8.00906C8.905 8.0143 8.85189 8.03485 8.8072 8.06841L5.81485 10.38C5.77879 10.4083 5.74963 10.4444 5.72958 10.4856C5.70953 10.5268 5.69912 10.5721 5.69912 10.6179C5.69912 10.6638 5.70953 10.709 5.72958 10.7502C5.74963 10.7915 5.77879 10.8276 5.81485 10.8559L8.80702 13.1693C8.85964 13.2103 8.92443 13.2325 8.9911 13.2324C9.07072 13.2319 9.14694 13.2001 9.20324 13.1438C9.25954 13.0875 9.29139 13.0112 9.29188 12.9316V11.6699H12.3525V12.14H10.4086C10.3288 12.14 10.2523 12.1717 10.1959 12.2281C10.1395 12.2845 10.1078 12.361 10.1078 12.4407V13.9395C10.1078 14.0193 10.1395 14.0958 10.1959 14.1522C10.2523 14.2086 10.3288 14.2403 10.4086 14.2403H12.3525V17.3168C12.3523 17.4649 12.2934 17.6069 12.1887 17.7116C12.0839 17.8163 11.942 17.8752 11.7939 17.8754H2.4834C2.33531 17.8752 2.19333 17.8163 2.08861 17.7116C1.9839 17.6069 1.92499 17.4649 1.9248 17.3168ZM21.137 19.8881C21.1368 20.0362 21.0779 20.1782 20.9732 20.2829C20.8685 20.3876 20.7265 20.4465 20.5784 20.4467H11.2679C11.1198 20.4465 10.9779 20.3876 10.8731 20.2829C10.7684 20.1782 10.7095 20.0362 10.7093 19.8881V18.477H11.7939C12.1014 18.4766 12.3963 18.3543 12.6138 18.1368C12.8313 17.9193 12.9537 17.6244 12.954 17.3168V14.2403H13.7704V15.5018C13.7704 15.5581 13.7862 15.6132 13.8159 15.6609C13.8457 15.7086 13.8882 15.7471 13.9387 15.7719C13.9895 15.7954 14.0457 15.8049 14.1014 15.7992C14.1571 15.7936 14.2103 15.773 14.2553 15.7397L17.2475 13.4263C17.2835 13.3979 17.3126 13.3618 17.3326 13.3206C17.3526 13.2794 17.363 13.2341 17.363 13.1883C17.363 13.1425 17.3526 13.0973 17.3326 13.0561C17.3126 13.0148 17.2835 12.9787 17.2475 12.9504L14.2551 10.6386C14.2106 10.6043 14.1574 10.583 14.1014 10.5774C14.0455 10.5717 13.9891 10.5819 13.9386 10.6067C13.8881 10.6315 13.8456 10.6699 13.8159 10.7176C13.7862 10.7653 13.7704 10.8205 13.7704 10.8767V12.14H12.954C12.954 11.6503 12.9551 10.3734 12.954 9.86863C12.9523 9.8633 12.954 6.00471 12.954 5.9987C12.9528 5.97686 12.9504 5.95512 12.9468 5.93355H18.3401V8.57012C18.3401 8.60966 18.3479 8.64881 18.363 8.68534C18.3782 8.72187 18.4004 8.75505 18.4283 8.78298C18.4563 8.81092 18.4896 8.83307 18.5261 8.84815C18.5627 8.86324 18.6018 8.87097 18.6414 8.8709H21.137V19.8881Z" fill="white"/>
<path d="M16.4473 10.8774C16.4473 10.9572 16.479 11.0337 16.5354 11.0901C16.5918 11.1465 16.6683 11.1782 16.748 11.1782H19.5694C19.6491 11.1782 19.7257 11.1465 19.7821 11.0901C19.8385 11.0337 19.8702 10.9572 19.8702 10.8774C19.8702 10.7977 19.8385 10.7212 19.7821 10.6648C19.7257 10.6083 19.6491 10.5767 19.5694 10.5767H16.748C16.6683 10.5767 16.5918 10.6084 16.5354 10.6648C16.479 10.7212 16.4473 10.7977 16.4473 10.8774Z" fill="white"/>
<path d="M19.5698 12.8892H18.1592C18.0794 12.8892 18.0029 12.9208 17.9465 12.9773C17.8901 13.0337 17.8584 13.1102 17.8584 13.1899C17.8584 13.2697 17.8901 13.3462 17.9465 13.4026C18.0029 13.459 18.0794 13.4907 18.1592 13.4907H19.5698C19.6495 13.4907 19.726 13.459 19.7824 13.4026C19.8388 13.3462 19.8705 13.2697 19.8705 13.1899C19.8705 13.1102 19.8388 13.0337 19.7824 12.9773C19.726 12.9208 19.6495 12.8892 19.5698 12.8892Z" fill="white"/>
<path d="M19.5694 15.2021H16.748C16.6683 15.2021 16.5918 15.2338 16.5354 15.2902C16.479 15.3467 16.4473 15.4232 16.4473 15.5029C16.4473 15.5827 16.479 15.6592 16.5354 15.7156C16.5918 15.772 16.6683 15.8037 16.748 15.8037H19.5694C19.6491 15.8037 19.7257 15.772 19.7821 15.7156C19.8385 15.6592 19.8702 15.5827 19.8702 15.5029C19.8702 15.4232 19.8385 15.3467 19.7821 15.2902C19.7257 15.2338 19.6491 15.2021 19.5694 15.2021Z" fill="white"/>
<path d="M3.49219 8.60693H6.31369C6.39346 8.60693 6.46996 8.57524 6.52637 8.51884C6.58278 8.46243 6.61447 8.38592 6.61447 8.30615C6.61447 8.22638 6.58278 8.14988 6.52637 8.09347C6.46996 8.03706 6.39346 8.00537 6.31369 8.00537H3.49219C3.41242 8.00537 3.33591 8.03706 3.2795 8.09347C3.2231 8.14988 3.19141 8.22638 3.19141 8.30615C3.19141 8.38592 3.2231 8.46243 3.2795 8.51884C3.33591 8.57524 3.41242 8.60693 3.49219 8.60693Z" fill="white"/>
<path d="M3.49219 10.9194H4.90294C4.98271 10.9194 5.05921 10.8877 5.11562 10.8313C5.17203 10.7749 5.20372 10.6984 5.20372 10.6187C5.20372 10.5389 5.17203 10.4624 5.11562 10.406C5.05921 10.3496 4.98271 10.3179 4.90294 10.3179H3.49219C3.41242 10.3179 3.33591 10.3496 3.2795 10.406C3.2231 10.4624 3.19141 10.5389 3.19141 10.6187C3.19141 10.6984 3.2231 10.7749 3.2795 10.8313C3.33591 10.8877 3.41242 10.9194 3.49219 10.9194Z" fill="white"/>
<path d="M6.31369 12.6309H3.49219C3.41242 12.6309 3.33591 12.6625 3.2795 12.719C3.2231 12.7754 3.19141 12.8519 3.19141 12.9316C3.19141 13.0114 3.2231 13.0879 3.2795 13.1443C3.33591 13.2007 3.41242 13.2324 3.49219 13.2324H6.31369C6.39346 13.2324 6.46996 13.2007 6.52637 13.1443C6.58278 13.0879 6.61447 13.0114 6.61447 12.9316C6.61447 12.8519 6.58278 12.7754 6.52637 12.719C6.46996 12.6625 6.39346 12.6309 6.31369 12.6309Z" fill="white"/>
</svg>
