<svg width="21" height="21" viewBox="0 0 21 21" fill="none" xmlns="http://www.w3.org/2000/svg">
<path fill-rule="evenodd" clip-rule="evenodd" d="M17.6512 10.4603C17.4812 10.489 17.3665 10.6501 17.3951 10.8204C17.4629 11.2208 17.4971 11.6237 17.4971 12.0186C17.4971 14.2212 16.5153 16.2094 14.9335 17.5332C14.6573 15.7395 13.3838 14.3008 11.6927 13.786C12.365 13.3375 12.8096 12.5734 12.8096 11.7061C12.8096 10.3273 11.688 9.20605 10.3096 9.20605C8.93109 9.20605 7.80957 10.3273 7.80957 11.7061C7.80957 12.5734 8.25414 13.3375 8.92648 13.786C7.23538 14.3008 5.96188 15.7395 5.68562 17.5332C4.10382 16.2094 3.12207 14.2212 3.12207 12.0186C3.12207 11.6237 3.15625 11.2208 3.224 10.8204C3.25269 10.6501 3.13794 10.489 2.96796 10.4603C2.79401 10.431 2.63654 10.5464 2.60754 10.7167C2.5343 11.1506 2.49707 11.5889 2.49707 12.0186C2.49707 15.8564 5.23816 19.0956 9.01471 19.7206C9.0318 19.7236 9.04919 19.7249 9.06598 19.7249C9.21613 19.7249 9.34857 19.6162 9.3739 19.4636C9.40228 19.2933 9.28693 19.1322 9.11664 19.1041C8.06359 18.9298 7.10023 18.5317 6.26595 17.9669C6.41671 15.8462 8.15965 14.2061 10.3096 14.2061C12.4595 14.2061 14.2024 15.8462 14.3532 17.9669C13.5189 18.5317 12.5555 18.9298 11.5025 19.1041C11.3322 19.1322 11.2169 19.2933 11.2452 19.4636C11.2706 19.6162 11.403 19.7249 11.5532 19.7249C11.5699 19.7249 11.5873 19.7236 11.6044 19.7206C15.381 19.0956 18.1221 15.8564 18.1221 12.0186C18.1221 11.5889 18.0848 11.1506 18.0116 10.7167C17.9826 10.5464 17.8233 10.4304 17.6512 10.4603ZM8.43457 11.7061C8.43457 10.6721 9.27563 9.83105 10.3096 9.83105C11.3435 9.83105 12.1846 10.6721 12.1846 11.7061C12.1846 12.74 11.3435 13.5811 10.3096 13.5811C9.27563 13.5811 8.43457 12.74 8.43457 11.7061Z" fill="white"/>
<path fill-rule="evenodd" clip-rule="evenodd" d="M13.7318 4.19263C13.6949 4.0791 13.5972 3.9967 13.4794 3.97961L11.4827 3.6897L10.5897 1.88C10.4847 1.6676 10.1344 1.6676 10.0294 1.88L9.13646 3.6897L7.1397 3.97961C7.0219 3.9967 6.92424 4.0791 6.88732 4.19263C6.85069 4.30554 6.88121 4.43005 6.96636 4.51306L8.41136 5.92114L8.07018 7.90967C8.05004 8.02747 8.09825 8.14587 8.19438 8.21545C8.29112 8.28564 8.41838 8.29602 8.52367 8.23926L10.3096 7.29993L12.0954 8.23926C12.1412 8.26367 12.1913 8.27527 12.241 8.27527C12.3057 8.27527 12.3701 8.25513 12.4247 8.21545C12.5209 8.14587 12.5691 8.02747 12.5489 7.90967L12.2077 5.92114L13.6528 4.51306C13.7379 4.43005 13.7684 4.30554 13.7318 4.19263ZM11.6539 5.58789C11.5803 5.65991 11.5467 5.76306 11.5641 5.86499L11.826 7.39148L10.4551 6.67065C10.4093 6.64685 10.3596 6.63464 10.3096 6.63464C10.2595 6.63464 10.2098 6.64685 10.164 6.67065L8.79314 7.39148L9.05498 5.86499C9.07237 5.76306 9.03881 5.65991 8.96526 5.58789L7.85625 4.50757L9.38884 4.28479C9.49077 4.26953 9.57866 4.20605 9.62413 4.11389L10.3096 2.72473L10.995 4.11389C11.0405 4.20605 11.1283 4.26953 11.2303 4.28479L12.7629 4.50757L11.6539 5.58789Z" fill="white"/>
<path fill-rule="evenodd" clip-rule="evenodd" d="M2.83153 9.2207C2.81139 9.3385 2.85961 9.45691 2.95574 9.52649C3.05278 9.59668 3.18035 9.60645 3.28502 9.55029L4.68456 8.81421L6.08409 9.55029C6.12987 9.57471 6.17992 9.5863 6.22966 9.5863C6.29436 9.5863 6.35875 9.56616 6.41338 9.52649C6.50951 9.45691 6.55773 9.3385 6.53758 9.2207L6.27025 7.66248L7.40276 6.55896C7.4879 6.47595 7.51842 6.35144 7.4818 6.23853C7.44487 6.125 7.34722 6.0426 7.22942 6.02551L5.66448 5.79846L4.96471 4.38C4.85973 4.1676 4.50939 4.1676 4.40441 4.38L3.70464 5.79846L2.1397 6.02551C2.0219 6.0426 1.92424 6.125 1.88732 6.23853C1.85069 6.35144 1.88121 6.47595 1.96636 6.55896L3.09886 7.66248L2.83153 9.2207ZM2.85625 6.55347L3.95702 6.39355C4.05895 6.3783 4.14684 6.31482 4.19231 6.22266L4.68456 5.22473L5.17681 6.22266C5.22228 6.31482 5.31017 6.3783 5.4121 6.39355L6.51287 6.55347L5.71636 7.32922C5.64281 7.40125 5.60924 7.50439 5.62663 7.60632L5.81462 8.70251L4.83013 8.18494C4.78435 8.16113 4.73461 8.14893 4.68456 8.14893C4.63451 8.14893 4.58476 8.16113 4.53899 8.18494L3.55449 8.70251L3.74248 7.60632C3.75987 7.50439 3.72631 7.40125 3.65276 7.32922L2.85625 6.55347Z" fill="white"/>
<path fill-rule="evenodd" clip-rule="evenodd" d="M18.4794 6.02551L16.9145 5.79846L16.2147 4.38C16.1097 4.1676 15.7594 4.1676 15.6544 4.38L14.9546 5.79846L13.3897 6.02551C13.2719 6.0426 13.1742 6.125 13.1373 6.23853C13.1007 6.35144 13.1312 6.47595 13.2164 6.55896L14.3489 7.66248L14.0815 9.2207C14.0614 9.3385 14.1096 9.45691 14.2057 9.52649C14.3025 9.59668 14.4297 9.60645 14.535 9.55029L15.9346 8.81421L17.3341 9.55029C17.3799 9.57471 17.4299 9.5863 17.4797 9.5863C17.5444 9.5863 17.6088 9.56616 17.6634 9.52649C17.7595 9.45691 17.8077 9.3385 17.7876 9.2207L17.5203 7.66248L18.6528 6.55896C18.7379 6.47595 18.7684 6.35144 18.7318 6.23853C18.6949 6.125 18.5972 6.0426 18.4794 6.02551ZM16.9664 7.32922C16.8928 7.40125 16.8592 7.50439 16.8766 7.60632L17.0646 8.70251L16.0801 8.18494C16.0343 8.16113 15.9846 8.14893 15.9346 8.14893C15.8845 8.14893 15.8348 8.16113 15.789 8.18494L14.8045 8.70251L14.9925 7.60632C15.0099 7.50439 14.9763 7.40125 14.9028 7.32922L14.1062 6.55347L15.207 6.39355C15.3089 6.3783 15.3968 6.31482 15.4423 6.22266L15.9346 5.22473L16.4268 6.22266C16.4723 6.31482 16.5602 6.3783 16.6621 6.39355L17.7629 6.55347L16.9664 7.32922Z" fill="white"/>
<path d="M10.3096 19.8311C10.4822 19.8311 10.6221 19.6911 10.6221 19.5186C10.6221 19.346 10.4822 19.2061 10.3096 19.2061C10.137 19.2061 9.99707 19.346 9.99707 19.5186C9.99707 19.6911 10.137 19.8311 10.3096 19.8311Z" fill="white"/>
</svg>
