<svg width="19" height="19" viewBox="0 0 19 19" fill="none" xmlns="http://www.w3.org/2000/svg">
<g clip-path="url(#clip0_117_17185)">
<path d="M4.89927 0.811523C4.38283 0.811523 3.97818 1.11236 3.97818 1.4964V2.24959H2.29022C1.99398 2.24993 1.70996 2.36777 1.50049 2.57725C1.29102 2.78673 1.17319 3.07075 1.17285 3.367V16.7811C1.17333 17.0772 1.29123 17.361 1.50071 17.5703C1.71018 17.7796 1.99411 17.8972 2.29022 17.8975H16.3292C16.6251 17.8971 16.9089 17.7794 17.1182 17.5701C17.3275 17.3608 17.4452 17.0771 17.4456 16.7811V3.367C17.4453 3.07088 17.3277 2.78694 17.1184 2.57746C16.9091 2.36798 16.6253 2.25006 16.3292 2.24959H14.6402V1.4964C14.6402 1.11236 14.2359 0.811523 13.7201 0.811523C13.2036 0.811523 12.799 1.11236 12.799 1.4964V2.24959H10.2303V1.4964C10.2303 1.11236 9.82568 0.811523 9.3092 0.811523C8.79272 0.811523 8.38811 1.11236 8.38811 1.4964V2.24959H5.8203V1.4964C5.82033 1.11236 5.41575 0.811523 4.89927 0.811523ZM4.54068 1.50059C4.5577 1.46374 4.68696 1.37402 4.89927 1.37402C5.11158 1.37402 5.24082 1.46374 5.25787 1.50059V2.24959H4.54068V1.50059ZM1.73521 5.76504H16.8831V14.134H14.7865C14.712 14.134 14.6404 14.1636 14.5877 14.2164C14.5349 14.2691 14.5053 14.3406 14.5053 14.4152V16.5118H2.29022C2.14309 16.5117 2.00202 16.4532 1.89799 16.3491C1.79397 16.2451 1.73547 16.104 1.73535 15.9568L1.73521 5.76504ZM16.4852 14.6965L15.0678 16.114V14.6964L16.4852 14.6965ZM16.3292 17.335H2.29022C2.17087 17.3349 2.0547 17.2964 1.95893 17.2251C1.86316 17.1539 1.79286 17.0537 1.75845 16.9395C1.92165 17.0282 2.10448 17.0745 2.29022 17.0743H14.7865C14.8611 17.0743 14.9327 17.0446 14.9855 16.9919L16.8832 15.0942V16.7811C16.883 16.9279 16.8246 17.0687 16.7207 17.1726C16.6168 17.2764 16.476 17.3348 16.3292 17.335ZM13.3615 1.50059C13.3783 1.46385 13.5074 1.3742 13.7201 1.3742C13.9323 1.3742 14.0611 1.46385 14.0777 1.50055V2.24959H13.3616L13.3615 1.50059ZM8.95061 1.50059C8.96766 1.46378 9.09689 1.37402 9.3092 1.37402C9.52151 1.37402 9.65071 1.46374 9.6678 1.50059V2.24959H8.95061V1.50059ZM9.3092 4.00406C9.3838 4.00406 9.45533 3.97443 9.50808 3.92169C9.56082 3.86894 9.59045 3.7974 9.59045 3.72281C9.59045 3.64822 9.56082 3.57668 9.50808 3.52394C9.45533 3.47119 9.3838 3.44156 9.3092 3.44156C9.0977 3.44156 8.96819 3.3517 8.95061 3.31465V2.81209H12.799V3.31915C12.799 3.7032 13.2036 4.00403 13.7201 4.00403C13.7947 4.00403 13.8662 3.9744 13.919 3.92165C13.9717 3.86891 14.0014 3.79737 14.0014 3.72278C14.0014 3.64819 13.9717 3.57665 13.919 3.5239C13.8662 3.47116 13.7947 3.44153 13.7201 3.44153C13.5082 3.44153 13.3788 3.35174 13.3615 3.31479V2.81205H16.3292C16.4762 2.81235 16.617 2.87094 16.7209 2.97497C16.8247 3.079 16.883 3.21998 16.8831 3.36696V5.20254H1.73535V3.367C1.7355 3.21988 1.79401 3.07883 1.89803 2.9748C2.00206 2.87076 2.1431 2.81225 2.29022 2.81209H3.97825V3.31915C3.97825 3.7032 4.38283 4.00403 4.89934 4.00403C4.97394 4.00403 5.04547 3.9744 5.09822 3.92165C5.15096 3.86891 5.18059 3.79737 5.18059 3.72278C5.18059 3.64819 5.15096 3.57665 5.09822 3.5239C5.04547 3.47116 4.97394 3.44153 4.89934 3.44153C4.68784 3.44153 4.55833 3.35167 4.54075 3.31461V2.81209H8.38811V3.31915C8.38811 3.7032 8.79272 4.00406 9.3092 4.00406ZM6.96822 9.11054H8.39932C8.47392 9.11054 8.54545 9.08091 8.5982 9.02817C8.65094 8.97542 8.68057 8.90388 8.68057 8.82929V7.56662C8.68057 7.49203 8.65094 7.42049 8.5982 7.36775C8.54545 7.315 8.47392 7.28537 8.39932 7.28537H6.96822C6.89363 7.28537 6.82209 7.315 6.76935 7.36775C6.7166 7.42049 6.68697 7.49203 6.68697 7.56662V8.82929C6.68697 8.90388 6.7166 8.97542 6.76935 9.02817C6.82209 9.08091 6.89363 9.11054 6.96822 9.11054ZM7.24947 7.84787H8.11807V8.54804H7.24947V7.84787ZM10.2191 9.11054H11.6502C11.7247 9.11054 11.7963 9.08091 11.849 9.02817C11.9018 8.97542 11.9314 8.90388 11.9314 8.82929V7.56662C11.9314 7.49203 11.9018 7.42049 11.849 7.36775C11.7963 7.315 11.7247 7.28537 11.6502 7.28537H10.2191C10.1445 7.28537 10.073 7.315 10.0202 7.36775C9.96746 7.42049 9.93783 7.49203 9.93783 7.56662V8.82929C9.93783 8.90388 9.96746 8.97542 10.0202 9.02817C10.073 9.08091 10.1445 9.11054 10.2191 9.11054ZM10.5003 7.84787H11.3689V8.54804H10.5003V7.84787ZM3.71736 12.2H5.14941C5.224 12.2 5.29554 12.1703 5.34828 12.1176C5.40103 12.0648 5.43066 11.9933 5.43066 11.9187V10.657C5.43066 10.5824 5.40103 10.5109 5.34828 10.4582C5.29554 10.4054 5.224 10.3758 5.14941 10.3758H3.71736C3.64276 10.3758 3.57123 10.4054 3.51848 10.4582C3.46574 10.5109 3.43611 10.5824 3.43611 10.657V11.9187C3.43611 11.9933 3.46574 12.0648 3.51848 12.1176C3.57123 12.1703 3.64276 12.2 3.71736 12.2ZM3.99861 10.9383H4.86816V11.6375H3.99861V10.9383ZM6.96822 12.2H8.39932C8.47392 12.2 8.54545 12.1703 8.5982 12.1176C8.65094 12.0648 8.68057 11.9933 8.68057 11.9187V10.657C8.68057 10.5824 8.65094 10.5109 8.5982 10.4582C8.54545 10.4054 8.47392 10.3758 8.39932 10.3758H6.96822C6.89363 10.3758 6.82209 10.4054 6.76935 10.4582C6.7166 10.5109 6.68697 10.5824 6.68697 10.657V11.9187C6.68697 11.9933 6.7166 12.0648 6.76935 12.1176C6.82209 12.1703 6.89363 12.2 6.96822 12.2ZM7.24947 10.9383H8.11807V11.6375H7.24947V10.9383ZM10.2191 12.2H11.6502C11.7247 12.2 11.7963 12.1703 11.849 12.1176C11.9018 12.0648 11.9314 11.9933 11.9314 11.9187V10.657C11.9314 10.5824 11.9018 10.5109 11.849 10.4582C11.7963 10.4054 11.7247 10.3758 11.6502 10.3758H10.2191C10.1445 10.3758 10.073 10.4054 10.0202 10.4582C9.96746 10.5109 9.93783 10.5824 9.93783 10.657V11.9187C9.93783 11.9933 9.96746 12.0648 10.0202 12.1176C10.073 12.1703 10.1445 12.2 10.2191 12.2ZM10.5003 10.9383H11.3689V11.6375H10.5003V10.9383ZM3.71736 15.2894H5.14941C5.224 15.2894 5.29554 15.2598 5.34828 15.207C5.40103 15.1543 5.43066 15.0827 5.43066 15.0081V13.7465C5.43066 13.6719 5.40103 13.6003 5.34828 13.5476C5.29554 13.4948 5.224 13.4652 5.14941 13.4652H3.71736C3.64276 13.4652 3.57123 13.4948 3.51848 13.5476C3.46574 13.6003 3.43611 13.6719 3.43611 13.7465V15.0081C3.43611 15.0827 3.46574 15.1543 3.51848 15.207C3.57123 15.2598 3.64276 15.2894 3.71736 15.2894ZM3.99861 14.0277H4.86816V14.7269H3.99861V14.0277ZM6.96822 15.2894H8.39932C8.47392 15.2894 8.54545 15.2598 8.5982 15.207C8.65094 15.1543 8.68057 15.0827 8.68057 15.0081V13.7465C8.68057 13.6719 8.65094 13.6003 8.5982 13.5476C8.54545 13.4948 8.47392 13.4652 8.39932 13.4652H6.96822C6.89363 13.4652 6.82209 13.4948 6.76935 13.5476C6.7166 13.6003 6.68697 13.6719 6.68697 13.7465V15.0081C6.68697 15.0827 6.7166 15.1543 6.76935 15.207C6.82209 15.2598 6.89363 15.2894 6.96822 15.2894ZM7.24947 14.0277H8.11807V14.7269H7.24947V14.0277ZM3.71736 9.11054H5.14941C5.224 9.11054 5.29554 9.08091 5.34828 9.02817C5.40103 8.97542 5.43066 8.90388 5.43066 8.82929V7.56662C5.43066 7.49203 5.40103 7.42049 5.34828 7.36775C5.29554 7.315 5.224 7.28537 5.14941 7.28537H3.71736C3.64276 7.28537 3.57123 7.315 3.51848 7.36775C3.46574 7.42049 3.43611 7.49203 3.43611 7.56662V8.82929C3.43611 8.90388 3.46574 8.97542 3.51848 9.02817C3.57123 9.08091 3.64276 9.11054 3.71736 9.11054ZM3.99861 7.84787H4.86816V8.54804H3.99861V7.84787ZM14.9011 10.3758H13.4699C13.3954 10.3758 13.3238 10.4054 13.2711 10.4582C13.2183 10.5109 13.1887 10.5824 13.1887 10.657V11.9187C13.1887 11.9933 13.2183 12.0648 13.2711 12.1176C13.3238 12.1703 13.3954 12.2 13.4699 12.2H14.9011C14.9756 12.2 15.0472 12.1703 15.0999 12.1176C15.1527 12.0648 15.1823 11.9933 15.1823 11.9187V10.657C15.1823 10.5824 15.1527 10.5109 15.0999 10.4582C15.0472 10.4054 14.9756 10.3758 14.9011 10.3758ZM14.6198 11.6375H13.7512V10.9383H14.6198V11.6375ZM10.2191 15.2894H11.6502C11.7247 15.2894 11.7963 15.2598 11.849 15.207C11.9018 15.1543 11.9314 15.0827 11.9314 15.0081V13.7465C11.9314 13.6719 11.9018 13.6003 11.849 13.5476C11.7963 13.4948 11.7247 13.4652 11.6502 13.4652H10.2191C10.1445 13.4652 10.073 13.4948 10.0202 13.5476C9.96746 13.6003 9.93783 13.6719 9.93783 13.7465V15.0081C9.93783 15.0827 9.96746 15.1543 10.0202 15.207C10.073 15.2598 10.1445 15.2894 10.2191 15.2894ZM10.5003 14.0277H11.3689V14.7269H10.5003V14.0277ZM13.232 8.37507C13.2056 8.3491 13.1845 8.31815 13.1701 8.28402C13.1557 8.24989 13.1481 8.21325 13.1479 8.1762C13.1477 8.13914 13.1548 8.10241 13.1688 8.06811C13.1828 8.03381 13.2035 8.00262 13.2296 7.97634C13.2557 7.95005 13.2868 7.92917 13.321 7.91492C13.3552 7.90067 13.3919 7.89331 13.4289 7.89328C13.466 7.89325 13.5027 7.90054 13.5369 7.91473C13.5711 7.92892 13.6022 7.94974 13.6284 7.97598L13.9903 8.33538L14.7263 7.46565C14.7745 7.40871 14.8433 7.37324 14.9176 7.36705C14.992 7.36086 15.0657 7.38445 15.1227 7.43264C15.1796 7.48083 15.2151 7.54966 15.2213 7.624C15.2275 7.69833 15.2039 7.77209 15.1557 7.82903L14.2229 8.93125C14.1978 8.96091 14.1668 8.98505 14.1319 9.00214C14.097 9.01923 14.059 9.02891 14.0201 9.03056C14.0161 9.03056 14.012 9.03081 14.008 9.03081C13.9337 9.03081 13.8625 9.00144 13.8098 8.94911L13.232 8.37507Z" fill="white"/>
</g>
<defs>
<clipPath id="clip0_117_17185">
<rect width="18" height="18" fill="white" transform="translate(0.30957 0.354492)"/>
</clipPath>
</defs>
</svg>
