<svg width="19" height="18" viewBox="0 0 19 18" fill="none" xmlns="http://www.w3.org/2000/svg">
<g clip-path="url(#clip0_117_17194)">
<path d="M14.9177 15.6843L14.2456 13.6678C14.0108 12.9637 13.4115 12.4441 12.6811 12.3111L10.7409 11.9581V11.8077C11.0785 11.6117 11.3723 11.3495 11.6063 11.0392H12.1925C12.6727 11.0392 13.0634 10.6484 13.0634 10.1682V6.68435C13.0634 4.60332 11.3703 2.91016 9.28925 2.91016C7.20822 2.91016 5.51505 4.60332 5.51505 6.68435V8.71661C5.51505 9.27635 5.91309 9.74464 6.44089 9.8538C6.60376 10.6882 7.12518 11.3943 7.83764 11.8077V11.9581L5.89712 12.3111C5.16696 12.4441 4.56744 12.9637 4.33286 13.6678L4.21673 14.0164L3.22789 13.0276C3.11467 12.9144 3.11467 12.73 3.22789 12.6168L4.37467 11.4703L2.22222 9.31787L0.926216 10.6139C0.542409 10.9977 0.331055 11.5081 0.331055 12.051C0.331055 12.5939 0.542409 13.104 0.926216 13.4878L4.84993 17.4115C5.23373 17.7953 5.74412 18.0069 6.28702 18.0069C6.82993 18.0069 7.34002 17.7953 7.71483 17.4202L9.12899 16.1245L8.68799 15.6843H14.9177ZM12.4828 10.1682C12.4828 10.3285 12.3524 10.4585 12.1925 10.4585H11.9483C12.0325 10.2666 12.0964 10.0643 12.1376 9.8538C12.2619 9.82796 12.3762 9.77861 12.4828 9.71648V10.1682ZM12.1925 9.21654V8.21667C12.3652 8.31741 12.4828 8.50264 12.4828 8.71661C12.4828 8.93058 12.3652 9.1158 12.1925 9.21654ZM6.38602 9.21654C6.21328 9.1158 6.0957 8.93058 6.0957 8.71661C6.0957 8.50264 6.21328 8.31741 6.38602 8.21667V9.21654ZM6.38602 7.26499V7.59654C6.28267 7.62354 6.1857 7.66419 6.0957 7.71674V6.68435C6.0957 4.92354 7.52844 3.4908 9.28925 3.4908C11.0501 3.4908 12.4828 4.92354 12.4828 6.68435V7.71674C12.3928 7.66419 12.2958 7.62325 12.1925 7.59654V7.26499H11.9022C11.0437 7.26499 10.2366 6.93054 9.62922 6.32348L9.28925 5.98351L8.94928 6.32348C8.34193 6.93054 7.53483 7.26499 6.67634 7.26499H6.38602ZM6.96667 9.29725V7.83461C7.83851 7.76899 8.65141 7.40929 9.28925 6.8028C9.92709 7.40929 10.74 7.76929 11.6118 7.83461V9.29725C11.6118 9.72054 11.4963 10.1165 11.2977 10.4585H9.28925V11.0392H10.8204C10.4111 11.3995 9.87599 11.6198 9.28925 11.6198C8.00864 11.6198 6.96667 10.5779 6.96667 9.29725ZM10.1602 12.0666V12.0803L9.28925 12.9513L8.41828 12.0803V12.0666C8.69351 12.1532 8.98586 12.2005 9.28925 12.2005C9.59264 12.2005 9.88499 12.1532 10.1602 12.0666ZM4.88331 13.8513C5.05083 13.3484 5.47905 12.9771 6.00076 12.8819L8.03012 12.5132L9.28925 13.7723L10.5481 12.5134L12.5772 12.8822C13.0989 12.9774 13.5271 13.3484 13.6946 13.8515L14.1124 15.1037H8.10734L6.97654 13.9729L5.72002 15.1095C5.61057 15.2195 5.41925 15.2195 5.30951 15.1095L4.67544 14.4754L4.88331 13.8513ZM2.22193 10.1389L3.55334 11.4703L3.23805 11.7856L1.90664 10.4542L2.22193 10.1389ZM7.31273 17.0015C7.03867 17.275 6.67402 17.4263 6.28644 17.4263C5.89886 17.4263 5.53422 17.275 5.25986 17.001L1.33615 13.0775C1.06209 12.8035 0.911119 12.4388 0.911119 12.0513C0.911119 11.6634 1.06209 11.2987 1.33615 11.0247L1.49583 10.865L2.82725 12.1964L2.8168 12.2069C2.47741 12.5465 2.47741 13.099 2.8168 13.4387L4.8987 15.5206C5.06331 15.6849 5.28193 15.7758 5.51476 15.7758C5.7476 15.7758 5.96622 15.6852 6.12009 15.5308L6.14186 15.5113L7.47938 16.8488L7.31273 17.0015ZM7.90789 16.4557L6.57328 15.1211L6.9568 14.7745L8.28909 16.1068L7.90789 16.4557Z" fill="white"/>
<path d="M17.4179 0.00683594H13.3534C12.8732 0.00683594 12.4824 0.39761 12.4824 0.877804V3.20038C12.4824 3.68058 12.8732 4.07135 13.3534 4.07135H14.1288L13.8286 5.82229L16.6303 4.07135H17.4179C17.8981 4.07135 18.2889 3.68058 18.2889 3.20038V0.877804C18.2889 0.39761 17.8981 0.00683594 17.4179 0.00683594ZM17.7082 3.20038C17.7082 3.36035 17.5779 3.49071 17.4179 3.49071H16.4636L14.6198 4.643L14.8175 3.49071H13.3534C13.1934 3.49071 13.0631 3.36035 13.0631 3.20038V0.877804C13.0631 0.717836 13.1934 0.587481 13.3534 0.587481H17.4179C17.5779 0.587481 17.7082 0.717836 17.7082 0.877804V3.20038Z" fill="white"/>
<path d="M17.1274 1.16821H13.6436V1.74886H17.1274V1.16821Z" fill="white"/>
<path d="M15.9661 2.32935H13.6436V2.90999H15.9661V2.32935Z" fill="white"/>
<path d="M17.1275 2.32935H16.5469V2.90999H17.1275V2.32935Z" fill="white"/>
<path d="M9.28856 0.877686C5.49521 0.877686 2.22763 3.50162 1.37814 7.16172L0.827981 6.24459L0.330078 6.54333L1.35056 8.24375L3.05098 7.22327L2.75224 6.72536L1.96547 7.19743C2.78824 3.84914 5.79917 1.45833 9.28856 1.45833C10.0512 1.45833 10.8038 1.57156 11.5252 1.7951L11.6971 1.24059C10.9199 0.999621 10.1096 0.877686 9.28856 0.877686Z" fill="white"/>
<path d="M18.1474 6.43528L16.447 5.41479L15.4268 7.1155L15.9247 7.41425L16.4328 6.56738C16.7002 7.34979 16.8369 8.16821 16.8369 9.00696C16.8369 10.7335 16.2388 12.4214 15.1533 13.7595L15.6042 14.1253C16.7736 12.6842 17.4175 10.8662 17.4175 9.00696C17.4175 8.11886 17.2744 7.25167 16.9954 6.42134L17.8487 6.93318L18.1474 6.43528Z" fill="white"/>
</g>
<defs>
<clipPath id="clip0_117_17194">
<rect width="18" height="18" fill="white" transform="translate(0.30957 0.00683594)"/>
</clipPath>
</defs>
</svg>
