<svg width="19" height="19" viewBox="0 0 19 19" fill="none" xmlns="http://www.w3.org/2000/svg">
<g clip-path="url(#clip0_117_17076)">
<path d="M17.3342 18.0029V6.90873C17.3342 6.74314 17.1999 6.60889 17.0343 6.60889H14.0359C13.8703 6.60889 13.7361 6.74314 13.7361 6.90873V18.0029H13.1364V11.1065C13.1364 10.9409 13.0021 10.8067 12.8366 10.8067H9.83813C9.67254 10.8067 9.53828 10.9409 9.53828 11.1065V18.0029H8.9386V8.1081C8.9386 7.94251 8.80434 7.80826 8.63875 7.80826H5.64033C5.47474 7.80826 5.34049 7.94251 5.34049 8.1081V18.0029H4.7408V12.3059C4.7408 12.1403 4.60655 12.0061 4.44096 12.0061H1.44253C1.27695 12.0061 1.14269 12.1403 1.14269 12.3059V18.0029H0.243164V18.6026H18.2337V18.0029H17.3342ZM4.14112 18.0029H1.74238V12.6057H4.14112V18.0029ZM8.33891 18.0029H5.94017V8.40794H8.33891V18.0029ZM12.5367 18.0029H10.138V11.4064H12.5367V18.0029ZM16.7345 18.0029H14.3358V7.20857H16.7345V18.0029Z" fill="white"/>
<path d="M2.11501 8.75852C2.36028 8.92066 2.64783 9.00713 2.94186 9.00709C3.76984 9.00705 4.44104 8.33582 4.441 7.5078C4.441 7.21388 4.35457 6.9264 4.19251 6.68121L6.31479 4.55862C6.55804 4.7214 6.84398 4.80862 7.13666 4.80929C7.22493 4.80933 7.313 4.80161 7.39992 4.7862C7.68518 4.73621 7.94965 4.60405 8.16092 4.406L9.93989 5.77359C9.64297 6.5465 10.0288 7.4138 10.8017 7.71072C11.5747 8.00764 12.442 7.62178 12.7389 6.84886C12.913 6.39557 12.8568 5.88603 12.5881 5.48154L14.7098 3.35985C15.4023 3.81824 16.3353 3.6284 16.7937 2.93588C17.252 2.24335 17.0622 1.31035 16.3697 0.852007C15.6772 0.393622 14.7442 0.58346 14.2858 1.27598C13.9528 1.77916 13.9528 2.4327 14.2858 2.93588L12.1641 5.05756C11.5699 4.66477 10.7813 4.74434 10.2775 5.24796C10.2718 5.25366 10.2685 5.26026 10.2631 5.26565L8.50994 3.91816C8.8467 3.16173 8.50649 2.27555 7.75006 1.93879C6.99363 1.60203 6.10745 1.94223 5.77069 2.69866C5.56241 3.16653 5.60735 3.70838 5.88991 4.13551L3.76853 6.25719C3.0778 5.80057 2.14773 5.99037 1.69111 6.6811C1.23452 7.37182 1.42428 8.3019 2.11501 8.75852ZM15.5353 1.21118C16.0321 1.21118 16.4348 1.61391 16.4348 2.11071C16.4348 2.60751 16.0321 3.01024 15.5353 3.01024C15.0384 3.01024 14.6357 2.60751 14.6357 2.11071C14.6357 1.61391 15.0384 1.21118 15.5353 1.21118ZM10.7011 5.67265C10.8698 5.5038 11.0987 5.40894 11.3375 5.40898C11.8343 5.4089 12.237 5.81159 12.2371 6.30839C12.2371 6.5471 12.1423 6.77603 11.9734 6.94477C11.6174 7.28415 11.0576 7.28415 10.7015 6.94477C10.3501 6.59358 10.3499 6.02403 10.7011 5.67265ZM6.40287 2.79416L6.40294 2.79405C6.5393 2.59818 6.74829 2.46494 6.98344 2.42404C7.03565 2.41509 7.0885 2.41059 7.14146 2.41055C7.32552 2.41074 7.50505 2.4676 7.65569 2.57337C8.06261 2.85837 8.16148 3.41926 7.87648 3.82618C7.59148 4.23311 7.03059 4.33194 6.62367 4.04698C6.21674 3.76198 6.11787 3.20109 6.40287 2.79416ZM2.30548 6.87202C2.30563 6.87187 2.30575 6.87176 2.3059 6.87161C2.65731 6.52038 3.2269 6.52049 3.57813 6.87191C3.92936 7.22332 3.92924 7.79291 3.57783 8.14414C3.22176 8.48353 2.66196 8.48353 2.3059 8.14414C1.95448 7.79295 1.95433 7.2234 2.30548 6.87202Z" fill="white"/>
</g>
<defs>
<clipPath id="clip0_117_17076">
<rect width="18" height="18" fill="white" transform="translate(0.238281 0.600586)"/>
</clipPath>
</defs>
</svg>
