<svg width="25" height="24" viewBox="0 0 25 24" fill="none" xmlns="http://www.w3.org/2000/svg">
<g clip-path="url(#clip0_117_14056)">
<path d="M24.6177 2.75885C24.6177 1.24182 23.3846 0.00878906 21.8676 0.00878906H3.36774C1.85071 0.00878906 0.617676 1.24182 0.617676 2.75885V21.2587C0.617676 22.7758 1.85071 24.0088 3.36774 24.0088H21.8676C23.3846 24.0088 24.6177 22.7758 24.6177 21.2587V2.75885Z" fill="#E0883C"/>
<path d="M18.6995 8.05188C19.0904 8.44281 19.0904 9.07471 18.6995 9.46582L12.1994 15.9657C12.0044 16.1607 11.7484 16.2589 11.4924 16.2589C11.2365 16.2589 10.9805 16.1607 10.7855 15.9657L7.53552 12.7158C7.14441 12.3248 7.14441 11.6927 7.53552 11.3018C7.92645 10.9107 8.55835 10.9107 8.94946 11.3018L11.4924 13.8448L17.2855 8.05188C17.6765 7.66077 18.3083 7.66077 18.6995 8.05188Z" fill="#FAFAFA"/>
</g>
<defs>
<clipPath id="clip0_117_14056">
<rect x="0.617676" y="0.00878906" width="24" height="24" rx="12" fill="white"/>
</clipPath>
</defs>
</svg>
