<svg width="50" height="51" viewBox="0 0 50 51" fill="none" xmlns="http://www.w3.org/2000/svg">
<g clip-path="url(#clip0_117_14189)">
<path d="M50 6.325C50 3.16452 47.4312 0.595703 44.2707 0.595703H5.72929C2.56882 0.595703 0 3.16452 0 6.325V44.8664C0 48.0269 2.56882 50.5957 5.72929 50.5957H44.2707C47.4312 50.5957 50 48.0269 50 44.8664V6.325Z" fill="#E0883C"/>
<path d="M37.6711 17.3521C38.4855 18.1665 38.4855 19.483 37.6711 20.2978L24.1293 33.8392C23.723 34.2455 23.1897 34.4499 22.6564 34.4499C22.1231 34.4499 21.5898 34.2455 21.1836 33.8392L14.4129 27.0685C13.5981 26.2541 13.5981 24.9372 14.4129 24.1228C15.2273 23.308 16.5438 23.308 17.3586 24.1228L22.6564 29.4206L34.7254 17.3521C35.5398 16.5373 36.8563 16.5373 37.6711 17.3521Z" fill="#FAFAFA"/>
</g>
<defs>
<clipPath id="clip0_117_14189">
<rect y="0.595703" width="50" height="50" rx="25" fill="white"/>
</clipPath>
</defs>
</svg>
