<svg width="21" height="21" viewBox="0 0 21 21" fill="none" xmlns="http://www.w3.org/2000/svg">
<path d="M5.8337 10.5916C5.9389 10.7866 6.13894 10.9081 6.35651 10.9081H9.74438V17.5976C9.74438 17.9353 10.0122 18.2095 10.3421 18.2095C10.672 18.2095 10.9398 17.9353 10.9398 17.5976V10.9081H14.3277C14.5461 10.9081 14.7461 10.7866 14.8505 10.5916C14.9565 10.3966 14.9493 10.1583 14.8338 9.96988L10.8482 3.49503C10.7382 3.31717 10.5477 3.20947 10.3421 3.20947C10.1365 3.20947 9.94601 3.31717 9.83603 3.49503L5.85044 9.96988C5.78987 10.0694 5.75879 10.1828 5.75879 10.2962C5.75879 10.3974 5.78429 10.4994 5.8337 10.5916" fill="#11CABE"/>
</svg>
