<svg width="29" height="29" viewBox="0 0 29 29" fill="none" xmlns="http://www.w3.org/2000/svg">
<g clip-path="url(#clip0_117_16619)">
<path d="M19.1834 11.9584C19.6499 11.4966 19.9395 10.8565 19.9395 10.1497C19.9395 8.746 18.7972 7.604 17.3932 7.604C16.3113 7.604 15.3524 8.28984 14.9944 9.29484C14.8443 9.26717 14.69 9.25197 14.532 9.25197C14.374 9.25197 14.2196 9.26717 14.0695 9.29484C13.7115 8.28979 12.7525 7.604 11.6707 7.604C10.2667 7.604 9.12444 8.746 9.12444 10.1497C9.12444 10.8565 9.41406 11.4966 9.8806 11.9584C8.76147 12.5959 8.04102 13.8031 8.04102 15.116C8.04102 15.3425 8.22466 15.5261 8.45117 15.5261C8.67769 15.5261 8.86133 15.3425 8.86133 15.116C8.86133 13.9564 9.58731 12.9035 10.6694 12.4905C10.9769 12.6226 11.3154 12.696 11.6708 12.696C11.8273 12.696 11.9823 12.6809 12.134 12.6529C12.2636 13.0155 12.4731 13.3404 12.7414 13.6062C11.6121 14.2456 10.9024 15.4438 10.9024 16.7641C10.9024 16.9907 11.086 17.1743 11.3125 17.1743C11.5391 17.1743 11.7227 16.9907 11.7227 16.7641C11.7227 15.6325 12.3962 14.6163 13.4386 14.1754C13.4665 14.1636 13.4922 14.1489 13.516 14.1321C13.8274 14.2682 14.1709 14.3442 14.532 14.3442C14.8874 14.3442 15.226 14.2708 15.5335 14.1387C16.6151 14.5516 17.3412 15.6057 17.3412 16.7641C17.3412 16.9907 17.5249 17.1743 17.7514 17.1743C17.9779 17.1743 18.1615 16.9907 18.1615 16.7641C18.1615 15.4524 17.4409 14.2443 16.3221 13.6065C16.5906 13.3407 16.8003 13.0157 16.93 12.6529C17.0817 12.6809 17.2367 12.696 17.3932 12.696C17.7485 12.696 18.087 12.6226 18.3945 12.4905C19.4766 12.9035 20.2025 13.9563 20.2025 15.116C20.2025 15.3425 20.3862 15.5261 20.6127 15.5261C20.8392 15.5261 21.0229 15.3425 21.0229 15.116C21.023 13.803 20.3025 12.5959 19.1834 11.9584ZM11.9859 11.7981C11.9859 11.8143 11.9869 11.8301 11.9871 11.8461C11.8838 11.8654 11.778 11.8757 11.6708 11.8757C10.7191 11.8757 9.94481 11.1015 9.94481 10.1497C9.94481 9.19837 10.7191 8.42432 11.6708 8.42432C12.405 8.42432 13.0554 8.89021 13.2974 9.57238C12.516 10.0076 11.9859 10.842 11.9859 11.7981ZM12.8062 11.7981C12.8062 10.8466 13.5804 10.0723 14.532 10.0723C15.4836 10.0723 16.2578 10.8465 16.2578 11.7981C16.2578 12.7497 15.4836 13.5239 14.532 13.5239C13.5804 13.5239 12.8062 12.7497 12.8062 11.7981ZM17.0769 11.8461C17.0771 11.8301 17.0781 11.8142 17.0781 11.7981C17.0781 10.842 16.548 10.0076 15.7665 9.57244C16.0086 8.89026 16.659 8.42438 17.3932 8.42438C18.3449 8.42438 19.1192 9.19837 19.1192 10.1498C19.1192 11.1015 18.3449 11.8757 17.3932 11.8757C17.286 11.8757 17.1802 11.8654 17.0769 11.8461Z" fill="white"/>
<path d="M25.1537 17.992V10.5365C26.1761 10.3436 26.952 9.44432 26.952 8.3667C26.952 7.1488 25.9612 6.15802 24.7433 6.15802C24.074 6.15802 23.4737 6.45771 23.0684 6.92945L16.6159 3.20384C16.6961 2.9753 16.7403 2.72986 16.7403 2.47419C16.7403 1.2564 15.7495 0.265625 14.5317 0.265625C13.3139 0.265625 12.323 1.2564 12.323 2.47425C12.323 2.72991 12.3672 2.9753 12.4474 3.20389L5.99498 6.92945C5.58964 6.45771 4.98933 6.15802 4.32001 6.15802C3.10211 6.15802 2.11133 7.1488 2.11133 8.3667C2.11133 9.44432 2.88724 10.3436 3.90963 10.5365V17.992C2.88724 18.1849 2.11133 19.0842 2.11133 20.1618C2.11133 21.3797 3.10211 22.3705 4.32001 22.3705C4.98829 22.3705 5.58772 22.0717 5.99307 21.6013L12.4474 25.3276C12.3672 25.5561 12.323 25.8014 12.323 26.057C12.323 27.2749 13.3138 28.2657 14.5317 28.2657C15.7496 28.2657 16.7404 27.2749 16.7404 26.057C16.7404 25.8014 16.6962 25.5561 16.616 25.3276L23.0703 21.6013C23.4757 22.0718 24.0751 22.3705 24.7434 22.3705C25.9613 22.3705 26.9521 21.3797 26.9521 20.1618C26.952 19.0841 26.176 18.1849 25.1537 17.992ZM24.7433 6.97834C25.5089 6.97834 26.1317 7.60118 26.1317 8.3667C26.1317 9.13222 25.5089 9.75506 24.7433 9.75506C23.9778 9.75506 23.355 9.13222 23.355 8.3667C23.355 7.60118 23.9778 6.97834 24.7433 6.97834ZM14.5317 1.08594C15.2972 1.08594 15.9201 1.70873 15.9201 2.47425C15.9201 3.23906 15.2984 3.8614 14.5338 3.86255C14.5331 3.86255 14.5324 3.86244 14.5317 3.86244C14.531 3.86244 14.5303 3.86255 14.5296 3.86255C13.765 3.8614 13.1433 3.23906 13.1433 2.47425C13.1433 1.70873 13.7661 1.08594 14.5317 1.08594ZM2.93165 8.3667C2.93165 7.60118 3.55449 6.97834 4.32001 6.97834C5.08553 6.97834 5.70836 7.60118 5.70836 8.3667C5.70836 9.13222 5.08553 9.75506 4.32001 9.75506C3.55449 9.75506 2.93165 9.13222 2.93165 8.3667ZM4.32001 21.5501C3.55449 21.5501 2.93165 20.9273 2.93165 20.1618C2.93165 19.3962 3.55449 18.7734 4.32001 18.7734C5.08553 18.7734 5.70836 19.3962 5.70836 20.1618C5.70836 20.9273 5.08553 21.5501 4.32001 21.5501ZM14.5317 27.4453C13.7662 27.4453 13.1433 26.8225 13.1433 26.0569C13.1433 25.2914 13.7662 24.6686 14.5317 24.6686C15.2972 24.6686 15.9201 25.2914 15.9201 26.0569C15.9201 26.8225 15.2972 27.4453 14.5317 27.4453ZM16.2049 24.6177C15.8846 24.2458 15.443 23.9816 14.9418 23.8871V22.3069C14.9418 22.0804 14.7582 21.8968 14.5316 21.8968C14.3051 21.8968 14.1215 22.0804 14.1215 22.3069V23.8871C13.6204 23.9817 13.1788 24.2458 12.8584 24.6177L6.40421 20.8915C6.48449 20.6629 6.52863 20.4175 6.52863 20.1618C6.52863 19.9059 6.48438 19.6603 6.40399 19.4315L7.77283 18.641C7.969 18.5277 8.03615 18.2768 7.92289 18.0807C7.80963 17.8845 7.55878 17.8174 7.36256 17.9306L5.99252 18.7218C5.67222 18.3503 5.23078 18.0864 4.72989 17.9919V10.5366C5.23094 10.4422 5.67249 10.1781 5.9928 9.80635L7.36469 10.5986C7.42928 10.6359 7.49983 10.6536 7.56945 10.6536C7.71114 10.6536 7.84901 10.5801 7.92497 10.4486C8.03828 10.2524 7.97107 10.0015 7.77491 9.88822L6.40405 9.09656C6.48433 8.86791 6.52852 8.62242 6.52852 8.3667C6.52852 8.11207 6.48471 7.86761 6.40503 7.63984L12.8584 3.91369C13.1787 4.28545 13.6203 4.5496 14.1213 4.6441V6.22441C14.1213 6.45098 14.305 6.63457 14.5315 6.63457C14.758 6.63457 14.9416 6.45098 14.9416 6.22441V4.6441C15.4427 4.5496 15.8842 4.28545 16.2045 3.91369L22.6579 7.63984C22.5783 7.86761 22.5344 8.11207 22.5344 8.3667C22.5344 8.62242 22.5786 8.86791 22.6589 9.09656L21.288 9.88822C21.0919 10.0015 21.0247 10.2524 21.138 10.4486C21.2139 10.5801 21.3518 10.6536 21.4935 10.6536C21.5631 10.6536 21.6337 10.6359 21.6983 10.5986L23.0702 9.80635C23.3905 10.1781 23.8321 10.4422 24.3331 10.5366V17.9919C23.8322 18.0864 23.3908 18.3503 23.0704 18.7218L21.7004 17.9306C21.5042 17.8175 21.2534 17.8845 21.1401 18.0807C21.0268 18.2768 21.094 18.5277 21.2901 18.641L22.659 19.4315C22.5786 19.6603 22.5343 19.9059 22.5343 20.1618C22.5343 20.4175 22.5785 20.6629 22.6587 20.8915L16.2049 24.6177ZM24.7433 21.5501C23.9778 21.5501 23.355 20.9273 23.355 20.1618C23.355 19.3962 23.9778 18.7734 24.7433 18.7734C25.5089 18.7734 26.1317 19.3962 26.1317 20.1618C26.1317 20.9273 25.5089 21.5501 24.7433 21.5501Z" fill="white"/>
<path d="M17.9667 18.5034H16.7461C16.5196 18.5034 16.3359 18.687 16.3359 18.9136C16.3359 19.1401 16.5196 19.3237 16.7461 19.3237H17.9667C18.1932 19.3237 18.3769 19.1401 18.3769 18.9136C18.3769 18.687 18.1932 18.5034 17.9667 18.5034Z" fill="white"/>
<path d="M17.9675 20.1099H11.0967C10.8702 20.1099 10.6865 20.2934 10.6865 20.52C10.6865 20.7466 10.8702 20.9302 11.0967 20.9302H17.9675C18.194 20.9302 18.3777 20.7466 18.3777 20.52C18.3777 20.2934 18.194 20.1099 17.9675 20.1099Z" fill="white"/>
<path d="M11.0967 19.3237H11.1024C11.3289 19.3237 11.5125 19.1401 11.5125 18.9136C11.5125 18.687 11.3289 18.5034 11.1024 18.5034H11.0967C10.8702 18.5034 10.6865 18.687 10.6865 18.9136C10.6865 19.1401 10.8702 19.3237 11.0967 19.3237Z" fill="white"/>
<path d="M12.5223 19.3237C12.7488 19.3237 12.9324 19.1401 12.9324 18.9136C12.9324 18.687 12.7488 18.5034 12.5223 18.5034H12.5166C12.2901 18.5034 12.1064 18.687 12.1064 18.9136C12.1064 19.1401 12.2901 19.3237 12.5166 19.3237H12.5223Z" fill="white"/>
<path d="M13.9432 19.3237C14.1697 19.3237 14.3533 19.1401 14.3533 18.9136C14.3533 18.687 14.1697 18.5034 13.9432 18.5034H13.9375C13.711 18.5034 13.5273 18.687 13.5273 18.9136C13.5273 19.1401 13.711 19.3237 13.9375 19.3237H13.9432Z" fill="white"/>
</g>
<defs>
<clipPath id="clip0_117_16619">
<rect width="28" height="28" fill="white" transform="translate(0.53125 0.265625)"/>
</clipPath>
</defs>
</svg>
