<svg width="34" height="35" viewBox="0 0 34 35" fill="none" xmlns="http://www.w3.org/2000/svg">
<g clip-path="url(#clip0_117_4740)">
<path d="M33.5251 17.5301C33.5251 26.7237 26.0728 34.176 16.8793 34.176C7.68609 34.176 0.233398 26.7237 0.233398 17.5301C0.233398 8.3368 7.68609 0.884277 16.8793 0.884277C26.0728 0.884277 33.5251 8.3368 33.5251 17.5301Z" fill="#1BA27A"/>
<path d="M24.6926 9.27783H8.93066V13.0831H14.909V18.6761H18.7143V13.0831H24.6926V9.27783Z" fill="white"/>
<path d="M16.8471 19.2722C11.9016 19.2722 7.89212 18.4895 7.89212 17.5239C7.89212 16.5585 11.9014 15.7756 16.8471 15.7756C21.7926 15.7756 25.8019 16.5585 25.8019 17.5239C25.8019 18.4895 21.7926 19.2722 16.8471 19.2722ZM26.902 17.8154C26.902 16.5703 22.4003 15.561 16.8471 15.561C11.294 15.561 6.79199 16.5703 6.79199 17.8154C6.79199 18.9118 10.2828 19.8254 14.9085 20.0278V28.0568H18.7134V20.0309C23.3748 19.8349 26.902 18.9175 26.902 17.8154Z" fill="white"/>
</g>
<defs>
<clipPath id="clip0_117_4740">
<rect width="33.4582" height="33.4582" fill="white" transform="translate(0.0976562 0.806641)"/>
</clipPath>
</defs>
</svg>
