<svg width="24" height="24" viewBox="0 0 24 24" fill="none" xmlns="http://www.w3.org/2000/svg">
<g clip-path="url(#clip0_117_16598)">
<path d="M23.3055 11.996C23.3055 18.3159 18.1826 23.4388 11.8627 23.4388C5.54309 23.4388 0.419922 18.3159 0.419922 11.996C0.419922 5.67627 5.54309 0.553223 11.8627 0.553223C18.1826 0.553223 23.3055 5.67627 23.3055 11.996Z" fill="#1BA27A"/>
<path d="M17.2336 6.32324H6.39844V8.93906H10.5081V12.7838H13.1239V8.93906H17.2336V6.32324Z" fill="white"/>
<path d="M11.8408 13.1933C8.44119 13.1933 5.68496 12.6552 5.68496 11.9914C5.68496 11.3277 8.44107 10.7896 11.8408 10.7896C15.2405 10.7896 17.9966 11.3277 17.9966 11.9914C17.9966 12.6552 15.2405 13.1933 11.8408 13.1933ZM18.7529 12.1918C18.7529 11.3359 15.6583 10.6421 11.8408 10.6421C8.02353 10.6421 4.92871 11.3359 4.92871 12.1918C4.92871 12.9455 7.32838 13.5735 10.5082 13.7126V19.232H13.1238V13.7148C16.3281 13.58 18.7529 12.9494 18.7529 12.1918Z" fill="white"/>
</g>
<defs>
<clipPath id="clip0_117_16598">
<rect width="23" height="23" fill="white" transform="translate(0.326172 0.5)"/>
</clipPath>
</defs>
</svg>
