<svg width="39" height="39" viewBox="0 0 39 39" fill="none" xmlns="http://www.w3.org/2000/svg">
<rect x="0.765625" y="0.228027" width="37.9863" height="37.9863" fill="#004662"/>
<g clip-path="url(#clip0_117_12822)">
<path d="M32.2278 14.3095C32.1716 13.0343 31.9654 12.1576 31.67 11.3979C31.3652 10.5915 30.8964 9.86959 30.2821 9.26944C29.682 8.65994 28.9553 8.18634 28.1582 7.88635C27.3942 7.59095 26.5221 7.38473 25.2468 7.32851C23.9621 7.26752 23.5543 7.25342 20.2958 7.25342C17.0374 7.25342 16.6295 7.26752 15.3495 7.32374C14.0743 7.37997 13.1976 7.58637 12.4381 7.88159C11.6316 8.18634 10.9096 8.65518 10.3095 9.26944C9.69998 9.86959 9.22656 10.5963 8.92639 11.3933C8.63099 12.1576 8.42477 13.0295 8.36854 14.3047C8.30756 15.5895 8.29346 15.9973 8.29346 19.2558C8.29346 22.5142 8.30756 22.9221 8.36378 24.202C8.42001 25.4773 8.62641 26.354 8.92181 27.1136C9.22656 27.92 9.69998 28.6419 10.3095 29.2421C10.9096 29.8516 11.6363 30.3252 12.4334 30.6252C13.1976 30.9206 14.0695 31.1268 15.3449 31.183C16.6247 31.2394 17.0328 31.2533 20.2912 31.2533C23.5497 31.2533 23.9575 31.2394 25.2375 31.183C26.5127 31.1268 27.3894 30.9206 28.1489 30.6252C29.7618 30.0016 31.037 28.7264 31.6606 27.1136C31.9559 26.3494 32.1623 25.4773 32.2185 24.202C32.2747 22.9221 32.2888 22.5142 32.2888 19.2558C32.2888 15.9973 32.284 15.5895 32.2278 14.3095ZM30.0666 24.1083C30.0149 25.2804 29.818 25.9133 29.654 26.3353C29.2507 27.3808 28.4209 28.2106 27.3753 28.6139C26.9534 28.778 26.3158 28.9749 25.1483 29.0263C23.8824 29.0828 23.5028 29.0967 20.3006 29.0967C17.0983 29.0967 16.7139 29.0828 15.4526 29.0263C14.2805 28.9749 13.6476 28.778 13.2256 28.6139C12.7053 28.4216 12.2317 28.1169 11.8473 27.7184C11.4488 27.3292 11.1441 26.8603 10.9518 26.34C10.7877 25.9181 10.5908 25.2804 10.5393 24.113C10.4829 22.8472 10.469 22.4673 10.469 19.2651C10.469 16.0629 10.4829 15.6785 10.5393 14.4174C10.5908 13.2452 10.7877 12.6123 10.9518 12.1904C11.1441 11.6699 11.4488 11.1964 11.8521 10.8119C12.2411 10.4133 12.7099 10.1086 13.2304 9.91647C13.6524 9.75238 14.2901 9.5555 15.4574 9.50386C16.7233 9.44763 17.1031 9.43353 20.3051 9.43353C23.5121 9.43353 23.8918 9.44763 25.1531 9.50386C26.3252 9.5555 26.9581 9.75238 27.3801 9.91647C27.9004 10.1086 28.374 10.4133 28.7584 10.8119C29.1569 11.201 29.4617 11.6699 29.654 12.1904C29.818 12.6123 30.0149 13.2498 30.0666 14.4174C30.1228 15.6832 30.1369 16.0629 30.1369 19.2651C30.1369 22.4673 30.1228 22.8424 30.0666 24.1083Z" fill="#E0883C"/>
<path d="M20.2961 13.0905C16.8924 13.0905 14.1309 15.8519 14.1309 19.2557C14.1309 22.6596 16.8924 25.421 20.2961 25.421C23.7 25.421 26.4614 22.6596 26.4614 19.2557C26.4614 15.8519 23.7 13.0905 20.2961 13.0905ZM20.2961 23.255C18.088 23.255 16.2969 21.464 16.2969 19.2557C16.2969 17.0474 18.088 15.2565 20.2961 15.2565C22.5044 15.2565 24.2954 17.0474 24.2954 19.2557C24.2954 21.464 22.5044 23.255 20.2961 23.255Z" fill="#E0883C"/>
<path d="M28.1444 12.847C28.1444 13.6419 27.4999 14.2863 26.7049 14.2863C25.9101 14.2863 25.2656 13.6419 25.2656 12.847C25.2656 12.052 25.9101 11.4077 26.7049 11.4077C27.4999 11.4077 28.1444 12.052 28.1444 12.847Z" fill="#E0883C"/>
</g>
<defs>
<clipPath id="clip0_117_12822">
<rect width="24" height="24" fill="white" transform="translate(8.25146 7.25342)"/>
</clipPath>
</defs>
</svg>
