<svg width="39" height="39" viewBox="0 0 39 39" fill="none" xmlns="http://www.w3.org/2000/svg">
<rect x="0.540039" y="0.959717" width="37.9863" height="37.9863" fill="#003A52"/>
<path fill-rule="evenodd" clip-rule="evenodd" d="M19.5332 10.0747C15.5434 10.0747 10.365 11.0788 10.365 11.0788L10.3519 11.0938C8.53477 11.3857 7.14258 12.9541 7.14258 14.8616V20.6058V25.111C7.14624 26.9947 8.5106 28.595 10.3612 28.8881L10.365 28.8937C10.365 28.8937 15.5434 29.8997 19.5332 29.8997C23.523 29.8997 28.7014 28.8937 28.7014 28.8937C30.5561 28.5993 31.9219 26.9967 31.9238 25.1128V20.6077V14.8616C31.9211 12.979 30.5565 11.3777 28.7052 11.0844C28.7014 11.0788 23.523 10.0747 19.5332 10.0747ZM17.0557 15.6489L24.49 19.9856L17.0557 24.3224V15.6489Z" fill="#E0883C"/>
</svg>
