<svg width="20" height="20" viewBox="0 0 20 20" fill="none" xmlns="http://www.w3.org/2000/svg">
<g clip-path="url(#clip0_117_4941)">
<path d="M19.2749 11.4694V7.6111C19.2747 7.47857 19.2464 7.34759 19.1918 7.22684C19.1372 7.10608 19.0576 6.9983 18.9582 6.91063V4.44443C18.9582 4.19248 18.8581 3.95084 18.68 3.77268C18.5018 3.59452 18.2602 3.49443 18.0082 3.49443H15.8622C15.2948 2.76116 14.4946 2.24298 13.5934 2.02523C12.6922 1.80748 11.7437 1.90315 10.9041 2.29648C10.4376 1.78654 9.85005 1.40245 9.19578 1.17973C8.54151 0.957014 7.84164 0.902857 7.1609 1.02227C6.48016 1.14168 5.84051 1.43081 5.30111 1.86292C4.76171 2.29502 4.33996 2.85616 4.07487 3.49443H2.8082C2.30481 3.4961 1.8225 3.69682 1.46654 4.05278C1.11059 4.40873 0.909873 4.89104 0.908203 5.39443L0.908203 18.0611C0.908706 18.5649 1.10905 19.0478 1.46526 19.404C1.82147 19.7603 2.30445 19.9606 2.8082 19.9611H18.3249C18.5768 19.9611 18.8185 19.861 18.9966 19.6829C19.1748 19.5047 19.2749 19.2631 19.2749 19.0111V15.1528C19.4595 15.0876 19.6194 14.9669 19.7327 14.8073C19.8461 14.6476 19.9074 14.4569 19.9082 14.2611V12.3611C19.9074 12.1653 19.8461 11.9746 19.7327 11.8149C19.6194 11.6553 19.4595 11.5346 19.2749 11.4694ZM18.3249 4.44443V6.6611H16.6874C16.7217 6.45169 16.7398 6.23995 16.7415 6.02777C16.7426 5.36618 16.5832 4.71421 16.277 4.12777H18.0082C18.0922 4.12777 18.1727 4.16113 18.2321 4.22052C18.2915 4.2799 18.3249 4.36045 18.3249 4.44443ZM15.4552 3.99635C15.7321 4.37576 15.9275 4.8084 16.029 5.26701C16.1304 5.72563 16.1359 6.20029 16.0449 6.6611H9.20487C9.05932 5.88254 9.18372 5.07763 9.55751 4.37934C9.93131 3.68105 10.5321 3.13117 11.2607 2.82054C11.9893 2.50992 12.8021 2.45714 13.5647 2.67093C14.3274 2.88471 14.9943 3.35227 15.4552 3.99635ZM7.87487 1.59443C8.33126 1.59379 8.7833 1.68309 9.20516 1.85724C9.62702 2.03138 10.0104 2.28696 10.3335 2.60935C9.67833 3.04137 9.16239 3.65396 8.84807 4.37302C8.53375 5.09209 8.43451 5.88682 8.56235 6.6611H4.77755C4.50422 6.13076 4.37204 5.53898 4.39376 4.94274C4.41547 4.3465 4.59035 3.7659 4.90154 3.25685C5.21273 2.74779 5.64975 2.32745 6.17051 2.03628C6.69128 1.74512 7.27824 1.59295 7.87487 1.59443ZM1.54154 5.39443C1.54287 5.0589 1.67675 4.7375 1.91401 4.50024C2.15127 4.26298 2.47267 4.1291 2.8082 4.12777H3.87315C3.66839 4.97195 3.7384 5.85945 4.07297 6.6611H2.8747C2.55028 6.66706 2.23508 6.55298 1.98961 6.34077C1.74415 6.12856 1.58571 5.83316 1.5447 5.51128C1.54143 5.47348 1.54038 5.43552 1.54154 5.3976V5.39443ZM18.3249 19.3278H2.8082C2.47226 19.3278 2.15008 19.1943 1.91253 18.9568C1.67499 18.7192 1.54154 18.397 1.54154 18.0611V15.5278H3.62837C3.72147 15.5278 3.81344 15.5482 3.8978 15.5876C3.98216 15.627 4.05687 15.6844 4.11667 15.7558L4.63157 16.3749C4.44661 16.628 4.36045 16.9399 4.3893 17.2521C4.41814 17.5643 4.56 17.8552 4.78821 18.0701C5.01642 18.2851 5.31528 18.4093 5.62862 18.4194C5.94195 18.4295 6.2482 18.3248 6.48981 18.1251C6.73142 17.9253 6.89175 17.6442 6.94068 17.3345C6.98961 17.0249 6.92376 16.708 6.75552 16.4435C6.58727 16.1789 6.32821 15.9849 6.02702 15.898C5.72583 15.811 5.40324 15.837 5.11987 15.9711L4.60402 15.3511C4.48495 15.2079 4.33579 15.0928 4.16716 15.0139C3.99852 14.9349 3.81456 14.8942 3.62837 14.8944H1.54154V13.6278H6.96984C7.04691 13.9263 7.23021 14.1864 7.48537 14.3595C7.74054 14.5325 8.05005 14.6065 8.35589 14.5677C8.66173 14.5288 8.9429 14.3798 9.1467 14.1484C9.35051 13.9171 9.46295 13.6194 9.46295 13.3111C9.46295 13.0028 9.35051 12.7051 9.1467 12.4738C8.9429 12.2424 8.66173 12.0934 8.35589 12.0545C8.05005 12.0157 7.74054 12.0897 7.48537 12.2627C7.23021 12.4358 7.04691 12.6959 6.96984 12.9944H1.54154V11.7278H3.62837C3.81437 11.7278 3.99811 11.687 4.1666 11.6082C4.33508 11.5294 4.4842 11.4146 4.60339 11.2718L5.11987 10.6511C5.28762 10.7329 5.47156 10.7762 5.6582 10.7778C5.94475 10.7797 6.22358 10.685 6.44974 10.5091C6.67591 10.3331 6.83622 10.0861 6.90483 9.8079C6.97343 9.52968 6.94634 9.23647 6.82791 8.97554C6.70948 8.71461 6.50662 8.50117 6.25204 8.36964C5.99746 8.23811 5.706 8.19615 5.42466 8.25054C5.14332 8.30493 4.8885 8.45249 4.70128 8.66942C4.51407 8.88636 4.40537 9.16002 4.39272 9.44629C4.38008 9.73256 4.46422 10.0148 4.63157 10.2474L4.11762 10.8655C4.05776 10.9371 3.98293 10.9947 3.8984 11.0343C3.81387 11.0738 3.7217 11.0944 3.62837 11.0944H1.54154V6.78777C1.90897 7.11407 2.38329 7.29434 2.8747 7.29443H18.3249C18.4089 7.29443 18.4894 7.3278 18.5488 7.38718C18.6082 7.44657 18.6415 7.52711 18.6415 7.6111V11.4111H17.0582C16.5543 11.4111 16.071 11.6113 15.7147 11.9676C15.3584 12.3239 15.1582 12.8072 15.1582 13.3111C15.1582 13.815 15.3584 14.2983 15.7147 14.6546C16.071 15.0109 16.5543 15.2111 17.0582 15.2111H18.6415V19.0111C18.6415 19.0951 18.6082 19.1756 18.5488 19.235C18.4894 19.2944 18.4089 19.3278 18.3249 19.3278ZM5.6582 16.4778C5.78346 16.4778 5.90591 16.5149 6.01006 16.5845C6.11422 16.6541 6.19539 16.753 6.24333 16.8687C6.29126 16.9845 6.3038 17.1118 6.27937 17.2347C6.25493 17.3575 6.19461 17.4704 6.10604 17.5589C6.01746 17.6475 5.90461 17.7078 5.78176 17.7323C5.65891 17.7567 5.53156 17.7442 5.41584 17.6962C5.30011 17.6483 5.2012 17.5671 5.13161 17.463C5.06201 17.3588 5.02487 17.2364 5.02487 17.1111C5.02487 16.9431 5.0916 16.782 5.21037 16.6633C5.32914 16.5445 5.49023 16.4778 5.6582 16.4778ZM7.5582 13.3111C7.5582 13.1858 7.59535 13.0634 7.66494 12.9592C7.73453 12.8551 7.83344 12.7739 7.94917 12.726C8.0649 12.678 8.19224 12.6655 8.31509 12.6899C8.43795 12.7144 8.5508 12.7747 8.63937 12.8633C8.72794 12.9518 8.78826 13.0647 8.8127 13.1875C8.83714 13.3104 8.8246 13.4377 8.77666 13.5535C8.72872 13.6692 8.64755 13.7681 8.5434 13.8377C8.43925 13.9073 8.3168 13.9444 8.19154 13.9444C8.02357 13.9444 7.86248 13.8777 7.7437 13.7589C7.62493 13.6402 7.5582 13.4791 7.5582 13.3111ZM5.02487 9.5111C5.02487 9.38584 5.06201 9.26339 5.13161 9.15924C5.2012 9.05509 5.30011 8.97391 5.41584 8.92598C5.53156 8.87804 5.65891 8.8655 5.78176 8.88994C5.90461 8.91437 6.01746 8.97469 6.10604 9.06327C6.19461 9.15184 6.25493 9.26469 6.27937 9.38754C6.3038 9.5104 6.29126 9.63774 6.24333 9.75347C6.19539 9.86919 6.11422 9.96811 6.01006 10.0377C5.90591 10.1073 5.78346 10.1444 5.6582 10.1444C5.49023 10.1444 5.32914 10.0777 5.21037 9.95893C5.0916 9.84016 5.02487 9.67907 5.02487 9.5111ZM19.2749 14.2611C19.2749 14.3451 19.2415 14.4256 19.1821 14.485C19.1227 14.5444 19.0422 14.5778 18.9582 14.5778H17.0582C16.7223 14.5778 16.4001 14.4443 16.1625 14.2068C15.925 13.9692 15.7915 13.647 15.7915 13.3111C15.7915 12.9752 15.925 12.653 16.1625 12.4154C16.4001 12.1779 16.7223 12.0444 17.0582 12.0444H18.9582C19.0422 12.0444 19.1227 12.0778 19.1821 12.1372C19.2415 12.1966 19.2749 12.2771 19.2749 12.3611V14.2611Z" fill="white"/>
</g>
<defs>
<clipPath id="clip0_117_4941">
<rect width="19" height="19" fill="white" transform="translate(0.908203 0.961426)"/>
</clipPath>
</defs>
</svg>
