<svg width="182" height="50" viewBox="0 0 182 50" fill="none" xmlns="http://www.w3.org/2000/svg">
<path d="M67.0808 35.3694H82.1247V32.4964H69.9514V26.231H81.1241V23.358H69.9514V17.0928H82.1247V14.2197H67.0808V35.3694Z" fill="white"/>
<path d="M94.4134 14.2197H87.6279V17.0926H94.4134V35.3694H97.284V17.0926H103.938V14.2197H97.284H94.4134Z" fill="white"/>
<path d="M109.808 23.358V26.231V35.3694H112.678V26.231H122.484V23.358H112.678V17.0928H123.885V14.2197H109.808V23.358Z" fill="white"/>
<path d="M154.436 14.2197H157.306V35.3694H154.436V14.2197Z" fill="white"/>
<path d="M133.091 26.231H136.124H137.56C139.552 26.231 141.919 30.2381 143.486 32.8897C144.015 33.7855 144.522 34.6434 145.009 35.3694H148.595L147.837 34.3914C147.294 33.6919 146.644 32.5921 145.957 31.4276C144.91 29.6558 143.737 27.6714 142.382 26.1133C145.126 25.5621 147.2 23.1319 147.2 20.2253C147.2 16.9139 144.508 14.2197 141.2 14.2197H130.221V35.3694H133.091V26.231ZM133.091 17.0928H141.2C142.926 17.0928 144.33 18.498 144.33 20.2255C144.33 21.9527 142.926 23.358 141.2 23.358H137.56H136.124H133.091V17.0928Z" fill="white"/>
<path d="M182 14.2197H178.5L172.832 22.3526L167.163 14.2197H163.664L171.082 24.8634L163.76 35.3694H167.259L172.832 27.3742L178.404 35.3694H181.904L174.582 24.8634L182 14.2197Z" fill="white"/>
<path d="M56.2051 3.08789H58.0625V49.5057H56.2051V3.08789Z" fill="white"/>
<path d="M8.76522 0.653441L0.0945071 20.2219C-0.151227 20.7765 0.0987726 21.4255 0.652899 21.6714L8.40516 25.1121C8.4132 25.1157 8.42144 25.1181 8.42952 25.1215C8.45008 25.1301 8.47077 25.1382 8.49188 25.1455C8.506 25.1504 8.52014 25.1548 8.53435 25.1591C8.55416 25.1651 8.57408 25.1706 8.5943 25.1754C8.61044 25.1793 8.62655 25.1827 8.64273 25.1859C8.66101 25.1894 8.67934 25.1925 8.69786 25.1951C8.71635 25.1977 8.7348 25.1997 8.75328 25.2014C8.76972 25.2028 8.78618 25.204 8.80276 25.2047C8.82352 25.2056 8.84416 25.2058 8.86483 25.2055C8.87975 25.2053 8.89465 25.2049 8.90967 25.2041C8.93178 25.2028 8.9537 25.2008 8.97561 25.1982C8.98445 25.1972 8.99317 25.1971 9.00202 25.1959L25.8935 22.8331C26.2401 22.7847 26.5428 22.5736 26.7084 22.2651C26.7216 22.2405 26.7337 22.2156 26.7449 22.1904C26.8744 21.8981 26.8707 21.5622 26.7317 21.2713L18.511 4.06559C18.5097 4.06291 18.5081 4.06052 18.5068 4.05785C18.4965 4.03679 18.4849 4.01643 18.4733 3.99604C18.4669 3.98472 18.461 3.97297 18.4542 3.96196C18.4424 3.94287 18.4293 3.92464 18.4163 3.90626C18.4084 3.89499 18.401 3.88316 18.3927 3.87227C18.3804 3.85612 18.3668 3.84096 18.3535 3.82548C18.3435 3.81368 18.3339 3.80126 18.3234 3.78995C18.3109 3.77654 18.2972 3.76421 18.284 3.7514C18.2715 3.73931 18.2595 3.72663 18.2465 3.7152C18.2345 3.70463 18.2214 3.6951 18.2089 3.68502C18.1935 3.67255 18.1783 3.65963 18.1622 3.64807C18.1508 3.63984 18.1385 3.63261 18.1266 3.62479C18.1083 3.61264 18.0901 3.60025 18.0711 3.58925C18.0594 3.58249 18.047 3.57667 18.035 3.57031C18.0148 3.55959 17.9947 3.54881 17.9738 3.53938C17.9711 3.53812 17.9685 3.53653 17.9658 3.53529L10.2135 0.0945862C9.65937 -0.151355 9.01095 0.0988572 8.76522 0.653441ZM9.91628 3.47504L13.5582 10.7729L10.1961 18.3605L2.83028 19.4671L9.91628 3.47504ZM4.70273 21.0656L9.3038 20.3743L8.29171 22.6585L4.70273 21.0656ZM23.5112 19.6235L18.9382 17.3933L16.4752 12.4576L15.4987 14.6614L16.8461 17.3615L14.1208 17.7709L13.2285 19.7847L18.1006 19.0528L22.3266 21.1137L10.654 22.7465L11.8763 19.9879L12.7687 17.9741L14.8301 13.3217L15.8066 11.1179L17.5584 7.16434L23.5112 19.6235ZM14.5346 8.5691L11.8723 3.23412L16.0725 5.09832L14.5346 8.5691Z" fill="white"/>
<path d="M28.7277 49.3461L37.3984 29.7776C37.6441 29.223 37.3941 28.5741 36.84 28.3281L29.0877 24.8874C29.0797 24.8838 29.0715 24.8814 29.0634 24.878C29.0428 24.8695 29.0221 24.8614 29.001 24.8541C28.9869 24.8492 28.9727 24.8447 28.9585 24.8404C28.9387 24.8345 28.9188 24.829 28.8986 24.8241C28.8825 24.8202 28.8663 24.8168 28.8502 24.8137C28.8319 24.8101 28.8135 24.807 28.795 24.8044C28.7765 24.8018 28.7581 24.7998 28.7396 24.7982C28.7232 24.7967 28.7067 24.7956 28.6901 24.7949C28.6694 24.794 28.6487 24.7938 28.6281 24.7941C28.6131 24.7943 28.5982 24.7947 28.5832 24.7955C28.5611 24.7967 28.5392 24.7988 28.5173 24.8013C28.5084 24.8024 28.4997 24.8024 28.4909 24.8037L11.5994 27.1664C11.2528 27.2149 10.95 27.426 10.7845 27.7345C10.7713 27.7591 10.7592 27.7839 10.748 27.8091C10.6185 28.1014 10.6222 28.4373 10.7612 28.7282L18.9819 45.9339C18.9832 45.9366 18.9848 45.939 18.9861 45.9417C18.9964 45.9628 19.008 45.9831 19.0196 46.0035C19.026 46.0148 19.0319 46.0266 19.0387 46.0376C19.0504 46.0567 19.0636 46.0749 19.0765 46.0933C19.0845 46.1045 19.0918 46.1164 19.1002 46.1273C19.1125 46.1434 19.1261 46.1586 19.1393 46.1741C19.1494 46.1859 19.159 46.1983 19.1695 46.2096C19.182 46.223 19.1957 46.2353 19.2089 46.2481C19.2214 46.2602 19.2334 46.2729 19.2464 46.2843C19.2584 46.2949 19.2714 46.3044 19.284 46.3145C19.2994 46.327 19.3146 46.3399 19.3307 46.3515C19.3421 46.3597 19.3544 46.3669 19.3662 46.3747C19.3846 46.3869 19.4028 46.3993 19.4218 46.4103C19.4335 46.4171 19.4459 46.4229 19.4579 46.4292C19.4781 46.4399 19.4982 46.4507 19.519 46.4602C19.5218 46.4614 19.5243 46.463 19.5271 46.4642L27.2794 49.905C27.8335 50.1509 28.4819 49.9007 28.7277 49.3461ZM27.5766 46.5245L23.9347 39.2267L27.2968 31.639L34.6626 30.5324L27.5766 46.5245ZM32.7902 28.934L28.1891 29.6252L29.2012 27.3411L32.7902 28.934ZM13.9817 30.376L18.5547 32.6063L21.0177 37.5419L21.9942 35.3382L20.6467 32.638L23.372 32.2286L24.2643 30.2148L19.3923 30.9468L15.1663 28.8858L26.8389 27.2531L25.6165 30.0117L24.7242 32.0255L22.6628 36.6779L21.6863 38.8816L19.9345 42.8352L13.9817 30.376ZM22.9582 41.4304L25.6206 46.7654L21.4204 44.9012L22.9582 41.4304Z" fill="white"/>
<path d="M39.382 25.4516L48.0527 5.88307C48.2984 5.32849 48.0484 4.67953 47.4943 4.43359L39.742 0.992883C39.734 0.989311 39.7258 0.986876 39.7177 0.983515C39.6971 0.974955 39.6764 0.966842 39.6553 0.959526C39.6412 0.954626 39.627 0.950196 39.6128 0.945913C39.593 0.93994 39.5731 0.934426 39.5529 0.92957C39.5368 0.925684 39.5206 0.922264 39.5045 0.919133C39.4862 0.915617 39.4678 0.91249 39.4493 0.909899C39.4308 0.907301 39.4124 0.905262 39.3939 0.903626C39.3775 0.902186 39.361 0.901021 39.3444 0.900317C39.3237 0.899429 39.303 0.899252 39.2824 0.899544C39.2674 0.899759 39.2525 0.900129 39.2375 0.900958C39.2154 0.902183 39.1935 0.904255 39.1716 0.906802C39.1627 0.907827 39.154 0.907901 39.1452 0.909144L22.2537 3.27189C21.9071 3.32035 21.6043 3.53142 21.4388 3.83995C21.4256 3.86454 21.4134 3.88937 21.4023 3.91456C21.2728 4.20687 21.2765 4.5428 21.4155 4.83368L29.6362 22.0394C29.6375 22.0421 29.6391 22.0445 29.6404 22.0472C29.6507 22.0682 29.6623 22.0886 29.6739 22.109C29.6803 22.1203 29.6862 22.132 29.693 22.143C29.7047 22.1621 29.7179 22.1804 29.7308 22.1987C29.7388 22.21 29.7461 22.2218 29.7545 22.2327C29.7668 22.2489 29.7804 22.264 29.7936 22.2795C29.8037 22.2913 29.8133 22.3037 29.8238 22.3151C29.8363 22.3285 29.85 22.3408 29.8632 22.3536C29.8757 22.3657 29.8877 22.3784 29.9007 22.3898C29.9126 22.4004 29.9257 22.4099 29.9383 22.42C29.9537 22.4325 29.9689 22.4454 29.9849 22.4569C29.9964 22.4652 30.0087 22.4724 30.0205 22.4802C30.0389 22.4924 30.0571 22.5048 30.0761 22.5158C30.0878 22.5225 30.1002 22.5283 30.1122 22.5347C30.1324 22.5454 30.1525 22.5562 30.1733 22.5656C30.1761 22.5669 30.1786 22.5685 30.1814 22.5697L37.9337 26.0104C38.4878 26.2564 39.1362 26.0062 39.382 25.4516ZM38.2309 22.63L34.589 15.3321L37.9511 7.74448L45.3169 6.63792L38.2309 22.63ZM43.4445 5.03944L38.8434 5.73067L39.8555 3.44654L43.4445 5.03944ZM24.636 6.4815L29.209 8.71173L31.672 13.6474L32.6485 11.4436L31.301 8.74351L34.0263 8.33409L34.9186 6.32029L30.0466 7.05223L25.8206 4.99127L37.4932 3.35854L36.2708 6.11715L35.3785 8.13095L33.3171 12.7833L32.3406 14.9871L30.5888 18.9407L24.636 6.4815ZM33.6125 17.5359L36.2749 22.8709L32.0747 21.0067L33.6125 17.5359Z" fill="white"/>
</svg>
