<svg width="154" height="43" viewBox="0 0 154 43" fill="none" xmlns="http://www.w3.org/2000/svg">
<path d="M56.6333 30.1242H69.2801V27.7111H59.0465V22.4484H68.4389V20.0352H59.0465V14.7726H69.2801V12.3594H56.6333V30.1242Z" fill="white"/>
<path d="M79.6108 12.3594H73.9065V14.7725H79.6108V30.1242H82.024V14.7725H87.6179V12.3594H82.024H79.6108Z" fill="white"/>
<path d="M92.552 20.0352V22.4484V30.1242H94.9652V22.4484H103.209V20.0352H94.9652V14.7726H104.386V12.3594H92.552V20.0352Z" fill="white"/>
<path d="M130.069 12.3594H132.482V30.1242H130.069V12.3594Z" fill="white"/>
<path d="M112.126 22.4484H114.675H115.882C117.557 22.4484 119.547 25.8141 120.864 28.0414C121.309 28.7939 121.735 29.5144 122.145 30.1242H125.159L124.521 29.3028C124.065 28.7153 123.519 27.7915 122.941 26.8134C122.061 25.3251 121.075 23.6582 119.936 22.3495C122.243 21.8865 123.986 19.8452 123.986 17.4038C123.986 14.6223 121.723 12.3594 118.942 12.3594H109.712V30.1242H112.126V22.4484ZM112.126 14.7726H118.942C120.393 14.7726 121.573 15.953 121.573 17.404C121.573 18.8548 120.393 20.0352 118.942 20.0352H115.882H114.675H112.126V14.7726Z" fill="white"/>
<path d="M153.241 12.3594H150.299L145.534 19.1907L140.769 12.3594H137.827L144.063 21.2996L137.907 30.1242H140.849L145.534 23.4086L150.218 30.1242H153.16L147.005 21.2996L153.241 12.3594Z" fill="white"/>
<path d="M47.4905 3.00879H49.0519V41.998H47.4905V3.00879Z" fill="white"/>
<path d="M7.60977 0.963904L0.320659 17.4007C0.11408 17.8665 0.324245 18.4116 0.790077 18.6182L7.30709 21.5082C7.31385 21.5112 7.32077 21.5133 7.32757 21.5161C7.34485 21.5233 7.36224 21.5301 7.37999 21.5363C7.39186 21.5404 7.40375 21.5441 7.41569 21.5477C7.43235 21.5527 7.4491 21.5573 7.46609 21.5614C7.47966 21.5647 7.4932 21.5676 7.5068 21.5702C7.52217 21.5731 7.53758 21.5758 7.55315 21.5779C7.5687 21.5801 7.5842 21.5818 7.59974 21.5832C7.61356 21.5844 7.62739 21.5854 7.64134 21.586C7.65879 21.5867 7.67614 21.5869 7.69352 21.5866C7.70606 21.5865 7.71859 21.5861 7.73121 21.5855C7.74979 21.5844 7.76822 21.5827 7.78665 21.5805C7.79407 21.5797 7.80141 21.5796 7.80885 21.5786L22.0088 19.594C22.3002 19.5533 22.5547 19.376 22.6939 19.1168C22.7049 19.0962 22.7152 19.0753 22.7246 19.0541C22.8334 18.8086 22.8303 18.5264 22.7134 18.2821L15.8026 3.82997C15.8015 3.82772 15.8002 3.82571 15.7991 3.82348C15.7905 3.80578 15.7807 3.78868 15.771 3.77155C15.7656 3.76205 15.7606 3.75218 15.7549 3.74293C15.745 3.7269 15.734 3.71159 15.7231 3.69614C15.7164 3.68668 15.7102 3.67674 15.7032 3.66759C15.6929 3.65403 15.6814 3.6413 15.6703 3.62829C15.6618 3.61838 15.6538 3.60795 15.6449 3.59845C15.6344 3.58719 15.6229 3.57683 15.6118 3.56606C15.6013 3.55591 15.5912 3.54526 15.5803 3.53566C15.5702 3.52678 15.5592 3.51878 15.5487 3.51031C15.5357 3.49984 15.523 3.48899 15.5095 3.47927C15.4999 3.47236 15.4895 3.46629 15.4795 3.45972C15.4641 3.44951 15.4488 3.43911 15.4328 3.42986C15.423 3.42419 15.4126 3.4193 15.4025 3.41396C15.3855 3.40496 15.3686 3.3959 15.3511 3.38798C15.3488 3.38692 15.3466 3.38559 15.3443 3.38455L8.82729 0.494488C8.36145 0.287907 7.81635 0.498075 7.60977 0.963904ZM8.57743 3.33394L11.639 9.46382L8.81267 15.8372L2.62051 16.7666L8.57743 3.33394ZM4.19461 18.1093L8.06254 17.5287L7.21171 19.4473L4.19461 18.1093ZM20.0062 16.898L16.1618 15.0247L14.0912 10.8789L13.2703 12.73L14.4031 14.998L12.112 15.3419L11.3619 17.0334L15.4577 16.4186L19.0103 18.1498L9.19762 19.5212L10.2252 17.2041L10.9753 15.5125L12.7083 11.6047L13.5292 9.75363L15.0018 6.43281L20.0062 16.898ZM12.4599 7.61275L10.2218 3.13158L13.7527 4.69743L12.4599 7.61275Z" fill="white"/>
<path d="M24.3915 41.8641L31.6806 25.4273C31.8872 24.9615 31.677 24.4164 31.2112 24.2098L24.6942 21.3197C24.6874 21.3167 24.6805 21.3147 24.6737 21.3119C24.6564 21.3047 24.639 21.2978 24.6213 21.2917C24.6094 21.2876 24.5975 21.2839 24.5856 21.2803C24.5689 21.2753 24.5522 21.2706 24.5352 21.2665C24.5216 21.2633 24.508 21.2604 24.4944 21.2578C24.4791 21.2548 24.4637 21.2522 24.4481 21.25C24.4326 21.2478 24.417 21.2461 24.4015 21.2448C24.3877 21.2435 24.3739 21.2426 24.3599 21.242C24.3425 21.2412 24.3251 21.2411 24.3077 21.2413C24.2952 21.2415 24.2827 21.2418 24.27 21.2425C24.2515 21.2435 24.233 21.2453 24.2146 21.2474C24.2072 21.2483 24.1998 21.2483 24.1924 21.2494L9.99246 23.234C9.70107 23.2747 9.44654 23.452 9.30735 23.7111C9.2963 23.7318 9.28607 23.7527 9.27668 23.7738C9.1678 24.0193 9.17096 24.3015 9.2878 24.5458L16.1986 38.998C16.1997 39.0002 16.2011 39.0022 16.2021 39.0045C16.2108 39.0222 16.2205 39.0393 16.2303 39.0564C16.2357 39.0659 16.2406 39.0758 16.2463 39.085C16.2562 39.1011 16.2673 39.1164 16.2782 39.1318C16.2848 39.1413 16.291 39.1512 16.298 39.1604C16.3084 39.1739 16.3198 39.1867 16.331 39.1997C16.3394 39.2096 16.3475 39.22 16.3563 39.2295C16.3668 39.2408 16.3784 39.2511 16.3895 39.2619C16.3999 39.272 16.41 39.2827 16.4209 39.2923C16.431 39.3012 16.442 39.3092 16.4525 39.3176C16.4655 39.3281 16.4783 39.339 16.4918 39.3487C16.5014 39.3556 16.5118 39.3617 16.5217 39.3682C16.5371 39.3784 16.5524 39.3888 16.5684 39.3981C16.5782 39.4038 16.5887 39.4087 16.5987 39.414C16.6157 39.423 16.6327 39.4321 16.6502 39.44C16.6525 39.441 16.6546 39.4424 16.657 39.4434L23.174 42.3335C23.6398 42.54 24.1849 42.3299 24.3915 41.8641ZM23.4238 39.494L20.3622 33.3641L23.1886 26.9908L29.3807 26.0613L23.4238 39.494ZM27.8066 24.7187L23.9387 25.2993L24.7895 23.3807L27.8066 24.7187ZM11.9951 25.9299L15.8394 27.8032L17.91 31.949L18.7309 30.0979L17.5982 27.8299L19.8892 27.486L20.6393 25.7945L16.5436 26.4093L12.991 24.6782L22.8036 23.3068L21.7761 25.6239L21.0259 27.3154L19.293 31.2232L18.4721 33.0743L16.9994 36.3952L11.9951 25.9299ZM19.5413 35.2152L21.7795 39.6964L18.2485 38.1305L19.5413 35.2152Z" fill="white"/>
<path d="M33.348 21.7928L40.6371 5.356C40.8437 4.89017 40.6335 4.34507 40.1677 4.13849L33.6507 1.24843C33.6439 1.24543 33.637 1.24339 33.6302 1.24056C33.6129 1.23337 33.5955 1.22656 33.5778 1.22041C33.5659 1.2163 33.554 1.21258 33.5421 1.20898C33.5254 1.20396 33.5087 1.19933 33.4917 1.19525C33.4781 1.19199 33.4646 1.18912 33.451 1.18649C33.4356 1.18353 33.4202 1.18091 33.4046 1.17873C33.3891 1.17655 33.3736 1.17483 33.3581 1.17346C33.3442 1.17225 33.3304 1.17127 33.3165 1.17068C33.299 1.16993 33.2817 1.16979 33.2643 1.17003C33.2517 1.17021 33.2392 1.17052 33.2266 1.17122C33.208 1.17225 33.1896 1.17399 33.1711 1.17613C33.1637 1.17699 33.1564 1.17705 33.149 1.17809L18.949 3.16271C18.6576 3.20341 18.4031 3.3807 18.2639 3.63986C18.2528 3.66051 18.2426 3.68137 18.2332 3.70253C18.1243 3.94806 18.1275 4.23022 18.2443 4.47455L25.1552 18.9267C25.1562 18.929 25.1576 18.931 25.1587 18.9332C25.1673 18.9509 25.1771 18.968 25.1868 18.9851C25.1922 18.9946 25.1972 19.0045 25.2029 19.0137C25.2128 19.0298 25.2238 19.0451 25.2347 19.0605C25.2414 19.07 25.2476 19.0799 25.2546 19.0891C25.2649 19.1026 25.2764 19.1154 25.2875 19.1284C25.296 19.1383 25.304 19.1487 25.3129 19.1582C25.3234 19.1695 25.3349 19.1798 25.346 19.1906C25.3565 19.2008 25.3666 19.2114 25.3775 19.221C25.3875 19.2299 25.3985 19.2379 25.4091 19.2464C25.4221 19.2568 25.4348 19.2677 25.4483 19.2774C25.4579 19.2843 25.4683 19.2904 25.4782 19.2969C25.4937 19.3072 25.509 19.3176 25.5249 19.3268C25.5348 19.3325 25.5452 19.3374 25.5553 19.3427C25.5723 19.3517 25.5892 19.3608 25.6067 19.3687C25.609 19.3697 25.6112 19.3711 25.6135 19.3721L32.1305 22.2622C32.5963 22.4688 33.1414 22.2586 33.348 21.7928ZM32.3804 19.4227L29.3188 13.2928L32.1451 6.91951L38.3373 5.99004L32.3804 19.4227ZM36.7632 4.64738L32.8953 5.22799L33.7461 3.3094L36.7632 4.64738ZM20.9516 5.85866L24.796 7.73196L26.8666 11.8777L27.6875 10.0267L26.5547 7.75865L28.8458 7.41476L29.5959 5.72324L25.5001 6.33805L21.9475 4.60692L31.7602 3.23549L30.7326 5.55262L29.9825 7.24413L28.2495 11.152L27.4286 13.003L25.956 16.3239L20.9516 5.85866ZM28.4979 15.1439L30.736 19.6251L27.2051 18.0592L28.4979 15.1439Z" fill="white"/>
</svg>
